<?xml version="1.0" encoding="UTF-8" standalone="no"?><svg xmlns="http://www.w3.org/2000/svg" xmlns:xlink="http://www.w3.org/1999/xlink" clip-rule="evenodd" stroke-miterlimit="10" viewBox="0 0 1920 1080"><desc>SVG generated by Keynote</desc><defs></defs><g transform="matrix(1.00, 0.00, -0.00, -1.00, 0.0, 1080.0)"><g><clipPath id="clip0x608000aad740"><path d="M 0.0 1080.0 L 1920.0 1080.0 L 1920.0 0.0 L 0.0 0.0 Z M 0.0 1080.0 "></path></clipPath><g clip-path="url(#clip0x608000aad740)"><image xlink:href="../../670AF0A5-B06C-45B2-A649-BC83FE98871A/assets/400D38DE9BD779267D8D9BA1A44336F3.jpeg" width="3840.00" height="2160.00" transform="matrix(0.50, 0.00, -0.00, -0.50, 0.0, 1080.0)"></image></g></g><text xml:space="preserve" font-family="GillSans-Light,Gill Sans" font-size="100.0" fill="#525252" transform="matrix(1.00, 0.00, -0.00, -1.00, 407.2, 883.8)">S</text><text xml:space="preserve" font-family="GillSans-Light,Gill Sans" font-size="100.0" fill="#525252" transform="matrix(1.00, 0.00, -0.00, -1.00, 454.1, 883.8)">C</text><text xml:space="preserve" font-family="GillSans-Light,Gill Sans" font-size="100.0" fill="#525252" transform="matrix(1.00, 0.00, -0.00, -1.00, 521.8, 883.8)">R</text><text xml:space="preserve" font-family="GillSans-Light,Gill Sans" font-size="100.0" fill="#525252" transform="matrix(1.00, 0.00, -0.00, -1.00, 579.1, 883.8)">A</text><text xml:space="preserve" font-family="GillSans-Light,Gill Sans" font-size="100.0" fill="#525252" transform="matrix(1.00, 0.00, -0.00, -1.00, 635.8, 883.8)">T</text><text xml:space="preserve" font-family="GillSans-Light,Gill Sans" font-size="100.0" fill="#525252" transform="matrix(1.00, 0.00, -0.00, -1.00, 693.2, 883.8)">C</text><text xml:space="preserve" font-family="GillSans-Light,Gill Sans" font-size="100.0" fill="#525252" transform="matrix(1.00, 0.00, -0.00, -1.00, 760.8, 883.8)">H</text><text xml:space="preserve" font-family="GillSans-Light,Gill Sans" font-size="100.0" fill="#525252" transform="matrix(1.00, 0.00, -0.00, -1.00, 832.8, 883.8)"> </text><text xml:space="preserve" font-family="GillSans-Light,Gill Sans" font-size="100.0" fill="#525252" transform="matrix(1.00, 0.00, -0.00, -1.00, 860.5, 883.8)">F</text><text xml:space="preserve" font-family="GillSans-Light,Gill Sans" font-size="100.0" fill="#525252" transform="matrix(1.00, 0.00, -0.00, -1.00, 904.3, 883.8)">O</text><text xml:space="preserve" font-family="GillSans-Light,Gill Sans" font-size="100.0" fill="#525252" transform="matrix(1.00, 0.00, -0.00, -1.00, 986.7, 883.8)">R</text><text xml:space="preserve" font-family="GillSans-Light,Gill Sans" font-size="100.0" fill="#525252" transform="matrix(1.00, 0.00, -0.00, -1.00, 1044.0, 883.8)"> </text><text xml:space="preserve" font-family="GillSans-Light,Gill Sans" font-size="100.0" fill="#525252" transform="matrix(1.00, 0.00, -0.00, -1.00, 1065.8, 883.8)">A</text><text xml:space="preserve" font-family="GillSans-Light,Gill Sans" font-size="100.0" fill="#525252" transform="matrix(1.00, 0.00, -0.00, -1.00, 1132.5, 883.8)">R</text><text xml:space="preserve" font-family="GillSans-Light,Gill Sans" font-size="100.0" fill="#525252" transform="matrix(1.00, 0.00, -0.00, -1.00, 1189.8, 883.8)">D</text><text xml:space="preserve" font-family="GillSans-Light,Gill Sans" font-size="100.0" fill="#525252" transform="matrix(1.00, 0.00, -0.00, -1.00, 1263.9, 883.8)">U</text><text xml:space="preserve" font-family="GillSans-Light,Gill Sans" font-size="100.0" fill="#525252" transform="matrix(1.00, 0.00, -0.00, -1.00, 1333.7, 883.8)">I</text><text xml:space="preserve" font-family="GillSans-Light,Gill Sans" font-size="100.0" fill="#525252" transform="matrix(1.00, 0.00, -0.00, -1.00, 1354.5, 883.8)">N</text><text xml:space="preserve" font-family="GillSans-Light,Gill Sans" font-size="100.0" fill="#525252" transform="matrix(1.00, 0.00, -0.00, -1.00, 1431.6, 883.8)">O</text><text xml:space="preserve" font-family="GillSans-Light,Gill Sans" font-size="52.5" fill="#525252" transform="matrix(1.00, 0.00, -0.00, -1.00, 57.0, 638.5)">•</text><text xml:space="preserve" font-family="GillSans-Light,Gill Sans" font-size="64.0" fill="#525252" transform="matrix(1.00, 0.00, -0.00, -1.00, 115.0, 635.2)">E</text><text xml:space="preserve" font-family="GillSans-Light,Gill Sans" font-size="64.0" fill="#525252" transform="matrix(1.00, 0.00, -0.00, -1.00, 146.4, 635.2)">s</text><text xml:space="preserve" font-family="GillSans-Light,Gill Sans" font-size="64.0" fill="#525252" transform="matrix(1.00, 0.00, -0.00, -1.00, 169.0, 635.2)"> </text><text xml:space="preserve" font-family="GillSans-Light,Gill Sans" font-size="64.0" fill="#525252" transform="matrix(1.00, 0.00, -0.00, -1.00, 186.8, 635.2)">u</text><text xml:space="preserve" font-family="GillSans-Light,Gill Sans" font-size="64.0" fill="#525252" transform="matrix(1.00, 0.00, -0.00, -1.00, 218.2, 635.2)">n</text><text xml:space="preserve" font-family="GillSans-Light,Gill Sans" font-size="64.0" fill="#525252" transform="matrix(1.00, 0.00, -0.00, -1.00, 249.6, 635.2)">a</text><text xml:space="preserve" font-family="GillSans-Light,Gill Sans" font-size="64.0" fill="#525252" transform="matrix(1.00, 0.00, -0.00, -1.00, 276.9, 635.2)"> </text><text xml:space="preserve" font-family="GillSans-Light,Gill Sans" font-size="64.0" fill="#525252" transform="matrix(1.00, 0.00, -0.00, -1.00, 294.7, 635.2)">m</text><text xml:space="preserve" font-family="GillSans-Light,Gill Sans" font-size="64.0" fill="#525252" transform="matrix(1.00, 0.00, -0.00, -1.00, 344.0, 635.2)">o</text><text xml:space="preserve" font-family="GillSans-Light,Gill Sans" font-size="64.0" fill="#525252" transform="matrix(1.00, 0.00, -0.00, -1.00, 378.7, 635.2)">d</text><text xml:space="preserve" font-family="GillSans-Light,Gill Sans" font-size="64.0" fill="#525252" transform="matrix(1.00, 0.00, -0.00, -1.00, 411.3, 635.2)">i</text><text xml:space="preserve" font-family="GillSans-Light,Gill Sans" font-size="64.0" fill="#525252" transform="matrix(1.00, 0.00, -0.00, -1.00, 423.3, 635.2)">ﬁ</text><text xml:space="preserve" font-family="GillSans-Light,Gill Sans" font-size="64.0" fill="#525252" transform="matrix(1.00, 0.00, -0.00, -1.00, 454.0, 635.2)">c</text><text xml:space="preserve" font-family="GillSans-Light,Gill Sans" font-size="64.0" fill="#525252" transform="matrix(1.00, 0.00, -0.00, -1.00, 480.7, 635.2)">a</text><text xml:space="preserve" font-family="GillSans-Light,Gill Sans" font-size="64.0" fill="#525252" transform="matrix(1.00, 0.00, -0.00, -1.00, 508.0, 635.2)">c</text><text xml:space="preserve" font-family="GillSans-Light,Gill Sans" font-size="64.0" fill="#525252" transform="matrix(1.00, 0.00, -0.00, -1.00, 534.7, 635.2)">i</text><text xml:space="preserve" font-family="GillSans-Light,Gill Sans" font-size="64.0" fill="#525252" transform="matrix(1.00, 0.00, -0.00, -1.00, 546.7, 635.2)">ó</text><text xml:space="preserve" font-family="GillSans-Light,Gill Sans" font-size="64.0" fill="#525252" transform="matrix(1.00, 0.00, -0.00, -1.00, 581.4, 635.2)">n</text><text xml:space="preserve" font-family="GillSans-Light,Gill Sans" font-size="64.0" fill="#525252" transform="matrix(1.00, 0.00, -0.00, -1.00, 612.8, 635.2)"> </text><text xml:space="preserve" font-family="GillSans-Light,Gill Sans" font-size="64.0" fill="#525252" transform="matrix(1.00, 0.00, -0.00, -1.00, 630.5, 635.2)">d</text><text xml:space="preserve" font-family="GillSans-Light,Gill Sans" font-size="64.0" fill="#525252" transform="matrix(1.00, 0.00, -0.00, -1.00, 663.1, 635.2)">e</text><text xml:space="preserve" font-family="GillSans-Light,Gill Sans" font-size="64.0" fill="#525252" transform="matrix(1.00, 0.00, -0.00, -1.00, 693.8, 635.2)"> </text><text xml:space="preserve" font-family="GillSans-Light,Gill Sans" font-size="64.0" fill="#525252" transform="matrix(1.00, 0.00, -0.00, -1.00, 711.6, 635.2)">S</text><text xml:space="preserve" font-family="GillSans-Light,Gill Sans" font-size="64.0" fill="#525252" transform="matrix(1.00, 0.00, -0.00, -1.00, 741.6, 635.2)">c</text><text xml:space="preserve" font-family="GillSans-Light,Gill Sans" font-size="64.0" fill="#525252" transform="matrix(1.00, 0.00, -0.00, -1.00, 768.3, 635.2)">r</text><text xml:space="preserve" font-family="GillSans-Light,Gill Sans" font-size="64.0" fill="#525252" transform="matrix(1.00, 0.00, -0.00, -1.00, 791.2, 635.2)">a</text><text xml:space="preserve" font-family="GillSans-Light,Gill Sans" font-size="64.0" fill="#525252" transform="matrix(1.00, 0.00, -0.00, -1.00, 818.5, 635.2)">t</text><text xml:space="preserve" font-family="GillSans-Light,Gill Sans" font-size="64.0" fill="#525252" transform="matrix(1.00, 0.00, -0.00, -1.00, 837.8, 635.2)">c</text><text xml:space="preserve" font-family="GillSans-Light,Gill Sans" font-size="64.0" fill="#525252" transform="matrix(1.00, 0.00, -0.00, -1.00, 864.5, 635.2)">h</text><text xml:space="preserve" font-family="GillSans-Light,Gill Sans" font-size="64.0" fill="#525252" transform="matrix(1.00, 0.00, -0.00, -1.00, 895.9, 635.2)"> </text><text xml:space="preserve" font-family="GillSans-Light,Gill Sans" font-size="64.0" fill="#525252" transform="matrix(1.00, 0.00, -0.00, -1.00, 913.7, 635.2)">p</text><text xml:space="preserve" font-family="GillSans-Light,Gill Sans" font-size="64.0" fill="#525252" transform="matrix(1.00, 0.00, -0.00, -1.00, 946.3, 635.2)">a</text><text xml:space="preserve" font-family="GillSans-Light,Gill Sans" font-size="64.0" fill="#525252" transform="matrix(1.00, 0.00, -0.00, -1.00, 973.6, 635.2)">r</text><text xml:space="preserve" font-family="GillSans-Light,Gill Sans" font-size="64.0" fill="#525252" transform="matrix(1.00, 0.00, -0.00, -1.00, 996.5, 635.2)">a</text><text xml:space="preserve" font-family="GillSans-Light,Gill Sans" font-size="64.0" fill="#525252" transform="matrix(1.00, 0.00, -0.00, -1.00, 1023.8, 635.2)"> </text><text xml:space="preserve" font-family="GillSans-Light,Gill Sans" font-size="64.0" fill="#525252" transform="matrix(1.00, 0.00, -0.00, -1.00, 1037.7, 635.2)">A</text><text xml:space="preserve" font-family="GillSans-Light,Gill Sans" font-size="64.0" fill="#525252" transform="matrix(1.00, 0.00, -0.00, -1.00, 1080.4, 635.2)">r</text><text xml:space="preserve" font-family="GillSans-Light,Gill Sans" font-size="64.0" fill="#525252" transform="matrix(1.00, 0.00, -0.00, -1.00, 1101.7, 635.2)">d</text><text xml:space="preserve" font-family="GillSans-Light,Gill Sans" font-size="64.0" fill="#525252" transform="matrix(1.00, 0.00, -0.00, -1.00, 1134.3, 635.2)">u</text><text xml:space="preserve" font-family="GillSans-Light,Gill Sans" font-size="64.0" fill="#525252" transform="matrix(1.00, 0.00, -0.00, -1.00, 1165.7, 635.2)">i</text><text xml:space="preserve" font-family="GillSans-Light,Gill Sans" font-size="64.0" fill="#525252" transform="matrix(1.00, 0.00, -0.00, -1.00, 1177.7, 635.2)">n</text><text xml:space="preserve" font-family="GillSans-Light,Gill Sans" font-size="64.0" fill="#525252" transform="matrix(1.00, 0.00, -0.00, -1.00, 1209.1, 635.2)">o</text><text xml:space="preserve" font-family="GillSans-Light,Gill Sans" font-size="52.5" fill="#525252" transform="matrix(1.00, 0.00, -0.00, -1.00, 57.0, 487.1)">•</text><text xml:space="preserve" font-family="GillSans-Light,Gill Sans" font-size="64.0" fill="#525252" transform="matrix(1.00, 0.00, -0.00, -1.00, 115.0, 483.9)">R</text><text xml:space="preserve" font-family="GillSans-Light,Gill Sans" font-size="64.0" fill="#525252" transform="matrix(1.00, 0.00, -0.00, -1.00, 151.7, 483.9)">e</text><text xml:space="preserve" font-family="GillSans-Light,Gill Sans" font-size="64.0" fill="#525252" transform="matrix(1.00, 0.00, -0.00, -1.00, 182.4, 483.9)">q</text><text xml:space="preserve" font-family="GillSans-Light,Gill Sans" font-size="64.0" fill="#525252" transform="matrix(1.00, 0.00, -0.00, -1.00, 215.0, 483.9)">u</text><text xml:space="preserve" font-family="GillSans-Light,Gill Sans" font-size="64.0" fill="#525252" transform="matrix(1.00, 0.00, -0.00, -1.00, 246.4, 483.9)">i</text><text xml:space="preserve" font-family="GillSans-Light,Gill Sans" font-size="64.0" fill="#525252" transform="matrix(1.00, 0.00, -0.00, -1.00, 258.4, 483.9)">e</text><text xml:space="preserve" font-family="GillSans-Light,Gill Sans" font-size="64.0" fill="#525252" transform="matrix(1.00, 0.00, -0.00, -1.00, 289.0, 483.9)">r</text><text xml:space="preserve" font-family="GillSans-Light,Gill Sans" font-size="64.0" fill="#525252" transform="matrix(1.00, 0.00, -0.00, -1.00, 310.4, 483.9)">e</text><text xml:space="preserve" font-family="GillSans-Light,Gill Sans" font-size="64.0" fill="#525252" transform="matrix(1.00, 0.00, -0.00, -1.00, 341.0, 483.9)"> </text><text xml:space="preserve" font-family="GillSans-Light,Gill Sans" font-size="64.0" fill="#525252" transform="matrix(1.00, 0.00, -0.00, -1.00, 358.8, 483.9)">u</text><text xml:space="preserve" font-family="GillSans-Light,Gill Sans" font-size="64.0" fill="#525252" transform="matrix(1.00, 0.00, -0.00, -1.00, 390.2, 483.9)">n</text><text xml:space="preserve" font-family="GillSans-Light,Gill Sans" font-size="64.0" fill="#525252" transform="matrix(1.00, 0.00, -0.00, -1.00, 421.6, 483.9)">a</text><text xml:space="preserve" font-family="GillSans-Light,Gill Sans" font-size="64.0" fill="#525252" transform="matrix(1.00, 0.00, -0.00, -1.00, 448.9, 483.9)"> </text><text xml:space="preserve" font-family="GillSans-Light,Gill Sans" font-size="64.0" fill="#525252" transform="matrix(1.00, 0.00, -0.00, -1.00, 466.6, 483.9)">m</text><text xml:space="preserve" font-family="GillSans-Light,Gill Sans" font-size="64.0" fill="#525252" transform="matrix(1.00, 0.00, -0.00, -1.00, 516.0, 483.9)">o</text><text xml:space="preserve" font-family="GillSans-Light,Gill Sans" font-size="64.0" fill="#525252" transform="matrix(1.00, 0.00, -0.00, -1.00, 550.7, 483.9)">d</text><text xml:space="preserve" font-family="GillSans-Light,Gill Sans" font-size="64.0" fill="#525252" transform="matrix(1.00, 0.00, -0.00, -1.00, 583.3, 483.9)">i</text><text xml:space="preserve" font-family="GillSans-Light,Gill Sans" font-size="64.0" fill="#525252" transform="matrix(1.00, 0.00, -0.00, -1.00, 595.3, 483.9)">ﬁ</text><text xml:space="preserve" font-family="GillSans-Light,Gill Sans" font-size="64.0" fill="#525252" transform="matrix(1.00, 0.00, -0.00, -1.00, 626.0, 483.9)">c</text><text xml:space="preserve" font-family="GillSans-Light,Gill Sans" font-size="64.0" fill="#525252" transform="matrix(1.00, 0.00, -0.00, -1.00, 652.6, 483.9)">a</text><text xml:space="preserve" font-family="GillSans-Light,Gill Sans" font-size="64.0" fill="#525252" transform="matrix(1.00, 0.00, -0.00, -1.00, 679.9, 483.9)">c</text><text xml:space="preserve" font-family="GillSans-Light,Gill Sans" font-size="64.0" fill="#525252" transform="matrix(1.00, 0.00, -0.00, -1.00, 706.6, 483.9)">i</text><text xml:space="preserve" font-family="GillSans-Light,Gill Sans" font-size="64.0" fill="#525252" transform="matrix(1.00, 0.00, -0.00, -1.00, 718.7, 483.9)">ó</text><text xml:space="preserve" font-family="GillSans-Light,Gill Sans" font-size="64.0" fill="#525252" transform="matrix(1.00, 0.00, -0.00, -1.00, 753.3, 483.9)">n</text><text xml:space="preserve" font-family="GillSans-Light,Gill Sans" font-size="64.0" fill="#525252" transform="matrix(1.00, 0.00, -0.00, -1.00, 784.7, 483.9)"> </text><text xml:space="preserve" font-family="GillSans-Light,Gill Sans" font-size="64.0" fill="#525252" transform="matrix(1.00, 0.00, -0.00, -1.00, 802.5, 483.9)">e</text><text xml:space="preserve" font-family="GillSans-Light,Gill Sans" font-size="64.0" fill="#525252" transform="matrix(1.00, 0.00, -0.00, -1.00, 833.2, 483.9)">n</text><text xml:space="preserve" font-family="GillSans-Light,Gill Sans" font-size="64.0" fill="#525252" transform="matrix(1.00, 0.00, -0.00, -1.00, 864.5, 483.9)"> </text><text xml:space="preserve" font-family="GillSans-Light,Gill Sans" font-size="64.0" fill="#525252" transform="matrix(1.00, 0.00, -0.00, -1.00, 882.3, 483.9)">l</text><text xml:space="preserve" font-family="GillSans-Light,Gill Sans" font-size="64.0" fill="#525252" transform="matrix(1.00, 0.00, -0.00, -1.00, 894.3, 483.9)">a</text><text xml:space="preserve" font-family="GillSans-Light,Gill Sans" font-size="64.0" fill="#525252" transform="matrix(1.00, 0.00, -0.00, -1.00, 921.6, 483.9)"> </text><text xml:space="preserve" font-family="GillSans-Light,Gill Sans" font-size="64.0" fill="#525252" transform="matrix(1.00, 0.00, -0.00, -1.00, 939.4, 483.9)">p</text><text xml:space="preserve" font-family="GillSans-Light,Gill Sans" font-size="64.0" fill="#525252" transform="matrix(1.00, 0.00, -0.00, -1.00, 972.0, 483.9)">l</text><text xml:space="preserve" font-family="GillSans-Light,Gill Sans" font-size="64.0" fill="#525252" transform="matrix(1.00, 0.00, -0.00, -1.00, 984.1, 483.9)">a</text><text xml:space="preserve" font-family="GillSans-Light,Gill Sans" font-size="64.0" fill="#525252" transform="matrix(1.00, 0.00, -0.00, -1.00, 1011.4, 483.9)">c</text><text xml:space="preserve" font-family="GillSans-Light,Gill Sans" font-size="64.0" fill="#525252" transform="matrix(1.00, 0.00, -0.00, -1.00, 1038.0, 483.9)">a</text><text xml:space="preserve" font-family="GillSans-Light,Gill Sans" font-size="64.0" fill="#525252" transform="matrix(1.00, 0.00, -0.00, -1.00, 1065.3, 483.9)"> </text><text xml:space="preserve" font-family="GillSans-Light,Gill Sans" font-size="64.0" fill="#525252" transform="matrix(1.00, 0.00, -0.00, -1.00, 1083.1, 483.9)">(</text><text xml:space="preserve" font-family="GillSans-LightItalic,Gill Sans" font-style="italic" font-size="64.0" fill="#525252" transform="matrix(1.00, 0.00, -0.00, -1.00, 1104.5, 483.9)">ﬁ</text><text xml:space="preserve" font-family="GillSans-LightItalic,Gill Sans" font-style="italic" font-size="64.0" fill="#525252" transform="matrix(1.00, 0.00, -0.00, -1.00, 1134.6, 483.9)">r</text><text xml:space="preserve" font-family="GillSans-LightItalic,Gill Sans" font-style="italic" font-size="64.0" fill="#525252" transform="matrix(1.00, 0.00, -0.00, -1.00, 1153.5, 483.9)">m</text><text xml:space="preserve" font-family="GillSans-LightItalic,Gill Sans" font-style="italic" font-size="64.0" fill="#525252" transform="matrix(1.00, 0.00, -0.00, -1.00, 1200.9, 483.9)">w</text><text xml:space="preserve" font-family="GillSans-LightItalic,Gill Sans" font-style="italic" font-size="64.0" fill="#525252" transform="matrix(1.00, 0.00, -0.00, -1.00, 1239.3, 483.9)">a</text><text xml:space="preserve" font-family="GillSans-LightItalic,Gill Sans" font-style="italic" font-size="64.0" fill="#525252" transform="matrix(1.00, 0.00, -0.00, -1.00, 1270.0, 483.9)">r</text><text xml:space="preserve" font-family="GillSans-LightItalic,Gill Sans" font-style="italic" font-size="64.0" fill="#525252" transform="matrix(1.00, 0.00, -0.00, -1.00, 1287.3, 483.9)">e</text><text xml:space="preserve" font-family="GillSans-Light,Gill Sans" font-size="64.0" fill="#525252" transform="matrix(1.00, 0.00, -0.00, -1.00, 1316.0, 483.9)">)</text><text xml:space="preserve" font-family="GillSans-Light,Gill Sans" font-size="52.5" fill="#525252" transform="matrix(1.00, 0.00, -0.00, -1.00, 57.0, 335.7)">•</text><text xml:space="preserve" font-family="GillSans-Light,Gill Sans" font-size="64.0" fill="#525252" transform="matrix(1.00, 0.00, -0.00, -1.00, 115.0, 332.4)">F</text><text xml:space="preserve" font-family="GillSans-Light,Gill Sans" font-size="64.0" fill="#525252" transform="matrix(1.00, 0.00, -0.00, -1.00, 143.0, 332.4)">á</text><text xml:space="preserve" font-family="GillSans-Light,Gill Sans" font-size="64.0" fill="#525252" transform="matrix(1.00, 0.00, -0.00, -1.00, 170.3, 332.4)">c</text><text xml:space="preserve" font-family="GillSans-Light,Gill Sans" font-size="64.0" fill="#525252" transform="matrix(1.00, 0.00, -0.00, -1.00, 197.0, 332.4)">i</text><text xml:space="preserve" font-family="GillSans-Light,Gill Sans" font-size="64.0" fill="#525252" transform="matrix(1.00, 0.00, -0.00, -1.00, 209.0, 332.4)">l</text><text xml:space="preserve" font-family="GillSans-Light,Gill Sans" font-size="64.0" fill="#525252" transform="matrix(1.00, 0.00, -0.00, -1.00, 221.1, 332.4)"> </text><text xml:space="preserve" font-family="GillSans-Light,Gill Sans" font-size="64.0" fill="#525252" transform="matrix(1.00, 0.00, -0.00, -1.00, 238.8, 332.4)">y</text><text xml:space="preserve" font-family="GillSans-Light,Gill Sans" font-size="64.0" fill="#525252" transform="matrix(1.00, 0.00, -0.00, -1.00, 265.5, 332.4)"> </text><text xml:space="preserve" font-family="GillSans-Light,Gill Sans" font-size="64.0" fill="#525252" transform="matrix(1.00, 0.00, -0.00, -1.00, 283.3, 332.4)">r</text><text xml:space="preserve" font-family="GillSans-Light,Gill Sans" font-size="64.0" fill="#525252" transform="matrix(1.00, 0.00, -0.00, -1.00, 304.6, 332.4)">á</text><text xml:space="preserve" font-family="GillSans-Light,Gill Sans" font-size="64.0" fill="#525252" transform="matrix(1.00, 0.00, -0.00, -1.00, 331.9, 332.4)">p</text><text xml:space="preserve" font-family="GillSans-Light,Gill Sans" font-size="64.0" fill="#525252" transform="matrix(1.00, 0.00, -0.00, -1.00, 364.5, 332.4)">i</text><text xml:space="preserve" font-family="GillSans-Light,Gill Sans" font-size="64.0" fill="#525252" transform="matrix(1.00, 0.00, -0.00, -1.00, 376.6, 332.4)">d</text><text xml:space="preserve" font-family="GillSans-Light,Gill Sans" font-size="64.0" fill="#525252" transform="matrix(1.00, 0.00, -0.00, -1.00, 409.2, 332.4)">o</text><text xml:space="preserve" font-family="GillSans-Light,Gill Sans" font-size="64.0" fill="#525252" transform="matrix(1.00, 0.00, -0.00, -1.00, 443.9, 332.4)"> </text><text xml:space="preserve" font-family="GillSans-Light,Gill Sans" font-size="64.0" fill="#525252" transform="matrix(1.00, 0.00, -0.00, -1.00, 461.6, 332.4)">d</text><text xml:space="preserve" font-family="GillSans-Light,Gill Sans" font-size="64.0" fill="#525252" transform="matrix(1.00, 0.00, -0.00, -1.00, 494.2, 332.4)">e</text><text xml:space="preserve" font-family="GillSans-Light,Gill Sans" font-size="64.0" fill="#525252" transform="matrix(1.00, 0.00, -0.00, -1.00, 524.9, 332.4)"> </text><text xml:space="preserve" font-family="GillSans-Light,Gill Sans" font-size="64.0" fill="#525252" transform="matrix(1.00, 0.00, -0.00, -1.00, 542.7, 332.4)">p</text><text xml:space="preserve" font-family="GillSans-Light,Gill Sans" font-size="64.0" fill="#525252" transform="matrix(1.00, 0.00, -0.00, -1.00, 575.3, 332.4)">r</text><text xml:space="preserve" font-family="GillSans-Light,Gill Sans" font-size="64.0" fill="#525252" transform="matrix(1.00, 0.00, -0.00, -1.00, 596.6, 332.4)">o</text><text xml:space="preserve" font-family="GillSans-Light,Gill Sans" font-size="64.0" fill="#525252" transform="matrix(1.00, 0.00, -0.00, -1.00, 631.3, 332.4)">g</text><text xml:space="preserve" font-family="GillSans-Light,Gill Sans" font-size="64.0" fill="#525252" transform="matrix(1.00, 0.00, -0.00, -1.00, 658.6, 332.4)">r</text><text xml:space="preserve" font-family="GillSans-Light,Gill Sans" font-size="64.0" fill="#525252" transform="matrix(1.00, 0.00, -0.00, -1.00, 681.5, 332.4)">a</text><text xml:space="preserve" font-family="GillSans-Light,Gill Sans" font-size="64.0" fill="#525252" transform="matrix(1.00, 0.00, -0.00, -1.00, 708.8, 332.4)">m</text><text xml:space="preserve" font-family="GillSans-Light,Gill Sans" font-size="64.0" fill="#525252" transform="matrix(1.00, 0.00, -0.00, -1.00, 758.1, 332.4)">a</text><text xml:space="preserve" font-family="GillSans-Light,Gill Sans" font-size="64.0" fill="#525252" transform="matrix(1.00, 0.00, -0.00, -1.00, 785.4, 332.4)">r</text><text xml:space="preserve" font-family="GillSans-Light,Gill Sans" font-size="52.5" fill="#525252" transform="matrix(1.00, 0.00, -0.00, -1.00, 57.0, 184.3)">•</text><text xml:space="preserve" font-family="GillSans-Light,Gill Sans" font-size="64.0" fill="#525252" transform="matrix(1.00, 0.00, -0.00, -1.00, 115.0, 181.1)">T</text><text xml:space="preserve" font-family="GillSans-Light,Gill Sans" font-size="64.0" fill="#525252" transform="matrix(1.00, 0.00, -0.00, -1.00, 151.7, 181.1)">i</text><text xml:space="preserve" font-family="GillSans-Light,Gill Sans" font-size="64.0" fill="#525252" transform="matrix(1.00, 0.00, -0.00, -1.00, 163.7, 181.1)">e</text><text xml:space="preserve" font-family="GillSans-Light,Gill Sans" font-size="64.0" fill="#525252" transform="matrix(1.00, 0.00, -0.00, -1.00, 194.4, 181.1)">n</text><text xml:space="preserve" font-family="GillSans-Light,Gill Sans" font-size="64.0" fill="#525252" transform="matrix(1.00, 0.00, -0.00, -1.00, 225.8, 181.1)">e</text><text xml:space="preserve" font-family="GillSans-Light,Gill Sans" font-size="64.0" fill="#525252" transform="matrix(1.00, 0.00, -0.00, -1.00, 256.4, 181.1)"> </text><text xml:space="preserve" font-family="GillSans-Light,Gill Sans" font-size="64.0" fill="#525252" transform="matrix(1.00, 0.00, -0.00, -1.00, 274.2, 181.1)">c</text><text xml:space="preserve" font-family="GillSans-Light,Gill Sans" font-size="64.0" fill="#525252" transform="matrix(1.00, 0.00, -0.00, -1.00, 300.9, 181.1)">i</text><text xml:space="preserve" font-family="GillSans-Light,Gill Sans" font-size="64.0" fill="#525252" transform="matrix(1.00, 0.00, -0.00, -1.00, 312.9, 181.1)">e</text><text xml:space="preserve" font-family="GillSans-Light,Gill Sans" font-size="64.0" fill="#525252" transform="matrix(1.00, 0.00, -0.00, -1.00, 343.6, 181.1)">r</text><text xml:space="preserve" font-family="GillSans-Light,Gill Sans" font-size="64.0" fill="#525252" transform="matrix(1.00, 0.00, -0.00, -1.00, 370.0, 181.1)">t</text><text xml:space="preserve" font-family="GillSans-Light,Gill Sans" font-size="64.0" fill="#525252" transform="matrix(1.00, 0.00, -0.00, -1.00, 389.3, 181.1)">a</text><text xml:space="preserve" font-family="GillSans-Light,Gill Sans" font-size="64.0" fill="#525252" transform="matrix(1.00, 0.00, -0.00, -1.00, 416.6, 181.1)">s</text><text xml:space="preserve" font-family="GillSans-Light,Gill Sans" font-size="64.0" fill="#525252" transform="matrix(1.00, 0.00, -0.00, -1.00, 439.3, 181.1)"> </text><text xml:space="preserve" font-family="GillSans-Light,Gill Sans" font-size="64.0" fill="#525252" transform="matrix(1.00, 0.00, -0.00, -1.00, 457.0, 181.1)">l</text><text xml:space="preserve" font-family="GillSans-Light,Gill Sans" font-size="64.0" fill="#525252" transform="matrix(1.00, 0.00, -0.00, -1.00, 469.1, 181.1)">i</text><text xml:space="preserve" font-family="GillSans-Light,Gill Sans" font-size="64.0" fill="#525252" transform="matrix(1.00, 0.00, -0.00, -1.00, 481.1, 181.1)">m</text><text xml:space="preserve" font-family="GillSans-Light,Gill Sans" font-size="64.0" fill="#525252" transform="matrix(1.00, 0.00, -0.00, -1.00, 530.4, 181.1)">i</text><text xml:space="preserve" font-family="GillSans-Light,Gill Sans" font-size="64.0" fill="#525252" transform="matrix(1.00, 0.00, -0.00, -1.00, 542.5, 181.1)">t</text><text xml:space="preserve" font-family="GillSans-Light,Gill Sans" font-size="64.0" fill="#525252" transform="matrix(1.00, 0.00, -0.00, -1.00, 561.8, 181.1)">a</text><text xml:space="preserve" font-family="GillSans-Light,Gill Sans" font-size="64.0" fill="#525252" transform="matrix(1.00, 0.00, -0.00, -1.00, 589.1, 181.1)">c</text><text xml:space="preserve" font-family="GillSans-Light,Gill Sans" font-size="64.0" fill="#525252" transform="matrix(1.00, 0.00, -0.00, -1.00, 615.8, 181.1)">i</text><text xml:space="preserve" font-family="GillSans-Light,Gill Sans" font-size="64.0" fill="#525252" transform="matrix(1.00, 0.00, -0.00, -1.00, 627.8, 181.1)">o</text><text xml:space="preserve" font-family="GillSans-Light,Gill Sans" font-size="64.0" fill="#525252" transform="matrix(1.00, 0.00, -0.00, -1.00, 662.5, 181.1)">n</text><text xml:space="preserve" font-family="GillSans-Light,Gill Sans" font-size="64.0" fill="#525252" transform="matrix(1.00, 0.00, -0.00, -1.00, 693.9, 181.1)">e</text><text xml:space="preserve" font-family="GillSans-Light,Gill Sans" font-size="64.0" fill="#525252" transform="matrix(1.00, 0.00, -0.00, -1.00, 724.5, 181.1)">s</text></g></svg>