<?xml version="1.0" encoding="UTF-8" standalone="no"?><svg xmlns="http://www.w3.org/2000/svg" xmlns:xlink="http://www.w3.org/1999/xlink" clip-rule="evenodd" stroke-miterlimit="10" viewBox="0 0 781 50"><desc>SVG generated by Keynote</desc><defs></defs><g transform="matrix(1.00, 0.00, -0.00, -1.00, 0.0, 50.0)"><text xml:space="preserve" font-family="GillSans-Light,Gill Sans" font-size="52.0" fill="#525252" transform="matrix(1.00, 0.00, -0.00, -1.00, -2.9, 13.4)">P</text><text xml:space="preserve" font-family="GillSans-Light,Gill Sans" font-size="52.0" fill="#525252" transform="matrix(1.00, 0.00, -0.00, -1.00, 23.6, 13.4)">r</text><text xml:space="preserve" font-family="GillSans-Light,Gill Sans" font-size="52.0" fill="#525252" transform="matrix(1.00, 0.00, -0.00, -1.00, 41.0, 13.4)">e</text><text xml:space="preserve" font-family="GillSans-Light,Gill Sans" font-size="52.0" fill="#525252" transform="matrix(1.00, 0.00, -0.00, -1.00, 65.9, 13.4)">g</text><text xml:space="preserve" font-family="GillSans-Light,Gill Sans" font-size="52.0" fill="#525252" transform="matrix(1.00, 0.00, -0.00, -1.00, 88.1, 13.4)">u</text><text xml:space="preserve" font-family="GillSans-Light,Gill Sans" font-size="52.0" fill="#525252" transform="matrix(1.00, 0.00, -0.00, -1.00, 113.6, 13.4)">n</text><text xml:space="preserve" font-family="GillSans-Light,Gill Sans" font-size="52.0" fill="#525252" transform="matrix(1.00, 0.00, -0.00, -1.00, 139.1, 13.4)">t</text><text xml:space="preserve" font-family="GillSans-Light,Gill Sans" font-size="52.0" fill="#525252" transform="matrix(1.00, 0.00, -0.00, -1.00, 154.7, 13.4)">a</text><text xml:space="preserve" font-family="GillSans-Light,Gill Sans" font-size="52.0" fill="#525252" transform="matrix(1.00, 0.00, -0.00, -1.00, 176.9, 13.4)"> </text><text xml:space="preserve" font-family="GillSans-Light,Gill Sans" font-size="52.0" fill="#525252" transform="matrix(1.00, 0.00, -0.00, -1.00, 191.4, 13.4)">s</text><text xml:space="preserve" font-family="GillSans-Light,Gill Sans" font-size="52.0" fill="#525252" transform="matrix(1.00, 0.00, -0.00, -1.00, 209.8, 13.4)">i</text><text xml:space="preserve" font-family="GillSans-Light,Gill Sans" font-size="52.0" fill="#525252" transform="matrix(1.00, 0.00, -0.00, -1.00, 219.5, 13.4)"> </text><text xml:space="preserve" font-family="GillSans-Light,Gill Sans" font-size="52.0" fill="#525252" transform="matrix(1.00, 0.00, -0.00, -1.00, 234.0, 13.4)">u</text><text xml:space="preserve" font-family="GillSans-Light,Gill Sans" font-size="52.0" fill="#525252" transform="matrix(1.00, 0.00, -0.00, -1.00, 259.5, 13.4)">n</text><text xml:space="preserve" font-family="GillSans-Light,Gill Sans" font-size="52.0" fill="#525252" transform="matrix(1.00, 0.00, -0.00, -1.00, 285.0, 13.4)">a</text><text xml:space="preserve" font-family="GillSans-Light,Gill Sans" font-size="52.0" fill="#525252" transform="matrix(1.00, 0.00, -0.00, -1.00, 307.2, 13.4)"> </text><text xml:space="preserve" font-family="GillSans-Light,Gill Sans" font-size="52.0" fill="#525252" transform="matrix(1.00, 0.00, -0.00, -1.00, 321.6, 13.4)">e</text><text xml:space="preserve" font-family="GillSans-Light,Gill Sans" font-size="52.0" fill="#525252" transform="matrix(1.00, 0.00, -0.00, -1.00, 346.5, 13.4)">x</text><text xml:space="preserve" font-family="GillSans-Light,Gill Sans" font-size="52.0" fill="#525252" transform="matrix(1.00, 0.00, -0.00, -1.00, 371.4, 13.4)">p</text><text xml:space="preserve" font-family="GillSans-Light,Gill Sans" font-size="52.0" fill="#525252" transform="matrix(1.00, 0.00, -0.00, -1.00, 397.9, 13.4)">r</text><text xml:space="preserve" font-family="GillSans-Light,Gill Sans" font-size="52.0" fill="#525252" transform="matrix(1.00, 0.00, -0.00, -1.00, 415.2, 13.4)">e</text><text xml:space="preserve" font-family="GillSans-Light,Gill Sans" font-size="52.0" fill="#525252" transform="matrix(1.00, 0.00, -0.00, -1.00, 440.1, 13.4)">s</text><text xml:space="preserve" font-family="GillSans-Light,Gill Sans" font-size="52.0" fill="#525252" transform="matrix(1.00, 0.00, -0.00, -1.00, 458.5, 13.4)">i</text><text xml:space="preserve" font-family="GillSans-Light,Gill Sans" font-size="52.0" fill="#525252" transform="matrix(1.00, 0.00, -0.00, -1.00, 468.3, 13.4)">รณ</text><text xml:space="preserve" font-family="GillSans-Light,Gill Sans" font-size="52.0" fill="#525252" transform="matrix(1.00, 0.00, -0.00, -1.00, 496.5, 13.4)">n</text><text xml:space="preserve" font-family="GillSans-Light,Gill Sans" font-size="52.0" fill="#525252" transform="matrix(1.00, 0.00, -0.00, -1.00, 522.0, 13.4)"> </text><text xml:space="preserve" font-family="GillSans-Light,Gill Sans" font-size="52.0" fill="#525252" transform="matrix(1.00, 0.00, -0.00, -1.00, 536.4, 13.4)">s</text><text xml:space="preserve" font-family="GillSans-Light,Gill Sans" font-size="52.0" fill="#525252" transform="matrix(1.00, 0.00, -0.00, -1.00, 554.9, 13.4)">e</text><text xml:space="preserve" font-family="GillSans-Light,Gill Sans" font-size="52.0" fill="#525252" transform="matrix(1.00, 0.00, -0.00, -1.00, 579.8, 13.4)"> </text><text xml:space="preserve" font-family="GillSans-Light,Gill Sans" font-size="52.0" fill="#525252" transform="matrix(1.00, 0.00, -0.00, -1.00, 594.2, 13.4)">c</text><text xml:space="preserve" font-family="GillSans-Light,Gill Sans" font-size="52.0" fill="#525252" transform="matrix(1.00, 0.00, -0.00, -1.00, 615.9, 13.4)">u</text><text xml:space="preserve" font-family="GillSans-Light,Gill Sans" font-size="52.0" fill="#525252" transform="matrix(1.00, 0.00, -0.00, -1.00, 641.4, 13.4)">m</text><text xml:space="preserve" font-family="GillSans-Light,Gill Sans" font-size="52.0" fill="#525252" transform="matrix(1.00, 0.00, -0.00, -1.00, 681.5, 13.4)">p</text><text xml:space="preserve" font-family="GillSans-Light,Gill Sans" font-size="52.0" fill="#525252" transform="matrix(1.00, 0.00, -0.00, -1.00, 708.0, 13.4)">l</text><text xml:space="preserve" font-family="GillSans-Light,Gill Sans" font-size="52.0" fill="#525252" transform="matrix(1.00, 0.00, -0.00, -1.00, 717.7, 13.4)">e</text><text xml:space="preserve" font-family="GillSans-Light,Gill Sans" font-size="52.0" fill="#525252" transform="matrix(1.00, 0.00, -0.00, -1.00, 742.7, 13.4)"> </text><text xml:space="preserve" font-family="GillSans-Light,Gill Sans" font-size="52.0" fill="#525252" transform="matrix(1.00, 0.00, -0.00, -1.00, 757.1, 13.4)">y</text></g></svg>