<?xml version="1.0" encoding="UTF-8" standalone="no"?><svg xmlns="http://www.w3.org/2000/svg" xmlns:xlink="http://www.w3.org/1999/xlink" clip-rule="evenodd" stroke-miterlimit="10" viewBox="0 0 1920 1080"><desc>SVG generated by Keynote</desc><defs></defs><g transform="matrix(1.00, 0.00, -0.00, -1.00, 0.0, 1080.0)"><g><clipPath id="clip0x618000aafc60"><path d="M 0.0 1080.0 L 1920.0 1080.0 L 1920.0 0.0 L 0.0 0.0 Z M 0.0 1080.0 "></path></clipPath><g clip-path="url(#clip0x618000aafc60)"><image xlink:href="../../670AF0A5-B06C-45B2-A649-BC83FE98871A/assets/400D38DE9BD779267D8D9BA1A44336F3.jpeg" width="3840.00" height="2160.00" transform="matrix(0.50, 0.00, -0.00, -0.50, 0.0, 1080.0)"></image></g></g><text xml:space="preserve" font-family="GillSans-Light,Gill Sans" font-size="100.0" fill="#525252" transform="matrix(1.00, 0.00, -0.00, -1.00, 243.0, 883.8)">U</text><text xml:space="preserve" font-family="GillSans-Light,Gill Sans" font-size="100.0" fill="#525252" transform="matrix(1.00, 0.00, -0.00, -1.00, 312.9, 883.8)">N</text><text xml:space="preserve" font-family="GillSans-Light,Gill Sans" font-size="100.0" fill="#525252" transform="matrix(1.00, 0.00, -0.00, -1.00, 390.0, 883.8)"> </text><text xml:space="preserve" font-family="GillSans-Light,Gill Sans" font-size="100.0" fill="#525252" transform="matrix(1.00, 0.00, -0.00, -1.00, 417.7, 883.8)">E</text><text xml:space="preserve" font-family="GillSans-Light,Gill Sans" font-size="100.0" fill="#525252" transform="matrix(1.00, 0.00, -0.00, -1.00, 466.8, 883.8)">J</text><text xml:space="preserve" font-family="GillSans-Light,Gill Sans" font-size="100.0" fill="#525252" transform="matrix(1.00, 0.00, -0.00, -1.00, 487.6, 883.8)">E</text><text xml:space="preserve" font-family="GillSans-Light,Gill Sans" font-size="100.0" fill="#525252" transform="matrix(1.00, 0.00, -0.00, -1.00, 536.6, 883.8)">M</text><text xml:space="preserve" font-family="GillSans-Light,Gill Sans" font-size="100.0" fill="#525252" transform="matrix(1.00, 0.00, -0.00, -1.00, 614.7, 883.8)">P</text><text xml:space="preserve" font-family="GillSans-Light,Gill Sans" font-size="100.0" fill="#525252" transform="matrix(1.00, 0.00, -0.00, -1.00, 665.6, 883.8)">L</text><text xml:space="preserve" font-family="GillSans-Light,Gill Sans" font-size="100.0" fill="#525252" transform="matrix(1.00, 0.00, -0.00, -1.00, 712.6, 883.8)">O</text><text xml:space="preserve" font-family="GillSans-Light,Gill Sans" font-size="100.0" fill="#525252" transform="matrix(1.00, 0.00, -0.00, -1.00, 794.9, 883.8)">:</text><text xml:space="preserve" font-family="GillSans-Light,Gill Sans" font-size="100.0" fill="#525252" transform="matrix(1.00, 0.00, -0.00, -1.00, 804.6, 883.8)"> </text><text xml:space="preserve" font-family="GillSans-Light,Gill Sans" font-size="100.0" fill="#525252" transform="matrix(1.00, 0.00, -0.00, -1.00, 832.3, 883.8)">L</text><text xml:space="preserve" font-family="GillSans-Light,Gill Sans" font-size="100.0" fill="#525252" transform="matrix(1.00, 0.00, -0.00, -1.00, 879.3, 883.8)">E</text><text xml:space="preserve" font-family="GillSans-Light,Gill Sans" font-size="100.0" fill="#525252" transform="matrix(1.00, 0.00, -0.00, -1.00, 928.3, 883.8)">D</text><text xml:space="preserve" font-family="GillSans-Light,Gill Sans" font-size="100.0" fill="#525252" transform="matrix(1.00, 0.00, -0.00, -1.00, 1002.4, 883.8)"> </text><text xml:space="preserve" font-family="GillSans-Light,Gill Sans" font-size="100.0" fill="#525252" transform="matrix(1.00, 0.00, -0.00, -1.00, 1030.1, 883.8)">P</text><text xml:space="preserve" font-family="GillSans-Light,Gill Sans" font-size="100.0" fill="#525252" transform="matrix(1.00, 0.00, -0.00, -1.00, 1072.1, 883.8)">A</text><text xml:space="preserve" font-family="GillSans-Light,Gill Sans" font-size="100.0" fill="#525252" transform="matrix(1.00, 0.00, -0.00, -1.00, 1138.8, 883.8)">R</text><text xml:space="preserve" font-family="GillSans-Light,Gill Sans" font-size="100.0" fill="#525252" transform="matrix(1.00, 0.00, -0.00, -1.00, 1196.1, 883.8)">P</text><text xml:space="preserve" font-family="GillSans-Light,Gill Sans" font-size="100.0" fill="#525252" transform="matrix(1.00, 0.00, -0.00, -1.00, 1238.1, 883.8)">A</text><text xml:space="preserve" font-family="GillSans-Light,Gill Sans" font-size="100.0" fill="#525252" transform="matrix(1.00, 0.00, -0.00, -1.00, 1304.8, 883.8)">D</text><text xml:space="preserve" font-family="GillSans-Light,Gill Sans" font-size="100.0" fill="#525252" transform="matrix(1.00, 0.00, -0.00, -1.00, 1378.8, 883.8)">E</text><text xml:space="preserve" font-family="GillSans-Light,Gill Sans" font-size="100.0" fill="#525252" transform="matrix(1.00, 0.00, -0.00, -1.00, 1427.9, 883.8)">A</text><text xml:space="preserve" font-family="GillSans-Light,Gill Sans" font-size="100.0" fill="#525252" transform="matrix(1.00, 0.00, -0.00, -1.00, 1494.6, 883.8)">N</text><text xml:space="preserve" font-family="GillSans-Light,Gill Sans" font-size="100.0" fill="#525252" transform="matrix(1.00, 0.00, -0.00, -1.00, 1571.7, 883.8)">T</text><text xml:space="preserve" font-family="GillSans-Light,Gill Sans" font-size="100.0" fill="#525252" transform="matrix(1.00, 0.00, -0.00, -1.00, 1629.0, 883.8)">E</text><image xlink:href="../../D7DFB8D9-3FE2-4254-95F0-754D7CD6ABAC/assets/3D0C2EDCF05622D766C130408DAB7D86.png" width="612.00" height="712.00" transform="matrix(2.25, 0.00, -0.00, -2.25, 802.0, 860.0)"></image><image xlink:href="../../D7DFB8D9-3FE2-4254-95F0-754D7CD6ABAC/assets/5F79E1B18513E5114689177109B0233A.png" width="648.00" height="698.00" transform="matrix(1.00, 0.00, -0.00, -1.00, 168.2, 813.8)" opacity="0.50"></image><g><clipPath id="clip0x6100008a2dc0"><path d="M 179.0 808.0 L 805.0 808.0 L 805.0 132.0 L 179.0 132.0 Z M 179.2 808.3 "></path></clipPath><g clip-path="url(#clip0x6100008a2dc0)"><g><clipPath id="clip0x6100008a2ac0"><path d="M 455.7 808.2 C 449.7 808.8 444.5 806.6 439.8 801.6 C 436.2 797.8 435.9 795.9 435.1 775.5 C 434.0 749.0 434.3 746.8 439.9 743.9 L 444.0 741.6 L 444.0 739.0 L 445.0 739.0 L 445.0 719.4 L 446.0 656.4 C 446.7 609.5 446.2 570.4 445.7 569.5 C 445.7 569.5 446.0 569.5 446.0 569.5 L 446.0 569.0 L 444.0 569.0 L 431.9 569.0 C 416.9 568.5 389.1 568.0 344.1 568.0 L 244.0 568.0 L 243.0 530.4 L 243.0 530.3 L 243.0 493.0 L 210.2 493.0 L 179.0 492.0 L 179.0 443.1 L 179.0 394.0 L 210.2 394.0 L 211.0 394.0 L 243.0 393.0 L 243.0 312.0 L 243.0 231.0 L 232.7 230.0 L 223.0 230.0 L 223.0 192.1 L 223.0 154.0 L 232.7 154.0 L 243.0 154.0 L 243.0 142.7 L 244.0 132.0 L 514.1 132.0 L 784.0 132.0 L 784.0 137.0 L 784.0 138.7 C 784.0 145.0 785.2 146.4 794.9 156.0 L 802.8 163.9 L 805.0 166.4 L 805.0 305.0 L 805.0 442.7 L 794.9 452.3 L 784.0 461.9 L 784.0 509.7 L 784.0 557.5 L 779.1 562.6 L 773.8 568.0 L 627.9 568.0 C 544.1 568.0 510.5 568.4 494.5 569.0 L 493.5 569.0 L 479.4 569.0 L 478.0 569.0 L 477.0 574.2 C 475.7 592.0 476.0 609.4 477.1 613.2 C 477.2 613.7 477.3 614.1 477.3 614.5 C 477.3 615.7 477.2 617.1 477.1 618.0 C 476.6 619.1 475.8 620.1 474.4 621.4 L 472.6 623.0 L 471.0 623.0 L 471.0 624.0 L 470.0 625.0 L 470.0 674.4 L 471.0 716.1 L 471.0 723.7 L 465.7 729.1 C 465.1 729.8 464.9 730.3 464.4 730.9 C 462.0 733.5 460.8 735.7 461.2 737.5 C 461.3 737.9 461.5 738.3 461.7 738.7 C 462.6 740.2 464.6 741.6 467.9 743.1 C 471.8 745.0 475.7 748.3 476.7 750.5 C 477.4 752.0 477.8 753.7 478.1 755.4 C 478.2 757.0 478.2 758.6 478.0 760.5 C 477.9 761.5 477.6 763.7 477.4 765.6 C 477.1 766.7 476.7 767.9 476.2 768.8 C 474.8 771.2 473.8 777.3 473.8 783.8 C 473.7 798.0 471.0 803.1 461.8 806.6 C 459.7 807.5 457.7 808.0 455.7 808.2 Z M 452.7 739.1 C 454.0 739.1 455.5 737.1 456.2 734.7 C 456.8 732.3 459.2 728.7 461.4 726.6 L 465.0 723.0 L 466.0 673.1 L 467.0 623.0 L 463.0 623.0 C 459.6 622.5 459.6 621.8 460.3 604.2 C 460.8 594.3 460.6 582.3 459.8 577.4 C 458.6 569.3 458.1 568.5 454.0 568.0 C 451.2 567.7 449.2 568.4 448.6 570.0 C 448.1 571.4 448.3 610.0 449.1 655.8 C 450.2 726.2 450.8 739.1 452.7 739.1 Z M 452.7 739.1 "></path></clipPath><g clip-path="url(#clip0x6100008a2ac0)"><image xlink:href="../../D7DFB8D9-3FE2-4254-95F0-754D7CD6ABAC/assets/0C115EC420F469FAF431104A6A520DD1.png" width="676.00" height="711.00" transform="matrix(1.00, 0.00, -0.00, -1.00, 157.0, 820.0)"></image></g></g></g></g></g></svg>