<?xml version="1.0" encoding="UTF-8" standalone="no"?><svg xmlns="http://www.w3.org/2000/svg" xmlns:xlink="http://www.w3.org/1999/xlink" clip-rule="evenodd" stroke-miterlimit="10" viewBox="0 0 651 197"><desc>SVG generated by Keynote</desc><defs></defs><g transform="matrix(1.00, 0.00, -0.00, -1.00, 0.0, 197.0)"><text xml:space="preserve" font-family="UbuntuMono-Regular,Ubuntu Mono" font-size="50.0" fill="#D5943B" transform="matrix(1.00, 0.00, -0.00, -1.00, 0.0, 160.5)">v</text><text xml:space="preserve" font-family="UbuntuMono-Regular,Ubuntu Mono" font-size="50.0" fill="#D5943B" transform="matrix(1.00, 0.00, -0.00, -1.00, 25.0, 160.5)">o</text><text xml:space="preserve" font-family="UbuntuMono-Regular,Ubuntu Mono" font-size="50.0" fill="#D5943B" transform="matrix(1.00, 0.00, -0.00, -1.00, 50.0, 160.5)">i</text><text xml:space="preserve" font-family="UbuntuMono-Regular,Ubuntu Mono" font-size="50.0" fill="#D5943B" transform="matrix(1.00, 0.00, -0.00, -1.00, 75.0, 160.5)">d</text><text xml:space="preserve" font-family="UbuntuMono-Regular,Ubuntu Mono" font-size="50.0" fill="#525252" transform="matrix(1.00, 0.00, -0.00, -1.00, 100.0, 160.5)"> </text><text xml:space="preserve" font-family="UbuntuMono-Regular,Ubuntu Mono" font-size="50.0" fill="#D5933A" transform="matrix(1.00, 0.00, -0.00, -1.00, 125.0, 160.5)">l</text><text xml:space="preserve" font-family="UbuntuMono-Regular,Ubuntu Mono" font-size="50.0" fill="#D5933A" transform="matrix(1.00, 0.00, -0.00, -1.00, 150.0, 160.5)">o</text><text xml:space="preserve" font-family="UbuntuMono-Regular,Ubuntu Mono" font-size="50.0" fill="#D5933A" transform="matrix(1.00, 0.00, -0.00, -1.00, 175.0, 160.5)">o</text><text xml:space="preserve" font-family="UbuntuMono-Regular,Ubuntu Mono" font-size="50.0" fill="#D5933A" transform="matrix(1.00, 0.00, -0.00, -1.00, 200.0, 160.5)">p</text><text xml:space="preserve" font-family="UbuntuMono-Regular,Ubuntu Mono" font-size="50.0" fill="#525252" transform="matrix(1.00, 0.00, -0.00, -1.00, 225.0, 160.5)">(</text><text xml:space="preserve" font-family="UbuntuMono-Regular,Ubuntu Mono" font-size="50.0" fill="#525252" transform="matrix(1.00, 0.00, -0.00, -1.00, 250.0, 160.5)">)</text><text xml:space="preserve" font-family="UbuntuMono-Regular,Ubuntu Mono" font-size="50.0" fill="#525252" transform="matrix(1.00, 0.00, -0.00, -1.00, 275.0, 160.5)"> </text><text xml:space="preserve" font-family="UbuntuMono-Regular,Ubuntu Mono" font-size="50.0" fill="#525252" transform="matrix(1.00, 0.00, -0.00, -1.00, 300.0, 160.5)">{</text><text xml:space="preserve" font-family="UbuntuMono-Regular,Ubuntu Mono" font-size="50.0" fill="#525252" transform="matrix(1.00, 0.00, -0.00, -1.00, 325.0, 160.5)"> </text><text xml:space="preserve" font-family="UbuntuMono-Regular,Ubuntu Mono" font-size="50.0" fill="#525252" transform="matrix(1.00, 0.00, -0.00, -1.00, 0.0, 110.5)"> </text><text xml:space="preserve" font-family="UbuntuMono-Regular,Ubuntu Mono" font-size="50.0" fill="#525252" transform="matrix(1.00, 0.00, -0.00, -1.00, 25.0, 110.5)"> </text><text xml:space="preserve" font-family="UbuntuMono-Regular,Ubuntu Mono" font-size="50.0" fill="#525252" transform="matrix(1.00, 0.00, -0.00, -1.00, 50.0, 110.5)"> </text><text xml:space="preserve" font-family="UbuntuMono-Regular,Ubuntu Mono" font-size="50.0" fill="#525252" transform="matrix(1.00, 0.00, -0.00, -1.00, 75.0, 110.5)"> </text><text xml:space="preserve" font-family="UbuntuMono-Regular,Ubuntu Mono" font-size="50.0" fill="#D5943B" transform="matrix(1.00, 0.00, -0.00, -1.00, 100.0, 110.5)">i</text><text xml:space="preserve" font-family="UbuntuMono-Regular,Ubuntu Mono" font-size="50.0" fill="#D5943B" transform="matrix(1.00, 0.00, -0.00, -1.00, 125.0, 110.5)">n</text><text xml:space="preserve" font-family="UbuntuMono-Regular,Ubuntu Mono" font-size="50.0" fill="#D5943B" transform="matrix(1.00, 0.00, -0.00, -1.00, 150.0, 110.5)">t</text><text xml:space="preserve" font-family="UbuntuMono-Regular,Ubuntu Mono" font-size="50.0" fill="#525252" transform="matrix(1.00, 0.00, -0.00, -1.00, 175.0, 110.5)"> </text><text xml:space="preserve" font-family="UbuntuMono-Regular,Ubuntu Mono" font-size="50.0" fill="#525252" transform="matrix(1.00, 0.00, -0.00, -1.00, 200.0, 110.5)">i</text><text xml:space="preserve" font-family="UbuntuMono-Regular,Ubuntu Mono" font-size="50.0" fill="#525252" transform="matrix(1.00, 0.00, -0.00, -1.00, 225.0, 110.5)"> </text><text xml:space="preserve" font-family="UbuntuMono-Regular,Ubuntu Mono" font-size="50.0" fill="#525252" transform="matrix(1.00, 0.00, -0.00, -1.00, 250.0, 110.5)">=</text><text xml:space="preserve" font-family="UbuntuMono-Regular,Ubuntu Mono" font-size="50.0" fill="#525252" transform="matrix(1.00, 0.00, -0.00, -1.00, 275.0, 110.5)"> </text><text xml:space="preserve" font-family="UbuntuMono-Regular,Ubuntu Mono" font-size="50.0" fill="#D5943B" transform="matrix(1.00, 0.00, -0.00, -1.00, 300.0, 110.5)">a</text><text xml:space="preserve" font-family="UbuntuMono-Regular,Ubuntu Mono" font-size="50.0" fill="#D5943B" transform="matrix(1.00, 0.00, -0.00, -1.00, 325.0, 110.5)">n</text><text xml:space="preserve" font-family="UbuntuMono-Regular,Ubuntu Mono" font-size="50.0" fill="#D5943B" transform="matrix(1.00, 0.00, -0.00, -1.00, 350.0, 110.5)">a</text><text xml:space="preserve" font-family="UbuntuMono-Regular,Ubuntu Mono" font-size="50.0" fill="#D5943B" transform="matrix(1.00, 0.00, -0.00, -1.00, 375.0, 110.5)">l</text><text xml:space="preserve" font-family="UbuntuMono-Regular,Ubuntu Mono" font-size="50.0" fill="#D5943B" transform="matrix(1.00, 0.00, -0.00, -1.00, 400.0, 110.5)">o</text><text xml:space="preserve" font-family="UbuntuMono-Regular,Ubuntu Mono" font-size="50.0" fill="#D5943B" transform="matrix(1.00, 0.00, -0.00, -1.00, 425.0, 110.5)">g</text><text xml:space="preserve" font-family="UbuntuMono-Regular,Ubuntu Mono" font-size="50.0" fill="#D5943B" transform="matrix(1.00, 0.00, -0.00, -1.00, 450.0, 110.5)">R</text><text xml:space="preserve" font-family="UbuntuMono-Regular,Ubuntu Mono" font-size="50.0" fill="#D5943B" transform="matrix(1.00, 0.00, -0.00, -1.00, 475.0, 110.5)">e</text><text xml:space="preserve" font-family="UbuntuMono-Regular,Ubuntu Mono" font-size="50.0" fill="#D5943B" transform="matrix(1.00, 0.00, -0.00, -1.00, 500.0, 110.5)">a</text><text xml:space="preserve" font-family="UbuntuMono-Regular,Ubuntu Mono" font-size="50.0" fill="#D5943B" transform="matrix(1.00, 0.00, -0.00, -1.00, 525.0, 110.5)">d</text><text xml:space="preserve" font-family="UbuntuMono-Regular,Ubuntu Mono" font-size="50.0" fill="#525252" transform="matrix(1.00, 0.00, -0.00, -1.00, 550.0, 110.5)">(</text><text xml:space="preserve" font-family="UbuntuMono-Regular,Ubuntu Mono" font-size="50.0" fill="#525252" transform="matrix(1.00, 0.00, -0.00, -1.00, 575.0, 110.5)">3</text><text xml:space="preserve" font-family="UbuntuMono-Regular,Ubuntu Mono" font-size="50.0" fill="#525252" transform="matrix(1.00, 0.00, -0.00, -1.00, 600.0, 110.5)">)</text><text xml:space="preserve" font-family="UbuntuMono-Regular,Ubuntu Mono" font-size="50.0" fill="#525252" transform="matrix(1.00, 0.00, -0.00, -1.00, 625.0, 110.5)">;</text><text xml:space="preserve" font-family="UbuntuMono-Regular,Ubuntu Mono" font-size="50.0" fill="#525252" transform="matrix(1.00, 0.00, -0.00, -1.00, 650.0, 110.5)"> </text><text xml:space="preserve" font-family="UbuntuMono-Regular,Ubuntu Mono" font-size="50.0" fill="#525252" transform="matrix(1.00, 0.00, -0.00, -1.00, 0.0, 60.5)"> </text><text xml:space="preserve" font-family="UbuntuMono-Regular,Ubuntu Mono" font-size="50.0" fill="#525252" transform="matrix(1.00, 0.00, -0.00, -1.00, 25.0, 60.5)"> </text><text xml:space="preserve" font-family="UbuntuMono-Regular,Ubuntu Mono" font-size="50.0" fill="#525252" transform="matrix(1.00, 0.00, -0.00, -1.00, 50.0, 60.5)"> </text><text xml:space="preserve" font-family="UbuntuMono-Regular,Ubuntu Mono" font-size="50.0" fill="#525252" transform="matrix(1.00, 0.00, -0.00, -1.00, 75.0, 60.5)"> </text><text xml:space="preserve" font-family="UbuntuMono-Regular,Ubuntu Mono" font-size="50.0" fill="#D5943B" transform="matrix(1.00, 0.00, -0.00, -1.00, 100.0, 60.5)">a</text><text xml:space="preserve" font-family="UbuntuMono-Regular,Ubuntu Mono" font-size="50.0" fill="#D5943B" transform="matrix(1.00, 0.00, -0.00, -1.00, 125.0, 60.5)">n</text><text xml:space="preserve" font-family="UbuntuMono-Regular,Ubuntu Mono" font-size="50.0" fill="#D5943B" transform="matrix(1.00, 0.00, -0.00, -1.00, 150.0, 60.5)">a</text><text xml:space="preserve" font-family="UbuntuMono-Regular,Ubuntu Mono" font-size="50.0" fill="#D5943B" transform="matrix(1.00, 0.00, -0.00, -1.00, 175.0, 60.5)">l</text><text xml:space="preserve" font-family="UbuntuMono-Regular,Ubuntu Mono" font-size="50.0" fill="#D5943B" transform="matrix(1.00, 0.00, -0.00, -1.00, 200.0, 60.5)">o</text><text xml:space="preserve" font-family="UbuntuMono-Regular,Ubuntu Mono" font-size="50.0" fill="#D5943B" transform="matrix(1.00, 0.00, -0.00, -1.00, 225.0, 60.5)">g</text><text xml:space="preserve" font-family="UbuntuMono-Regular,Ubuntu Mono" font-size="50.0" fill="#D5943B" transform="matrix(1.00, 0.00, -0.00, -1.00, 250.0, 60.5)">W</text><text xml:space="preserve" font-family="UbuntuMono-Regular,Ubuntu Mono" font-size="50.0" fill="#D5943B" transform="matrix(1.00, 0.00, -0.00, -1.00, 275.0, 60.5)">r</text><text xml:space="preserve" font-family="UbuntuMono-Regular,Ubuntu Mono" font-size="50.0" fill="#D5943B" transform="matrix(1.00, 0.00, -0.00, -1.00, 300.0, 60.5)">i</text><text xml:space="preserve" font-family="UbuntuMono-Regular,Ubuntu Mono" font-size="50.0" fill="#D5943B" transform="matrix(1.00, 0.00, -0.00, -1.00, 325.0, 60.5)">t</text><text xml:space="preserve" font-family="UbuntuMono-Regular,Ubuntu Mono" font-size="50.0" fill="#D5943B" transform="matrix(1.00, 0.00, -0.00, -1.00, 350.0, 60.5)">e</text><text xml:space="preserve" font-family="UbuntuMono-Regular,Ubuntu Mono" font-size="50.0" fill="#525252" transform="matrix(1.00, 0.00, -0.00, -1.00, 375.0, 60.5)">(</text><text xml:space="preserve" font-family="UbuntuMono-Regular,Ubuntu Mono" font-size="50.0" fill="#525252" transform="matrix(1.00, 0.00, -0.00, -1.00, 400.0, 60.5)">9</text><text xml:space="preserve" font-family="UbuntuMono-Regular,Ubuntu Mono" font-size="50.0" fill="#525252" transform="matrix(1.00, 0.00, -0.00, -1.00, 425.0, 60.5)">,</text><text xml:space="preserve" font-family="UbuntuMono-Regular,Ubuntu Mono" font-size="50.0" fill="#525252" transform="matrix(1.00, 0.00, -0.00, -1.00, 450.0, 60.5)"> </text><text xml:space="preserve" font-family="UbuntuMono-Regular,Ubuntu Mono" font-size="50.0" fill="#525252" transform="matrix(1.00, 0.00, -0.00, -1.00, 475.0, 60.5)">i</text><text xml:space="preserve" font-family="UbuntuMono-Regular,Ubuntu Mono" font-size="50.0" fill="#525252" transform="matrix(1.00, 0.00, -0.00, -1.00, 500.0, 60.5)"> </text><text xml:space="preserve" font-family="UbuntuMono-Regular,Ubuntu Mono" font-size="50.0" fill="#525252" transform="matrix(1.00, 0.00, -0.00, -1.00, 525.0, 60.5)">/</text><text xml:space="preserve" font-family="UbuntuMono-Regular,Ubuntu Mono" font-size="50.0" fill="#525252" transform="matrix(1.00, 0.00, -0.00, -1.00, 550.0, 60.5)"> </text><text xml:space="preserve" font-family="UbuntuMono-Regular,Ubuntu Mono" font-size="50.0" fill="#525252" transform="matrix(1.00, 0.00, -0.00, -1.00, 575.0, 60.5)">4</text><text xml:space="preserve" font-family="UbuntuMono-Regular,Ubuntu Mono" font-size="50.0" fill="#525252" transform="matrix(1.00, 0.00, -0.00, -1.00, 600.0, 60.5)">)</text><text xml:space="preserve" font-family="UbuntuMono-Regular,Ubuntu Mono" font-size="50.0" fill="#525252" transform="matrix(1.00, 0.00, -0.00, -1.00, 625.0, 60.5)">;</text><text xml:space="preserve" font-family="UbuntuMono-Regular,Ubuntu Mono" font-size="50.0" fill="#525252" transform="matrix(1.00, 0.00, -0.00, -1.00, 650.0, 60.5)"> </text><text xml:space="preserve" font-family="UbuntuMono-Regular,Ubuntu Mono" font-size="50.0" fill="#525252" transform="matrix(1.00, 0.00, -0.00, -1.00, 0.0, 10.5)">}</text></g></svg>