<?xml version="1.0" encoding="UTF-8" standalone="no"?><svg xmlns="http://www.w3.org/2000/svg" xmlns:xlink="http://www.w3.org/1999/xlink" clip-rule="evenodd" stroke-miterlimit="10" viewBox="0 0 760 209"><desc>SVG generated by Keynote</desc><defs></defs><g transform="matrix(1.00, 0.00, -0.00, -1.00, 0.0, 209.0)"><text xml:space="preserve" font-family="GillSans-Light,Gill Sans" font-size="100.0" fill="#525252" transform="matrix(1.00, 0.00, -0.00, -1.00, 21.3, 138.8)">A</text><text xml:space="preserve" font-family="GillSans-Light,Gill Sans" font-size="100.0" fill="#525252" transform="matrix(1.00, 0.00, -0.00, -1.00, 88.0, 138.8)">N</text><text xml:space="preserve" font-family="GillSans-Light,Gill Sans" font-size="100.0" fill="#525252" transform="matrix(1.00, 0.00, -0.00, -1.00, 165.1, 138.8)">A</text><text xml:space="preserve" font-family="GillSans-Light,Gill Sans" font-size="100.0" fill="#525252" transform="matrix(1.00, 0.00, -0.00, -1.00, 231.8, 138.8)">L</text><text xml:space="preserve" font-family="GillSans-Light,Gill Sans" font-size="100.0" fill="#525252" transform="matrix(1.00, 0.00, -0.00, -1.00, 278.8, 138.8)">O</text><text xml:space="preserve" font-family="GillSans-Light,Gill Sans" font-size="100.0" fill="#525252" transform="matrix(1.00, 0.00, -0.00, -1.00, 361.1, 138.8)">G</text><text xml:space="preserve" font-family="GillSans-Light,Gill Sans" font-size="100.0" fill="#525252" transform="matrix(1.00, 0.00, -0.00, -1.00, 433.1, 138.8)">R</text><text xml:space="preserve" font-family="GillSans-Light,Gill Sans" font-size="100.0" fill="#525252" transform="matrix(1.00, 0.00, -0.00, -1.00, 490.4, 138.8)">E</text><text xml:space="preserve" font-family="GillSans-Light,Gill Sans" font-size="100.0" fill="#525252" transform="matrix(1.00, 0.00, -0.00, -1.00, 539.4, 138.8)">A</text><text xml:space="preserve" font-family="GillSans-Light,Gill Sans" font-size="100.0" fill="#525252" transform="matrix(1.00, 0.00, -0.00, -1.00, 606.1, 138.8)">D</text><text xml:space="preserve" font-family="GillSans-Light,Gill Sans" font-size="100.0" fill="#525252" transform="matrix(1.00, 0.00, -0.00, -1.00, 680.2, 138.8)">(</text><text xml:space="preserve" font-family="GillSans-Light,Gill Sans" font-size="100.0" fill="#525252" transform="matrix(1.00, 0.00, -0.00, -1.00, 713.5, 138.8)">)</text><text xml:space="preserve" font-family="GillSans-Light,Gill Sans" font-size="100.0" fill="#525252" transform="matrix(1.00, 0.00, -0.00, -1.00, 1.1, 24.8)">A</text><text xml:space="preserve" font-family="GillSans-Light,Gill Sans" font-size="100.0" fill="#525252" transform="matrix(1.00, 0.00, -0.00, -1.00, 67.8, 24.8)">N</text><text xml:space="preserve" font-family="GillSans-Light,Gill Sans" font-size="100.0" fill="#525252" transform="matrix(1.00, 0.00, -0.00, -1.00, 144.9, 24.8)">A</text><text xml:space="preserve" font-family="GillSans-Light,Gill Sans" font-size="100.0" fill="#525252" transform="matrix(1.00, 0.00, -0.00, -1.00, 211.6, 24.8)">L</text><text xml:space="preserve" font-family="GillSans-Light,Gill Sans" font-size="100.0" fill="#525252" transform="matrix(1.00, 0.00, -0.00, -1.00, 258.5, 24.8)">O</text><text xml:space="preserve" font-family="GillSans-Light,Gill Sans" font-size="100.0" fill="#525252" transform="matrix(1.00, 0.00, -0.00, -1.00, 340.9, 24.8)">G</text><text xml:space="preserve" font-family="GillSans-Light,Gill Sans" font-size="100.0" fill="#525252" transform="matrix(1.00, 0.00, -0.00, -1.00, 412.8, 24.8)">W</text><text xml:space="preserve" font-family="GillSans-Light,Gill Sans" font-size="100.0" fill="#525252" transform="matrix(1.00, 0.00, -0.00, -1.00, 515.9, 24.8)">R</text><text xml:space="preserve" font-family="GillSans-Light,Gill Sans" font-size="100.0" fill="#525252" transform="matrix(1.00, 0.00, -0.00, -1.00, 573.2, 24.8)">I</text><text xml:space="preserve" font-family="GillSans-Light,Gill Sans" font-size="100.0" fill="#525252" transform="matrix(1.00, 0.00, -0.00, -1.00, 594.0, 24.8)">T</text><text xml:space="preserve" font-family="GillSans-Light,Gill Sans" font-size="100.0" fill="#525252" transform="matrix(1.00, 0.00, -0.00, -1.00, 651.4, 24.8)">E</text><text xml:space="preserve" font-family="GillSans-Light,Gill Sans" font-size="100.0" fill="#525252" transform="matrix(1.00, 0.00, -0.00, -1.00, 700.4, 24.8)">(</text><text xml:space="preserve" font-family="GillSans-Light,Gill Sans" font-size="100.0" fill="#525252" transform="matrix(1.00, 0.00, -0.00, -1.00, 733.7, 24.8)">)</text></g></svg>