<?xml version="1.0" encoding="UTF-8" standalone="no"?><svg xmlns="http://www.w3.org/2000/svg" xmlns:xlink="http://www.w3.org/1999/xlink" clip-rule="evenodd" stroke-miterlimit="10" viewBox="0 0 1920 1080"><desc>SVG generated by Keynote</desc><defs></defs><g transform="matrix(1.00, 0.00, -0.00, -1.00, 0.0, 1080.0)"><g><clipPath id="clip0x618000aaa080"><path d="M 0.0 1080.0 L 1920.0 1080.0 L 1920.0 0.0 L 0.0 0.0 Z M 0.0 1080.0 "></path></clipPath><g clip-path="url(#clip0x618000aaa080)"><image xlink:href="../../670AF0A5-B06C-45B2-A649-BC83FE98871A/assets/400D38DE9BD779267D8D9BA1A44336F3.jpeg" width="3840.00" height="2160.00" transform="matrix(0.50, 0.00, -0.00, -0.50, 0.0, 1080.0)"></image></g></g><text xml:space="preserve" font-family="GillSans-Light,Gill Sans" font-size="100.0" fill="#525252" transform="matrix(1.00, 0.00, -0.00, -1.00, 125.3, 678.8)">A</text><text xml:space="preserve" font-family="GillSans-Light,Gill Sans" font-size="100.0" fill="#525252" transform="matrix(1.00, 0.00, -0.00, -1.00, 192.0, 678.8)">N</text><text xml:space="preserve" font-family="GillSans-Light,Gill Sans" font-size="100.0" fill="#525252" transform="matrix(1.00, 0.00, -0.00, -1.00, 269.1, 678.8)">A</text><text xml:space="preserve" font-family="GillSans-Light,Gill Sans" font-size="100.0" fill="#525252" transform="matrix(1.00, 0.00, -0.00, -1.00, 335.8, 678.8)">L</text><text xml:space="preserve" font-family="GillSans-Light,Gill Sans" font-size="100.0" fill="#525252" transform="matrix(1.00, 0.00, -0.00, -1.00, 382.8, 678.8)">O</text><text xml:space="preserve" font-family="GillSans-Light,Gill Sans" font-size="100.0" fill="#525252" transform="matrix(1.00, 0.00, -0.00, -1.00, 465.1, 678.8)">G</text><text xml:space="preserve" font-family="GillSans-Light,Gill Sans" font-size="100.0" fill="#525252" transform="matrix(1.00, 0.00, -0.00, -1.00, 537.1, 678.8)">R</text><text xml:space="preserve" font-family="GillSans-Light,Gill Sans" font-size="100.0" fill="#525252" transform="matrix(1.00, 0.00, -0.00, -1.00, 594.4, 678.8)">E</text><text xml:space="preserve" font-family="GillSans-Light,Gill Sans" font-size="100.0" fill="#525252" transform="matrix(1.00, 0.00, -0.00, -1.00, 643.4, 678.8)">A</text><text xml:space="preserve" font-family="GillSans-Light,Gill Sans" font-size="100.0" fill="#525252" transform="matrix(1.00, 0.00, -0.00, -1.00, 710.1, 678.8)">D</text><text xml:space="preserve" font-family="GillSans-Light,Gill Sans" font-size="100.0" fill="#525252" transform="matrix(1.00, 0.00, -0.00, -1.00, 784.2, 678.8)">(</text><text xml:space="preserve" font-family="GillSans-Light,Gill Sans" font-size="100.0" fill="#525252" transform="matrix(1.00, 0.00, -0.00, -1.00, 817.5, 678.8)">)</text><text xml:space="preserve" font-family="GillSans-Light,Gill Sans" font-size="100.0" fill="#525252" transform="matrix(1.00, 0.00, -0.00, -1.00, 105.1, 564.8)">A</text><text xml:space="preserve" font-family="GillSans-Light,Gill Sans" font-size="100.0" fill="#525252" transform="matrix(1.00, 0.00, -0.00, -1.00, 171.8, 564.8)">N</text><text xml:space="preserve" font-family="GillSans-Light,Gill Sans" font-size="100.0" fill="#525252" transform="matrix(1.00, 0.00, -0.00, -1.00, 248.9, 564.8)">A</text><text xml:space="preserve" font-family="GillSans-Light,Gill Sans" font-size="100.0" fill="#525252" transform="matrix(1.00, 0.00, -0.00, -1.00, 315.6, 564.8)">L</text><text xml:space="preserve" font-family="GillSans-Light,Gill Sans" font-size="100.0" fill="#525252" transform="matrix(1.00, 0.00, -0.00, -1.00, 362.5, 564.8)">O</text><text xml:space="preserve" font-family="GillSans-Light,Gill Sans" font-size="100.0" fill="#525252" transform="matrix(1.00, 0.00, -0.00, -1.00, 444.9, 564.8)">G</text><text xml:space="preserve" font-family="GillSans-Light,Gill Sans" font-size="100.0" fill="#525252" transform="matrix(1.00, 0.00, -0.00, -1.00, 516.8, 564.8)">W</text><text xml:space="preserve" font-family="GillSans-Light,Gill Sans" font-size="100.0" fill="#525252" transform="matrix(1.00, 0.00, -0.00, -1.00, 619.9, 564.8)">R</text><text xml:space="preserve" font-family="GillSans-Light,Gill Sans" font-size="100.0" fill="#525252" transform="matrix(1.00, 0.00, -0.00, -1.00, 677.2, 564.8)">I</text><text xml:space="preserve" font-family="GillSans-Light,Gill Sans" font-size="100.0" fill="#525252" transform="matrix(1.00, 0.00, -0.00, -1.00, 698.0, 564.8)">T</text><text xml:space="preserve" font-family="GillSans-Light,Gill Sans" font-size="100.0" fill="#525252" transform="matrix(1.00, 0.00, -0.00, -1.00, 755.4, 564.8)">E</text><text xml:space="preserve" font-family="GillSans-Light,Gill Sans" font-size="100.0" fill="#525252" transform="matrix(1.00, 0.00, -0.00, -1.00, 804.4, 564.8)">(</text><text xml:space="preserve" font-family="GillSans-Light,Gill Sans" font-size="100.0" fill="#525252" transform="matrix(1.00, 0.00, -0.00, -1.00, 837.7, 564.8)">)</text><text xml:space="preserve" font-family="GillSans-Light,Gill Sans" font-size="52.0" fill="#525252" transform="matrix(1.00, 0.00, -0.00, -1.00, 142.9, 488.4)">F</text><text xml:space="preserve" font-family="GillSans-Light,Gill Sans" font-size="52.0" fill="#525252" transform="matrix(1.00, 0.00, -0.00, -1.00, 165.7, 488.4)">u</text><text xml:space="preserve" font-family="GillSans-Light,Gill Sans" font-size="52.0" fill="#525252" transform="matrix(1.00, 0.00, -0.00, -1.00, 191.2, 488.4)">n</text><text xml:space="preserve" font-family="GillSans-Light,Gill Sans" font-size="52.0" fill="#525252" transform="matrix(1.00, 0.00, -0.00, -1.00, 216.7, 488.4)">c</text><text xml:space="preserve" font-family="GillSans-Light,Gill Sans" font-size="52.0" fill="#525252" transform="matrix(1.00, 0.00, -0.00, -1.00, 238.4, 488.4)">i</text><text xml:space="preserve" font-family="GillSans-Light,Gill Sans" font-size="52.0" fill="#525252" transform="matrix(1.00, 0.00, -0.00, -1.00, 248.1, 488.4)">รณ</text><text xml:space="preserve" font-family="GillSans-Light,Gill Sans" font-size="52.0" fill="#525252" transform="matrix(1.00, 0.00, -0.00, -1.00, 276.3, 488.4)">n</text><text xml:space="preserve" font-family="GillSans-Light,Gill Sans" font-size="52.0" fill="#525252" transform="matrix(1.00, 0.00, -0.00, -1.00, 301.8, 488.4)"> </text><text xml:space="preserve" font-family="GillSans-Light,Gill Sans" font-size="52.0" fill="#525252" transform="matrix(1.00, 0.00, -0.00, -1.00, 316.3, 488.4)">q</text><text xml:space="preserve" font-family="GillSans-Light,Gill Sans" font-size="52.0" fill="#525252" transform="matrix(1.00, 0.00, -0.00, -1.00, 342.8, 488.4)">u</text><text xml:space="preserve" font-family="GillSans-Light,Gill Sans" font-size="52.0" fill="#525252" transform="matrix(1.00, 0.00, -0.00, -1.00, 368.3, 488.4)">e</text><text xml:space="preserve" font-family="GillSans-Light,Gill Sans" font-size="52.0" fill="#525252" transform="matrix(1.00, 0.00, -0.00, -1.00, 393.2, 488.4)"> </text><text xml:space="preserve" font-family="GillSans-Light,Gill Sans" font-size="52.0" fill="#525252" transform="matrix(1.00, 0.00, -0.00, -1.00, 407.6, 488.4)">l</text><text xml:space="preserve" font-family="GillSans-Light,Gill Sans" font-size="52.0" fill="#525252" transform="matrix(1.00, 0.00, -0.00, -1.00, 417.4, 488.4)">e</text><text xml:space="preserve" font-family="GillSans-Light,Gill Sans" font-size="52.0" fill="#525252" transform="matrix(1.00, 0.00, -0.00, -1.00, 442.3, 488.4)">e</text><text xml:space="preserve" font-family="GillSans-Light,Gill Sans" font-size="52.0" fill="#525252" transform="matrix(1.00, 0.00, -0.00, -1.00, 467.2, 488.4)">/</text><text xml:space="preserve" font-family="GillSans-Light,Gill Sans" font-size="52.0" fill="#525252" transform="matrix(1.00, 0.00, -0.00, -1.00, 481.8, 488.4)">e</text><text xml:space="preserve" font-family="GillSans-Light,Gill Sans" font-size="52.0" fill="#525252" transform="matrix(1.00, 0.00, -0.00, -1.00, 506.7, 488.4)">s</text><text xml:space="preserve" font-family="GillSans-Light,Gill Sans" font-size="52.0" fill="#525252" transform="matrix(1.00, 0.00, -0.00, -1.00, 525.1, 488.4)">c</text><text xml:space="preserve" font-family="GillSans-Light,Gill Sans" font-size="52.0" fill="#525252" transform="matrix(1.00, 0.00, -0.00, -1.00, 546.8, 488.4)">r</text><text xml:space="preserve" font-family="GillSans-Light,Gill Sans" font-size="52.0" fill="#525252" transform="matrix(1.00, 0.00, -0.00, -1.00, 565.4, 488.4)">i</text><text xml:space="preserve" font-family="GillSans-Light,Gill Sans" font-size="52.0" fill="#525252" transform="matrix(1.00, 0.00, -0.00, -1.00, 575.2, 488.4)">b</text><text xml:space="preserve" font-family="GillSans-Light,Gill Sans" font-size="52.0" fill="#525252" transform="matrix(1.00, 0.00, -0.00, -1.00, 601.7, 488.4)">e</text><text xml:space="preserve" font-family="GillSans-Light,Gill Sans" font-size="52.0" fill="#525252" transform="matrix(1.00, 0.00, -0.00, -1.00, 626.6, 488.4)"> </text><text xml:space="preserve" font-family="GillSans-Light,Gill Sans" font-size="52.0" fill="#525252" transform="matrix(1.00, 0.00, -0.00, -1.00, 641.0, 488.4)">e</text><text xml:space="preserve" font-family="GillSans-Light,Gill Sans" font-size="52.0" fill="#525252" transform="matrix(1.00, 0.00, -0.00, -1.00, 665.9, 488.4)">n</text><text xml:space="preserve" font-family="GillSans-Light,Gill Sans" font-size="52.0" fill="#525252" transform="matrix(1.00, 0.00, -0.00, -1.00, 691.4, 488.4)"> </text><text xml:space="preserve" font-family="GillSans-Light,Gill Sans" font-size="52.0" fill="#525252" transform="matrix(1.00, 0.00, -0.00, -1.00, 705.9, 488.4)">u</text><text xml:space="preserve" font-family="GillSans-Light,Gill Sans" font-size="52.0" fill="#525252" transform="matrix(1.00, 0.00, -0.00, -1.00, 731.4, 488.4)">n</text><text xml:space="preserve" font-family="GillSans-Light,Gill Sans" font-size="52.0" fill="#525252" transform="matrix(1.00, 0.00, -0.00, -1.00, 756.9, 488.4)"> </text><text xml:space="preserve" font-family="GillSans-Light,Gill Sans" font-size="52.0" fill="#525252" transform="matrix(1.00, 0.00, -0.00, -1.00, 771.3, 488.4)">p</text><text xml:space="preserve" font-family="GillSans-Light,Gill Sans" font-size="52.0" fill="#525252" transform="matrix(1.00, 0.00, -0.00, -1.00, 797.8, 488.4)">i</text><text xml:space="preserve" font-family="GillSans-Light,Gill Sans" font-size="52.0" fill="#525252" transform="matrix(1.00, 0.00, -0.00, -1.00, 807.6, 488.4)">n</text><text xml:space="preserve" font-family="GillSans-Light,Gill Sans" font-size="52.0" fill="#525252" transform="matrix(1.00, 0.00, -0.00, -1.00, 208.9, 429.4)">P</text><text xml:space="preserve" font-family="GillSans-Light,Gill Sans" font-size="52.0" fill="#525252" transform="matrix(1.00, 0.00, -0.00, -1.00, 235.4, 429.4)">I</text><text xml:space="preserve" font-family="GillSans-Light,Gill Sans" font-size="52.0" fill="#525252" transform="matrix(1.00, 0.00, -0.00, -1.00, 246.2, 429.4)">N</text><text xml:space="preserve" font-family="GillSans-Light,Gill Sans" font-size="52.0" fill="#525252" transform="matrix(1.00, 0.00, -0.00, -1.00, 286.3, 429.4)">:</text><text xml:space="preserve" font-family="GillSans-Light,Gill Sans" font-size="52.0" fill="#525252" transform="matrix(1.00, 0.00, -0.00, -1.00, 291.3, 429.4)"> </text><text xml:space="preserve" font-family="GillSans-Light,Gill Sans" font-size="52.0" fill="#525252" transform="matrix(1.00, 0.00, -0.00, -1.00, 305.7, 429.4)">E</text><text xml:space="preserve" font-family="GillSans-Light,Gill Sans" font-size="52.0" fill="#525252" transform="matrix(1.00, 0.00, -0.00, -1.00, 331.2, 429.4)">l</text><text xml:space="preserve" font-family="GillSans-Light,Gill Sans" font-size="52.0" fill="#525252" transform="matrix(1.00, 0.00, -0.00, -1.00, 341.0, 429.4)"> </text><text xml:space="preserve" font-family="GillSans-Light,Gill Sans" font-size="52.0" fill="#525252" transform="matrix(1.00, 0.00, -0.00, -1.00, 355.4, 429.4)">p</text><text xml:space="preserve" font-family="GillSans-Light,Gill Sans" font-size="52.0" fill="#525252" transform="matrix(1.00, 0.00, -0.00, -1.00, 381.9, 429.4)">i</text><text xml:space="preserve" font-family="GillSans-Light,Gill Sans" font-size="52.0" fill="#525252" transform="matrix(1.00, 0.00, -0.00, -1.00, 391.7, 429.4)">n</text><text xml:space="preserve" font-family="GillSans-Light,Gill Sans" font-size="52.0" fill="#525252" transform="matrix(1.00, 0.00, -0.00, -1.00, 417.2, 429.4)"> </text><text xml:space="preserve" font-family="GillSans-Light,Gill Sans" font-size="52.0" fill="#525252" transform="matrix(1.00, 0.00, -0.00, -1.00, 431.6, 429.4)">e</text><text xml:space="preserve" font-family="GillSans-Light,Gill Sans" font-size="52.0" fill="#525252" transform="matrix(1.00, 0.00, -0.00, -1.00, 456.5, 429.4)">n</text><text xml:space="preserve" font-family="GillSans-Light,Gill Sans" font-size="52.0" fill="#525252" transform="matrix(1.00, 0.00, -0.00, -1.00, 482.1, 429.4)"> </text><text xml:space="preserve" font-family="GillSans-Light,Gill Sans" font-size="52.0" fill="#525252" transform="matrix(1.00, 0.00, -0.00, -1.00, 496.5, 429.4)">d</text><text xml:space="preserve" font-family="GillSans-Light,Gill Sans" font-size="52.0" fill="#525252" transform="matrix(1.00, 0.00, -0.00, -1.00, 523.0, 429.4)">o</text><text xml:space="preserve" font-family="GillSans-Light,Gill Sans" font-size="52.0" fill="#525252" transform="matrix(1.00, 0.00, -0.00, -1.00, 551.2, 429.4)">n</text><text xml:space="preserve" font-family="GillSans-Light,Gill Sans" font-size="52.0" fill="#525252" transform="matrix(1.00, 0.00, -0.00, -1.00, 576.7, 429.4)">d</text><text xml:space="preserve" font-family="GillSans-Light,Gill Sans" font-size="52.0" fill="#525252" transform="matrix(1.00, 0.00, -0.00, -1.00, 603.2, 429.4)">e</text><text xml:space="preserve" font-family="GillSans-Light,Gill Sans" font-size="52.0" fill="#525252" transform="matrix(1.00, 0.00, -0.00, -1.00, 628.1, 429.4)"> </text><text xml:space="preserve" font-family="GillSans-Light,Gill Sans" font-size="52.0" fill="#525252" transform="matrix(1.00, 0.00, -0.00, -1.00, 642.5, 429.4)">a</text><text xml:space="preserve" font-family="GillSans-Light,Gill Sans" font-size="52.0" fill="#525252" transform="matrix(1.00, 0.00, -0.00, -1.00, 664.7, 429.4)">c</text><text xml:space="preserve" font-family="GillSans-Light,Gill Sans" font-size="52.0" fill="#525252" transform="matrix(1.00, 0.00, -0.00, -1.00, 686.4, 429.4)">t</text><text xml:space="preserve" font-family="GillSans-Light,Gill Sans" font-size="52.0" fill="#525252" transform="matrix(1.00, 0.00, -0.00, -1.00, 702.1, 429.4)">u</text><text xml:space="preserve" font-family="GillSans-Light,Gill Sans" font-size="52.0" fill="#525252" transform="matrix(1.00, 0.00, -0.00, -1.00, 727.6, 429.4)">a</text><text xml:space="preserve" font-family="GillSans-Light,Gill Sans" font-size="52.0" fill="#525252" transform="matrix(1.00, 0.00, -0.00, -1.00, 749.7, 429.4)">r</text><text xml:space="preserve" font-family="GillSans-Light,Gill Sans" font-size="52.0" fill="#525252" transform="matrix(1.00, 0.00, -0.00, -1.00, 368.2, 370.4)">(</text><text xml:space="preserve" font-family="GillSans-Light,Gill Sans" font-size="52.0" fill="#525252" transform="matrix(1.00, 0.00, -0.00, -1.00, 385.5, 370.4)">0</text><text xml:space="preserve" font-family="GillSans-Light,Gill Sans" font-size="52.0" fill="#525252" transform="matrix(1.00, 0.00, -0.00, -1.00, 411.5, 370.4)">-</text><text xml:space="preserve" font-family="GillSans-Light,Gill Sans" font-size="52.0" fill="#525252" transform="matrix(1.00, 0.00, -0.00, -1.00, 427.8, 370.4)">5</text><text xml:space="preserve" font-family="GillSans-Light,Gill Sans" font-size="52.0" fill="#525252" transform="matrix(1.00, 0.00, -0.00, -1.00, 453.8, 370.4)"> </text><text xml:space="preserve" font-family="GillSans-Light,Gill Sans" font-size="52.0" fill="#525252" transform="matrix(1.00, 0.00, -0.00, -1.00, 468.2, 370.4)">[</text><text xml:space="preserve" font-family="GillSans-Light,Gill Sans" font-size="52.0" fill="#525252" transform="matrix(1.00, 0.00, -0.00, -1.00, 483.9, 370.4)">r</text><text xml:space="preserve" font-family="GillSans-Light,Gill Sans" font-size="52.0" fill="#525252" transform="matrix(1.00, 0.00, -0.00, -1.00, 501.2, 370.4)">e</text><text xml:space="preserve" font-family="GillSans-Light,Gill Sans" font-size="52.0" fill="#525252" transform="matrix(1.00, 0.00, -0.00, -1.00, 526.1, 370.4)">a</text><text xml:space="preserve" font-family="GillSans-Light,Gill Sans" font-size="52.0" fill="#525252" transform="matrix(1.00, 0.00, -0.00, -1.00, 548.3, 370.4)">d</text><text xml:space="preserve" font-family="GillSans-Light,Gill Sans" font-size="52.0" fill="#525252" transform="matrix(1.00, 0.00, -0.00, -1.00, 574.8, 370.4)">]</text><text xml:space="preserve" font-family="GillSans-Light,Gill Sans" font-size="52.0" fill="#525252" transform="matrix(1.00, 0.00, -0.00, -1.00, 590.5, 370.4)">)</text><text xml:space="preserve" font-family="GillSans-Light,Gill Sans" font-size="52.0" fill="#525252" transform="matrix(1.00, 0.00, -0.00, -1.00, 240.8, 311.4)">V</text><text xml:space="preserve" font-family="GillSans-Light,Gill Sans" font-size="52.0" fill="#525252" transform="matrix(1.00, 0.00, -0.00, -1.00, 268.6, 311.4)">A</text><text xml:space="preserve" font-family="GillSans-Light,Gill Sans" font-size="52.0" fill="#525252" transform="matrix(1.00, 0.00, -0.00, -1.00, 303.3, 311.4)">L</text><text xml:space="preserve" font-family="GillSans-Light,Gill Sans" font-size="52.0" fill="#525252" transform="matrix(1.00, 0.00, -0.00, -1.00, 327.7, 311.4)">:</text><text xml:space="preserve" font-family="GillSans-Light,Gill Sans" font-size="52.0" fill="#525252" transform="matrix(1.00, 0.00, -0.00, -1.00, 332.7, 311.4)"> </text><text xml:space="preserve" font-family="GillSans-Light,Gill Sans" font-size="52.0" fill="#525252" transform="matrix(1.00, 0.00, -0.00, -1.00, 339.8, 311.4)">V</text><text xml:space="preserve" font-family="GillSans-Light,Gill Sans" font-size="52.0" fill="#525252" transform="matrix(1.00, 0.00, -0.00, -1.00, 368.2, 311.4)">a</text><text xml:space="preserve" font-family="GillSans-Light,Gill Sans" font-size="52.0" fill="#525252" transform="matrix(1.00, 0.00, -0.00, -1.00, 390.4, 311.4)">l</text><text xml:space="preserve" font-family="GillSans-Light,Gill Sans" font-size="52.0" fill="#525252" transform="matrix(1.00, 0.00, -0.00, -1.00, 400.1, 311.4)">o</text><text xml:space="preserve" font-family="GillSans-Light,Gill Sans" font-size="52.0" fill="#525252" transform="matrix(1.00, 0.00, -0.00, -1.00, 428.3, 311.4)">r</text><text xml:space="preserve" font-family="GillSans-Light,Gill Sans" font-size="52.0" fill="#525252" transform="matrix(1.00, 0.00, -0.00, -1.00, 445.6, 311.4)"> </text><text xml:space="preserve" font-family="GillSans-Light,Gill Sans" font-size="52.0" fill="#525252" transform="matrix(1.00, 0.00, -0.00, -1.00, 460.1, 311.4)">a</text><text xml:space="preserve" font-family="GillSans-Light,Gill Sans" font-size="52.0" fill="#525252" transform="matrix(1.00, 0.00, -0.00, -1.00, 482.2, 311.4)"> </text><text xml:space="preserve" font-family="GillSans-Light,Gill Sans" font-size="52.0" fill="#525252" transform="matrix(1.00, 0.00, -0.00, -1.00, 496.7, 311.4)">l</text><text xml:space="preserve" font-family="GillSans-Light,Gill Sans" font-size="52.0" fill="#525252" transform="matrix(1.00, 0.00, -0.00, -1.00, 506.5, 311.4)">e</text><text xml:space="preserve" font-family="GillSans-Light,Gill Sans" font-size="52.0" fill="#525252" transform="matrix(1.00, 0.00, -0.00, -1.00, 531.4, 311.4)">e</text><text xml:space="preserve" font-family="GillSans-Light,Gill Sans" font-size="52.0" fill="#525252" transform="matrix(1.00, 0.00, -0.00, -1.00, 556.3, 311.4)">r</text><text xml:space="preserve" font-family="GillSans-Light,Gill Sans" font-size="52.0" fill="#525252" transform="matrix(1.00, 0.00, -0.00, -1.00, 573.6, 311.4)">/</text><text xml:space="preserve" font-family="GillSans-Light,Gill Sans" font-size="52.0" fill="#525252" transform="matrix(1.00, 0.00, -0.00, -1.00, 588.2, 311.4)">e</text><text xml:space="preserve" font-family="GillSans-Light,Gill Sans" font-size="52.0" fill="#525252" transform="matrix(1.00, 0.00, -0.00, -1.00, 613.1, 311.4)">s</text><text xml:space="preserve" font-family="GillSans-Light,Gill Sans" font-size="52.0" fill="#525252" transform="matrix(1.00, 0.00, -0.00, -1.00, 631.5, 311.4)">c</text><text xml:space="preserve" font-family="GillSans-Light,Gill Sans" font-size="52.0" fill="#525252" transform="matrix(1.00, 0.00, -0.00, -1.00, 653.2, 311.4)">r</text><text xml:space="preserve" font-family="GillSans-Light,Gill Sans" font-size="52.0" fill="#525252" transform="matrix(1.00, 0.00, -0.00, -1.00, 671.8, 311.4)">i</text><text xml:space="preserve" font-family="GillSans-Light,Gill Sans" font-size="52.0" fill="#525252" transform="matrix(1.00, 0.00, -0.00, -1.00, 681.6, 311.4)">b</text><text xml:space="preserve" font-family="GillSans-Light,Gill Sans" font-size="52.0" fill="#525252" transform="matrix(1.00, 0.00, -0.00, -1.00, 708.1, 311.4)">i</text><text xml:space="preserve" font-family="GillSans-Light,Gill Sans" font-size="52.0" fill="#525252" transform="matrix(1.00, 0.00, -0.00, -1.00, 717.8, 311.4)">r</text><text xml:space="preserve" font-family="GillSans-Light,Gill Sans" font-size="52.0" fill="#525252" transform="matrix(1.00, 0.00, -0.00, -1.00, 150.1, 252.4)">(</text><text xml:space="preserve" font-family="GillSans-Light,Gill Sans" font-size="52.0" fill="#525252" transform="matrix(1.00, 0.00, -0.00, -1.00, 167.4, 252.4)">0</text><text xml:space="preserve" font-family="GillSans-Light,Gill Sans" font-size="52.0" fill="#525252" transform="matrix(1.00, 0.00, -0.00, -1.00, 193.4, 252.4)"> </text><text xml:space="preserve" font-family="GillSans-Light,Gill Sans" font-size="52.0" fill="#525252" transform="matrix(1.00, 0.00, -0.00, -1.00, 207.8, 252.4)">a</text><text xml:space="preserve" font-family="GillSans-Light,Gill Sans" font-size="52.0" fill="#525252" transform="matrix(1.00, 0.00, -0.00, -1.00, 230.0, 252.4)"> </text><text xml:space="preserve" font-family="GillSans-Light,Gill Sans" font-size="52.0" fill="#525252" transform="matrix(1.00, 0.00, -0.00, -1.00, 244.5, 252.4)">1</text><text xml:space="preserve" font-family="GillSans-Light,Gill Sans" font-size="52.0" fill="#525252" transform="matrix(1.00, 0.00, -0.00, -1.00, 270.5, 252.4)">0</text><text xml:space="preserve" font-family="GillSans-Light,Gill Sans" font-size="52.0" fill="#525252" transform="matrix(1.00, 0.00, -0.00, -1.00, 296.5, 252.4)">2</text><text xml:space="preserve" font-family="GillSans-Light,Gill Sans" font-size="52.0" fill="#525252" transform="matrix(1.00, 0.00, -0.00, -1.00, 322.5, 252.4)">3</text><text xml:space="preserve" font-family="GillSans-Light,Gill Sans" font-size="52.0" fill="#525252" transform="matrix(1.00, 0.00, -0.00, -1.00, 348.5, 252.4)"> </text><text xml:space="preserve" font-family="GillSans-Light,Gill Sans" font-size="52.0" fill="#525252" transform="matrix(1.00, 0.00, -0.00, -1.00, 362.9, 252.4)">[</text><text xml:space="preserve" font-family="GillSans-Light,Gill Sans" font-size="52.0" fill="#525252" transform="matrix(1.00, 0.00, -0.00, -1.00, 378.6, 252.4)">r</text><text xml:space="preserve" font-family="GillSans-Light,Gill Sans" font-size="52.0" fill="#525252" transform="matrix(1.00, 0.00, -0.00, -1.00, 395.9, 252.4)">e</text><text xml:space="preserve" font-family="GillSans-Light,Gill Sans" font-size="52.0" fill="#525252" transform="matrix(1.00, 0.00, -0.00, -1.00, 420.8, 252.4)">a</text><text xml:space="preserve" font-family="GillSans-Light,Gill Sans" font-size="52.0" fill="#525252" transform="matrix(1.00, 0.00, -0.00, -1.00, 443.0, 252.4)">d</text><text xml:space="preserve" font-family="GillSans-Light,Gill Sans" font-size="52.0" fill="#525252" transform="matrix(1.00, 0.00, -0.00, -1.00, 469.5, 252.4)">]</text><text xml:space="preserve" font-family="GillSans-Light,Gill Sans" font-size="52.0" fill="#525252" transform="matrix(1.00, 0.00, -0.00, -1.00, 485.2, 252.4)"> </text><text xml:space="preserve" font-family="GillSans-Light,Gill Sans" font-size="52.0" fill="#525252" transform="matrix(1.00, 0.00, -0.00, -1.00, 499.6, 252.4)">o</text><text xml:space="preserve" font-family="GillSans-Light,Gill Sans" font-size="52.0" fill="#525252" transform="matrix(1.00, 0.00, -0.00, -1.00, 527.8, 252.4)"> </text><text xml:space="preserve" font-family="GillSans-Light,Gill Sans" font-size="52.0" fill="#525252" transform="matrix(1.00, 0.00, -0.00, -1.00, 542.2, 252.4)">a</text><text xml:space="preserve" font-family="GillSans-Light,Gill Sans" font-size="52.0" fill="#525252" transform="matrix(1.00, 0.00, -0.00, -1.00, 564.4, 252.4)"> </text><text xml:space="preserve" font-family="GillSans-Light,Gill Sans" font-size="52.0" fill="#525252" transform="matrix(1.00, 0.00, -0.00, -1.00, 578.8, 252.4)">2</text><text xml:space="preserve" font-family="GillSans-Light,Gill Sans" font-size="52.0" fill="#525252" transform="matrix(1.00, 0.00, -0.00, -1.00, 604.8, 252.4)">5</text><text xml:space="preserve" font-family="GillSans-Light,Gill Sans" font-size="52.0" fill="#525252" transform="matrix(1.00, 0.00, -0.00, -1.00, 630.8, 252.4)">5</text><text xml:space="preserve" font-family="GillSans-Light,Gill Sans" font-size="52.0" fill="#525252" transform="matrix(1.00, 0.00, -0.00, -1.00, 656.8, 252.4)"> </text><text xml:space="preserve" font-family="GillSans-Light,Gill Sans" font-size="52.0" fill="#525252" transform="matrix(1.00, 0.00, -0.00, -1.00, 671.3, 252.4)">[</text><text xml:space="preserve" font-family="GillSans-Light,Gill Sans" font-size="52.0" fill="#525252" transform="matrix(1.00, 0.00, -0.00, -1.00, 687.0, 252.4)">w</text><text xml:space="preserve" font-family="GillSans-Light,Gill Sans" font-size="52.0" fill="#525252" transform="matrix(1.00, 0.00, -0.00, -1.00, 723.8, 252.4)">r</text><text xml:space="preserve" font-family="GillSans-Light,Gill Sans" font-size="52.0" fill="#525252" transform="matrix(1.00, 0.00, -0.00, -1.00, 742.4, 252.4)">i</text><text xml:space="preserve" font-family="GillSans-Light,Gill Sans" font-size="52.0" fill="#525252" transform="matrix(1.00, 0.00, -0.00, -1.00, 752.2, 252.4)">t</text><text xml:space="preserve" font-family="GillSans-Light,Gill Sans" font-size="52.0" fill="#525252" transform="matrix(1.00, 0.00, -0.00, -1.00, 767.8, 252.4)">e</text><text xml:space="preserve" font-family="GillSans-Light,Gill Sans" font-size="52.0" fill="#525252" transform="matrix(1.00, 0.00, -0.00, -1.00, 792.7, 252.4)">]</text><text xml:space="preserve" font-family="GillSans-Light,Gill Sans" font-size="52.0" fill="#525252" transform="matrix(1.00, 0.00, -0.00, -1.00, 808.4, 252.4)">)</text><image xlink:href="../../48AF5308-F994-48C1-8059-27625A50A52A/assets/A86435A506DBB2755DCD472D114D2C26.png" width="400.00" height="438.00" transform="matrix(1.40, 0.00, -0.00, -1.40, 1131.0, 874.0)"></image></g></svg>