<?xml version="1.0" encoding="UTF-8" standalone="no"?><svg xmlns="http://www.w3.org/2000/svg" xmlns:xlink="http://www.w3.org/1999/xlink" clip-rule="evenodd" stroke-miterlimit="10" viewBox="0 0 147 103"><desc>SVG generated by Keynote</desc><defs></defs><g transform="matrix(1.00, 0.00, -0.00, -1.00, 0.0, 103.0)"><path d="M 26.5 101.0 C 23.8 101.1 22.0 98.8 22.0 96.1 L 22.0 61.1 L 1.5 51.1 L 22.0 41.1 L 22.0 6.1 C 22.0 3.3 23.8 1.0 26.5 1.0 L 140.4 1.0 C 143.1 1.0 145.0 3.3 145.0 6.1 L 145.0 96.1 C 145.0 98.8 143.1 101.0 140.4 101.0 L 26.5 101.0 Z M 26.5 101.1 " fill="#78889F"></path><g><clipPath id="clip0x6080006bbc60"><path d="M 11.3 1.1 L 155.6 1.1 L 155.6 101.1 L 11.3 101.1 Z M 11.3 1.1 "></path></clipPath><g clip-path="url(#clip0x6080006bbc60)"><text xml:space="preserve" font-family="GillSans-Light,Gill Sans" font-size="50.0" fill="#FEFFFF" transform="matrix(1.00, 0.00, -0.00, -1.00, 41.0, 34.7)">U</text><text xml:space="preserve" font-family="GillSans-Light,Gill Sans" font-size="50.0" fill="#FEFFFF" transform="matrix(1.00, 0.00, -0.00, -1.00, 75.9, 34.7)">S</text><text xml:space="preserve" font-family="GillSans-Light,Gill Sans" font-size="50.0" fill="#FEFFFF" transform="matrix(1.00, 0.00, -0.00, -1.00, 99.4, 34.7)">B</text></g></g></g></svg>