<?xml version="1.0" encoding="UTF-8" standalone="no"?><svg xmlns="http://www.w3.org/2000/svg" xmlns:xlink="http://www.w3.org/1999/xlink" clip-rule="evenodd" stroke-miterlimit="10" viewBox="0 0 169 169"><desc>SVG generated by Keynote</desc><defs></defs><g transform="matrix(1.00, 0.00, -0.00, -1.00, 0.0, 169.0)"><path d="M 1.1 167.7 L 19.0 64.2 L 19.0 6.6 C 19.0 3.8 21.7 2.0 24.5 2.0 L 162.2 2.0 C 165.0 2.0 167.0 3.8 167.0 6.6 L 167.0 96.6 C 167.0 99.4 165.0 102.0 162.2 102.0 L 33.8 102.0 L 1.1 167.7 Z M 1.1 167.7 " fill="#78889F"></path><g><clipPath id="clip0x6000006b2d20"><path d="M 9.3 1.6 L 177.4 1.6 L 177.4 101.6 L 9.3 101.6 Z M 9.3 1.6 "></path></clipPath><g clip-path="url(#clip0x6000006b2d20)"><text xml:space="preserve" font-family="GillSans-Light,Gill Sans" font-size="50.0" fill="#FEFFFF" transform="matrix(1.00, 0.00, -0.00, -1.00, 38.7, 35.3)">R</text><text xml:space="preserve" font-family="GillSans-Light,Gill Sans" font-size="50.0" fill="#FEFFFF" transform="matrix(1.00, 0.00, -0.00, -1.00, 67.3, 35.3)">e</text><text xml:space="preserve" font-family="GillSans-Light,Gill Sans" font-size="50.0" fill="#FEFFFF" transform="matrix(1.00, 0.00, -0.00, -1.00, 91.3, 35.3)">s</text><text xml:space="preserve" font-family="GillSans-Light,Gill Sans" font-size="50.0" fill="#FEFFFF" transform="matrix(1.00, 0.00, -0.00, -1.00, 109.0, 35.3)">e</text><text xml:space="preserve" font-family="GillSans-Light,Gill Sans" font-size="50.0" fill="#FEFFFF" transform="matrix(1.00, 0.00, -0.00, -1.00, 132.9, 35.3)">t</text></g></g></g></svg>