<?xml version="1.0" encoding="UTF-8" standalone="no"?><svg xmlns="http://www.w3.org/2000/svg" xmlns:xlink="http://www.w3.org/1999/xlink" clip-rule="evenodd" stroke-miterlimit="10" viewBox="0 0 659 155"><desc>SVG generated by Keynote</desc><defs></defs><g transform="matrix(1.00, 0.00, -0.00, -1.00, 0.0, 155.0)"><path d="M 182.7 153.0 C 180.0 153.4 178.0 151.1 178.0 148.4 L 178.0 73.7 L 1.9 1.5 L 234.0 53.0 L 652.1 53.0 C 654.8 53.0 657.0 55.6 657.0 58.4 L 657.0 148.4 C 657.0 151.1 654.8 153.0 652.1 153.0 L 182.7 153.0 Z M 182.7 153.4 " fill="#D99719"></path><g><clipPath id="clip0x6000006b3e60"><path d="M 167.5 53.4 L 667.3 53.4 L 667.3 153.4 L 167.5 153.4 Z M 167.5 53.4 "></path></clipPath><g clip-path="url(#clip0x6000006b3e60)"><text xml:space="preserve" font-family="GillSans-Light,Gill Sans" font-size="50.0" fill="#FEFFFF" transform="matrix(1.00, 0.00, -0.00, -1.00, 210.2, 87.0)">R</text><text xml:space="preserve" font-family="GillSans-Light,Gill Sans" font-size="50.0" fill="#FEFFFF" transform="matrix(1.00, 0.00, -0.00, -1.00, 238.8, 87.0)">e</text><text xml:space="preserve" font-family="GillSans-Light,Gill Sans" font-size="50.0" fill="#FEFFFF" transform="matrix(1.00, 0.00, -0.00, -1.00, 262.8, 87.0)">g</text><text xml:space="preserve" font-family="GillSans-Light,Gill Sans" font-size="50.0" fill="#FEFFFF" transform="matrix(1.00, 0.00, -0.00, -1.00, 284.1, 87.0)">u</text><text xml:space="preserve" font-family="GillSans-Light,Gill Sans" font-size="50.0" fill="#FEFFFF" transform="matrix(1.00, 0.00, -0.00, -1.00, 308.6, 87.0)">l</text><text xml:space="preserve" font-family="GillSans-Light,Gill Sans" font-size="50.0" fill="#FEFFFF" transform="matrix(1.00, 0.00, -0.00, -1.00, 318.0, 87.0)">a</text><text xml:space="preserve" font-family="GillSans-Light,Gill Sans" font-size="50.0" fill="#FEFFFF" transform="matrix(1.00, 0.00, -0.00, -1.00, 339.4, 87.0)">d</text><text xml:space="preserve" font-family="GillSans-Light,Gill Sans" font-size="50.0" fill="#FEFFFF" transform="matrix(1.00, 0.00, -0.00, -1.00, 364.8, 87.0)">o</text><text xml:space="preserve" font-family="GillSans-Light,Gill Sans" font-size="50.0" fill="#FEFFFF" transform="matrix(1.00, 0.00, -0.00, -1.00, 391.9, 87.0)">r</text><text xml:space="preserve" font-family="GillSans-Light,Gill Sans" font-size="50.0" fill="#FEFFFF" transform="matrix(1.00, 0.00, -0.00, -1.00, 408.6, 87.0)"> </text><text xml:space="preserve" font-family="GillSans-Light,Gill Sans" font-size="50.0" fill="#FEFFFF" transform="matrix(1.00, 0.00, -0.00, -1.00, 422.5, 87.0)">d</text><text xml:space="preserve" font-family="GillSans-Light,Gill Sans" font-size="50.0" fill="#FEFFFF" transform="matrix(1.00, 0.00, -0.00, -1.00, 447.9, 87.0)">e</text><text xml:space="preserve" font-family="GillSans-Light,Gill Sans" font-size="50.0" fill="#FEFFFF" transform="matrix(1.00, 0.00, -0.00, -1.00, 471.9, 87.0)"> </text><text xml:space="preserve" font-family="GillSans-Light,Gill Sans" font-size="50.0" fill="#FEFFFF" transform="matrix(1.00, 0.00, -0.00, -1.00, 485.8, 87.0)">v</text><text xml:space="preserve" font-family="GillSans-Light,Gill Sans" font-size="50.0" fill="#FEFFFF" transform="matrix(1.00, 0.00, -0.00, -1.00, 506.3, 87.0)">o</text><text xml:space="preserve" font-family="GillSans-Light,Gill Sans" font-size="50.0" fill="#FEFFFF" transform="matrix(1.00, 0.00, -0.00, -1.00, 533.4, 87.0)">l</text><text xml:space="preserve" font-family="GillSans-Light,Gill Sans" font-size="50.0" fill="#FEFFFF" transform="matrix(1.00, 0.00, -0.00, -1.00, 542.8, 87.0)">t</text><text xml:space="preserve" font-family="GillSans-Light,Gill Sans" font-size="50.0" fill="#FEFFFF" transform="matrix(1.00, 0.00, -0.00, -1.00, 557.9, 87.0)">a</text><text xml:space="preserve" font-family="GillSans-Light,Gill Sans" font-size="50.0" fill="#FEFFFF" transform="matrix(1.00, 0.00, -0.00, -1.00, 579.3, 87.0)">g</text><text xml:space="preserve" font-family="GillSans-Light,Gill Sans" font-size="50.0" fill="#FEFFFF" transform="matrix(1.00, 0.00, -0.00, -1.00, 600.6, 87.0)">e</text></g></g></g></svg>