<?xml version="1.0" encoding="UTF-8" standalone="no"?><svg xmlns="http://www.w3.org/2000/svg" xmlns:xlink="http://www.w3.org/1999/xlink" clip-rule="evenodd" stroke-miterlimit="10" viewBox="0 0 147 103"><desc>SVG generated by Keynote</desc><defs></defs><g transform="matrix(1.00, 0.00, -0.00, -1.00, 0.0, 103.0)"><path d="M 26.6 102.0 C 23.9 101.7 22.0 99.5 22.0 96.7 L 22.0 61.7 L 1.6 51.7 L 22.0 41.7 L 22.0 6.7 C 22.0 3.9 23.9 2.0 26.6 2.0 L 140.5 2.0 C 143.2 2.0 145.0 3.9 145.0 6.7 L 145.0 96.7 C 145.0 99.5 143.2 102.0 140.5 102.0 L 26.6 102.0 Z M 26.6 101.7 " fill="#78889F"></path><g><clipPath id="clip0x6000006b04a0"><path d="M 11.4 1.7 L 155.7 1.7 L 155.7 101.7 L 11.4 101.7 Z M 11.4 1.7 "></path></clipPath><g clip-path="url(#clip0x6000006b04a0)"><text xml:space="preserve" font-family="GillSans-Light,Gill Sans" font-size="50.0" fill="#FEFFFF" transform="matrix(1.00, 0.00, -0.00, -1.00, 48.1, 35.4)">D</text><text xml:space="preserve" font-family="GillSans-Light,Gill Sans" font-size="50.0" fill="#FEFFFF" transform="matrix(1.00, 0.00, -0.00, -1.00, 85.1, 35.4)">C</text></g></g></g></svg>