<?xml version="1.0" encoding="UTF-8" standalone="no"?><svg xmlns="http://www.w3.org/2000/svg" xmlns:xlink="http://www.w3.org/1999/xlink" clip-rule="evenodd" stroke-miterlimit="10" viewBox="0 0 1920 1080"><desc>SVG generated by Keynote</desc><defs></defs><g transform="matrix(1.00, 0.00, -0.00, -1.00, 0.0, 1080.0)"><g><clipPath id="clip0x6100008b2960"><path d="M 0.0 1080.0 L 1920.0 1080.0 L 1920.0 0.0 L 0.0 0.0 Z M 0.0 1080.0 "></path></clipPath><g clip-path="url(#clip0x6100008b2960)"><image xlink:href="../../670AF0A5-B06C-45B2-A649-BC83FE98871A/assets/400D38DE9BD779267D8D9BA1A44336F3.jpeg" width="3840.00" height="2160.00" transform="matrix(0.50, 0.00, -0.00, -0.50, 0.0, 1080.0)"></image></g></g><g><clipPath id="clip0x608000aa5b20"><path d="M -131.0 1075.0 L 2082.0 1075.0 L 2082.0 139.0 L -131.0 139.0 Z M -130.7 1074.8 "></path></clipPath><g clip-path="url(#clip0x608000aa5b20)"><image xlink:href="../../1B95A372-6807-4D81-A3BC-8AAF5A5463F6/assets/30F5BCAF2B276B63DCCD9EA777D96AEB.png" width="1416.00" height="898.00" transform="matrix(1.04, 0.00, -0.00, -1.04, 238.0, 1075.0)"></image></g></g><text xml:space="preserve" font-family="GillSans-Light,Gill Sans" font-size="100.0" fill="#525252" transform="matrix(1.00, 0.00, -0.00, -1.00, 406.7, 106.0)">S</text><text xml:space="preserve" font-family="GillSans-Light,Gill Sans" font-size="100.0" fill="#525252" transform="matrix(1.00, 0.00, -0.00, -1.00, 453.6, 106.0)">C</text><text xml:space="preserve" font-family="GillSans-Light,Gill Sans" font-size="100.0" fill="#525252" transform="matrix(1.00, 0.00, -0.00, -1.00, 521.3, 106.0)">R</text><text xml:space="preserve" font-family="GillSans-Light,Gill Sans" font-size="100.0" fill="#525252" transform="matrix(1.00, 0.00, -0.00, -1.00, 578.6, 106.0)">A</text><text xml:space="preserve" font-family="GillSans-Light,Gill Sans" font-size="100.0" fill="#525252" transform="matrix(1.00, 0.00, -0.00, -1.00, 635.3, 106.0)">T</text><text xml:space="preserve" font-family="GillSans-Light,Gill Sans" font-size="100.0" fill="#525252" transform="matrix(1.00, 0.00, -0.00, -1.00, 692.7, 106.0)">C</text><text xml:space="preserve" font-family="GillSans-Light,Gill Sans" font-size="100.0" fill="#525252" transform="matrix(1.00, 0.00, -0.00, -1.00, 760.3, 106.0)">H</text><text xml:space="preserve" font-family="GillSans-Light,Gill Sans" font-size="100.0" fill="#525252" transform="matrix(1.00, 0.00, -0.00, -1.00, 832.3, 106.0)"> </text><text xml:space="preserve" font-family="GillSans-Light,Gill Sans" font-size="100.0" fill="#525252" transform="matrix(1.00, 0.00, -0.00, -1.00, 860.0, 106.0)">F</text><text xml:space="preserve" font-family="GillSans-Light,Gill Sans" font-size="100.0" fill="#525252" transform="matrix(1.00, 0.00, -0.00, -1.00, 903.8, 106.0)">O</text><text xml:space="preserve" font-family="GillSans-Light,Gill Sans" font-size="100.0" fill="#525252" transform="matrix(1.00, 0.00, -0.00, -1.00, 986.2, 106.0)">R</text><text xml:space="preserve" font-family="GillSans-Light,Gill Sans" font-size="100.0" fill="#525252" transform="matrix(1.00, 0.00, -0.00, -1.00, 1043.5, 106.0)"> </text><text xml:space="preserve" font-family="GillSans-Light,Gill Sans" font-size="100.0" fill="#525252" transform="matrix(1.00, 0.00, -0.00, -1.00, 1065.3, 106.0)">A</text><text xml:space="preserve" font-family="GillSans-Light,Gill Sans" font-size="100.0" fill="#525252" transform="matrix(1.00, 0.00, -0.00, -1.00, 1132.0, 106.0)">R</text><text xml:space="preserve" font-family="GillSans-Light,Gill Sans" font-size="100.0" fill="#525252" transform="matrix(1.00, 0.00, -0.00, -1.00, 1189.3, 106.0)">D</text><text xml:space="preserve" font-family="GillSans-Light,Gill Sans" font-size="100.0" fill="#525252" transform="matrix(1.00, 0.00, -0.00, -1.00, 1263.4, 106.0)">U</text><text xml:space="preserve" font-family="GillSans-Light,Gill Sans" font-size="100.0" fill="#525252" transform="matrix(1.00, 0.00, -0.00, -1.00, 1333.2, 106.0)">I</text><text xml:space="preserve" font-family="GillSans-Light,Gill Sans" font-size="100.0" fill="#525252" transform="matrix(1.00, 0.00, -0.00, -1.00, 1354.0, 106.0)">N</text><text xml:space="preserve" font-family="GillSans-Light,Gill Sans" font-size="100.0" fill="#525252" transform="matrix(1.00, 0.00, -0.00, -1.00, 1431.1, 106.0)">O</text></g></svg>