<?xml version="1.0" encoding="UTF-8" standalone="no"?><svg xmlns="http://www.w3.org/2000/svg" xmlns:xlink="http://www.w3.org/1999/xlink" clip-rule="evenodd" stroke-miterlimit="10" viewBox="0 0 1920 1080"><desc>SVG generated by Keynote</desc><defs></defs><g transform="matrix(1.00, 0.00, -0.00, -1.00, 0.0, 1080.0)"><g><clipPath id="clip0x618000ab9860"><path d="M 0.0 1080.0 L 1920.0 1080.0 L 1920.0 0.0 L 0.0 0.0 Z M 0.0 1080.0 "></path></clipPath><g clip-path="url(#clip0x618000ab9860)"><image xlink:href="../../670AF0A5-B06C-45B2-A649-BC83FE98871A/assets/400D38DE9BD779267D8D9BA1A44336F3.jpeg" width="3840.00" height="2160.00" transform="matrix(0.50, 0.00, -0.00, -0.50, 0.0, 1080.0)"></image></g></g><text xml:space="preserve" font-family="GillSans-Light,Gill Sans" font-size="100.0" fill="#525252" transform="matrix(1.00, 0.00, -0.00, -1.00, 747.7, 883.8)">S</text><text xml:space="preserve" font-family="GillSans-Light,Gill Sans" font-size="100.0" fill="#525252" transform="matrix(1.00, 0.00, -0.00, -1.00, 794.7, 883.8)">C</text><text xml:space="preserve" font-family="GillSans-Light,Gill Sans" font-size="100.0" fill="#525252" transform="matrix(1.00, 0.00, -0.00, -1.00, 862.4, 883.8)">R</text><text xml:space="preserve" font-family="GillSans-Light,Gill Sans" font-size="100.0" fill="#525252" transform="matrix(1.00, 0.00, -0.00, -1.00, 919.7, 883.8)">A</text><text xml:space="preserve" font-family="GillSans-Light,Gill Sans" font-size="100.0" fill="#525252" transform="matrix(1.00, 0.00, -0.00, -1.00, 976.4, 883.8)">T</text><text xml:space="preserve" font-family="GillSans-Light,Gill Sans" font-size="100.0" fill="#525252" transform="matrix(1.00, 0.00, -0.00, -1.00, 1033.8, 883.8)">C</text><text xml:space="preserve" font-family="GillSans-Light,Gill Sans" font-size="100.0" fill="#525252" transform="matrix(1.00, 0.00, -0.00, -1.00, 1101.5, 883.8)">H</text><text xml:space="preserve" font-family="GillSans-Light,Gill Sans" font-size="52.5" fill="#525252" transform="matrix(1.00, 0.00, -0.00, -1.00, 57.0, 562.5)">•</text><text xml:space="preserve" font-family="GillSans-Light,Gill Sans" font-size="64.0" fill="#525252" transform="matrix(1.00, 0.00, -0.00, -1.00, 115.0, 559.2)">S</text><text xml:space="preserve" font-family="GillSans-Light,Gill Sans" font-size="64.0" fill="#525252" transform="matrix(1.00, 0.00, -0.00, -1.00, 145.0, 559.2)">c</text><text xml:space="preserve" font-family="GillSans-Light,Gill Sans" font-size="64.0" fill="#525252" transform="matrix(1.00, 0.00, -0.00, -1.00, 171.7, 559.2)">r</text><text xml:space="preserve" font-family="GillSans-Light,Gill Sans" font-size="64.0" fill="#525252" transform="matrix(1.00, 0.00, -0.00, -1.00, 194.6, 559.2)">a</text><text xml:space="preserve" font-family="GillSans-Light,Gill Sans" font-size="64.0" fill="#525252" transform="matrix(1.00, 0.00, -0.00, -1.00, 221.9, 559.2)">t</text><text xml:space="preserve" font-family="GillSans-Light,Gill Sans" font-size="64.0" fill="#525252" transform="matrix(1.00, 0.00, -0.00, -1.00, 241.2, 559.2)">c</text><text xml:space="preserve" font-family="GillSans-Light,Gill Sans" font-size="64.0" fill="#525252" transform="matrix(1.00, 0.00, -0.00, -1.00, 267.9, 559.2)">h</text><text xml:space="preserve" font-family="GillSans-Light,Gill Sans" font-size="64.0" fill="#525252" transform="matrix(1.00, 0.00, -0.00, -1.00, 299.3, 559.2)"> </text><text xml:space="preserve" font-family="GillSans-Light,Gill Sans" font-size="64.0" fill="#525252" transform="matrix(1.00, 0.00, -0.00, -1.00, 317.1, 559.2)">e</text><text xml:space="preserve" font-family="GillSans-Light,Gill Sans" font-size="64.0" fill="#525252" transform="matrix(1.00, 0.00, -0.00, -1.00, 347.7, 559.2)">s</text><text xml:space="preserve" font-family="GillSans-Light,Gill Sans" font-size="64.0" fill="#525252" transform="matrix(1.00, 0.00, -0.00, -1.00, 370.4, 559.2)"> </text><text xml:space="preserve" font-family="GillSans-Light,Gill Sans" font-size="64.0" fill="#525252" transform="matrix(1.00, 0.00, -0.00, -1.00, 388.2, 559.2)">u</text><text xml:space="preserve" font-family="GillSans-Light,Gill Sans" font-size="64.0" fill="#525252" transform="matrix(1.00, 0.00, -0.00, -1.00, 419.5, 559.2)">n</text><text xml:space="preserve" font-family="GillSans-Light,Gill Sans" font-size="64.0" fill="#525252" transform="matrix(1.00, 0.00, -0.00, -1.00, 450.9, 559.2)"> </text><text xml:space="preserve" font-family="GillSans-Light,Gill Sans" font-size="64.0" fill="#525252" transform="matrix(1.00, 0.00, -0.00, -1.00, 468.7, 559.2)">l</text><text xml:space="preserve" font-family="GillSans-Light,Gill Sans" font-size="64.0" fill="#525252" transform="matrix(1.00, 0.00, -0.00, -1.00, 480.7, 559.2)">e</text><text xml:space="preserve" font-family="GillSans-Light,Gill Sans" font-size="64.0" fill="#525252" transform="matrix(1.00, 0.00, -0.00, -1.00, 511.4, 559.2)">n</text><text xml:space="preserve" font-family="GillSans-Light,Gill Sans" font-size="64.0" fill="#525252" transform="matrix(1.00, 0.00, -0.00, -1.00, 542.8, 559.2)">g</text><text xml:space="preserve" font-family="GillSans-Light,Gill Sans" font-size="64.0" fill="#525252" transform="matrix(1.00, 0.00, -0.00, -1.00, 570.1, 559.2)">u</text><text xml:space="preserve" font-family="GillSans-Light,Gill Sans" font-size="64.0" fill="#525252" transform="matrix(1.00, 0.00, -0.00, -1.00, 601.5, 559.2)">a</text><text xml:space="preserve" font-family="GillSans-Light,Gill Sans" font-size="64.0" fill="#525252" transform="matrix(1.00, 0.00, -0.00, -1.00, 628.8, 559.2)">j</text><text xml:space="preserve" font-family="GillSans-Light,Gill Sans" font-size="64.0" fill="#525252" transform="matrix(1.00, 0.00, -0.00, -1.00, 640.8, 559.2)">e</text><text xml:space="preserve" font-family="GillSans-Light,Gill Sans" font-size="64.0" fill="#525252" transform="matrix(1.00, 0.00, -0.00, -1.00, 671.5, 559.2)"> </text><text xml:space="preserve" font-family="GillSans-Light,Gill Sans" font-size="64.0" fill="#525252" transform="matrix(1.00, 0.00, -0.00, -1.00, 689.2, 559.2)">d</text><text xml:space="preserve" font-family="GillSans-Light,Gill Sans" font-size="64.0" fill="#525252" transform="matrix(1.00, 0.00, -0.00, -1.00, 721.8, 559.2)">e</text><text xml:space="preserve" font-family="GillSans-Light,Gill Sans" font-size="64.0" fill="#525252" transform="matrix(1.00, 0.00, -0.00, -1.00, 752.5, 559.2)"> </text><text xml:space="preserve" font-family="GillSans-Light,Gill Sans" font-size="64.0" fill="#525252" transform="matrix(1.00, 0.00, -0.00, -1.00, 770.3, 559.2)">p</text><text xml:space="preserve" font-family="GillSans-Light,Gill Sans" font-size="64.0" fill="#525252" transform="matrix(1.00, 0.00, -0.00, -1.00, 802.9, 559.2)">r</text><text xml:space="preserve" font-family="GillSans-Light,Gill Sans" font-size="64.0" fill="#525252" transform="matrix(1.00, 0.00, -0.00, -1.00, 824.2, 559.2)">o</text><text xml:space="preserve" font-family="GillSans-Light,Gill Sans" font-size="64.0" fill="#525252" transform="matrix(1.00, 0.00, -0.00, -1.00, 858.9, 559.2)">g</text><text xml:space="preserve" font-family="GillSans-Light,Gill Sans" font-size="64.0" fill="#525252" transform="matrix(1.00, 0.00, -0.00, -1.00, 886.2, 559.2)">r</text><text xml:space="preserve" font-family="GillSans-Light,Gill Sans" font-size="64.0" fill="#525252" transform="matrix(1.00, 0.00, -0.00, -1.00, 909.1, 559.2)">a</text><text xml:space="preserve" font-family="GillSans-Light,Gill Sans" font-size="64.0" fill="#525252" transform="matrix(1.00, 0.00, -0.00, -1.00, 936.4, 559.2)">m</text><text xml:space="preserve" font-family="GillSans-Light,Gill Sans" font-size="64.0" fill="#525252" transform="matrix(1.00, 0.00, -0.00, -1.00, 985.7, 559.2)">a</text><text xml:space="preserve" font-family="GillSans-Light,Gill Sans" font-size="64.0" fill="#525252" transform="matrix(1.00, 0.00, -0.00, -1.00, 1013.0, 559.2)">c</text><text xml:space="preserve" font-family="GillSans-Light,Gill Sans" font-size="64.0" fill="#525252" transform="matrix(1.00, 0.00, -0.00, -1.00, 1039.7, 559.2)">i</text><text xml:space="preserve" font-family="GillSans-Light,Gill Sans" font-size="64.0" fill="#525252" transform="matrix(1.00, 0.00, -0.00, -1.00, 1051.7, 559.2)">ó</text><text xml:space="preserve" font-family="GillSans-Light,Gill Sans" font-size="64.0" fill="#525252" transform="matrix(1.00, 0.00, -0.00, -1.00, 1086.4, 559.2)">n</text><text xml:space="preserve" font-family="GillSans-Light,Gill Sans" font-size="64.0" fill="#525252" transform="matrix(1.00, 0.00, -0.00, -1.00, 1117.8, 559.2)"> </text><text xml:space="preserve" font-family="GillSans-Light,Gill Sans" font-size="64.0" fill="#525252" transform="matrix(1.00, 0.00, -0.00, -1.00, 1135.6, 559.2)">v</text><text xml:space="preserve" font-family="GillSans-Light,Gill Sans" font-size="64.0" fill="#525252" transform="matrix(1.00, 0.00, -0.00, -1.00, 1162.9, 559.2)">i</text><text xml:space="preserve" font-family="GillSans-Light,Gill Sans" font-size="64.0" fill="#525252" transform="matrix(1.00, 0.00, -0.00, -1.00, 1174.9, 559.2)">s</text><text xml:space="preserve" font-family="GillSans-Light,Gill Sans" font-size="64.0" fill="#525252" transform="matrix(1.00, 0.00, -0.00, -1.00, 1197.6, 559.2)">u</text><text xml:space="preserve" font-family="GillSans-Light,Gill Sans" font-size="64.0" fill="#525252" transform="matrix(1.00, 0.00, -0.00, -1.00, 1229.0, 559.2)">a</text><text xml:space="preserve" font-family="GillSans-Light,Gill Sans" font-size="64.0" fill="#525252" transform="matrix(1.00, 0.00, -0.00, -1.00, 1256.3, 559.2)">l</text><text xml:space="preserve" font-family="GillSans-Light,Gill Sans" font-size="52.5" fill="#525252" transform="matrix(1.00, 0.00, -0.00, -1.00, 57.0, 411.1)">•</text><text xml:space="preserve" font-family="GillSans-Light,Gill Sans" font-size="64.0" fill="#525252" transform="matrix(1.00, 0.00, -0.00, -1.00, 115.0, 407.9)">O</text><text xml:space="preserve" font-family="GillSans-Light,Gill Sans" font-size="64.0" fill="#525252" transform="matrix(1.00, 0.00, -0.00, -1.00, 167.7, 407.9)">r</text><text xml:space="preserve" font-family="GillSans-Light,Gill Sans" font-size="64.0" fill="#525252" transform="matrix(1.00, 0.00, -0.00, -1.00, 190.6, 407.9)">i</text><text xml:space="preserve" font-family="GillSans-Light,Gill Sans" font-size="64.0" fill="#525252" transform="matrix(1.00, 0.00, -0.00, -1.00, 202.6, 407.9)">e</text><text xml:space="preserve" font-family="GillSans-Light,Gill Sans" font-size="64.0" fill="#525252" transform="matrix(1.00, 0.00, -0.00, -1.00, 233.3, 407.9)">n</text><text xml:space="preserve" font-family="GillSans-Light,Gill Sans" font-size="64.0" fill="#525252" transform="matrix(1.00, 0.00, -0.00, -1.00, 264.7, 407.9)">t</text><text xml:space="preserve" font-family="GillSans-Light,Gill Sans" font-size="64.0" fill="#525252" transform="matrix(1.00, 0.00, -0.00, -1.00, 284.0, 407.9)">a</text><text xml:space="preserve" font-family="GillSans-Light,Gill Sans" font-size="64.0" fill="#525252" transform="matrix(1.00, 0.00, -0.00, -1.00, 311.3, 407.9)">d</text><text xml:space="preserve" font-family="GillSans-Light,Gill Sans" font-size="64.0" fill="#525252" transform="matrix(1.00, 0.00, -0.00, -1.00, 343.9, 407.9)">a</text><text xml:space="preserve" font-family="GillSans-Light,Gill Sans" font-size="64.0" fill="#525252" transform="matrix(1.00, 0.00, -0.00, -1.00, 371.2, 407.9)"> </text><text xml:space="preserve" font-family="GillSans-Light,Gill Sans" font-size="64.0" fill="#525252" transform="matrix(1.00, 0.00, -0.00, -1.00, 389.0, 407.9)">a</text><text xml:space="preserve" font-family="GillSans-Light,Gill Sans" font-size="64.0" fill="#525252" transform="matrix(1.00, 0.00, -0.00, -1.00, 416.3, 407.9)"> </text><text xml:space="preserve" font-family="GillSans-Light,Gill Sans" font-size="64.0" fill="#525252" transform="matrix(1.00, 0.00, -0.00, -1.00, 434.0, 407.9)">o</text><text xml:space="preserve" font-family="GillSans-Light,Gill Sans" font-size="64.0" fill="#525252" transform="matrix(1.00, 0.00, -0.00, -1.00, 468.7, 407.9)">b</text><text xml:space="preserve" font-family="GillSans-Light,Gill Sans" font-size="64.0" fill="#525252" transform="matrix(1.00, 0.00, -0.00, -1.00, 501.3, 407.9)">j</text><text xml:space="preserve" font-family="GillSans-Light,Gill Sans" font-size="64.0" fill="#525252" transform="matrix(1.00, 0.00, -0.00, -1.00, 513.4, 407.9)">e</text><text xml:space="preserve" font-family="GillSans-Light,Gill Sans" font-size="64.0" fill="#525252" transform="matrix(1.00, 0.00, -0.00, -1.00, 544.0, 407.9)">t</text><text xml:space="preserve" font-family="GillSans-Light,Gill Sans" font-size="64.0" fill="#525252" transform="matrix(1.00, 0.00, -0.00, -1.00, 563.3, 407.9)">o</text><text xml:space="preserve" font-family="GillSans-Light,Gill Sans" font-size="64.0" fill="#525252" transform="matrix(1.00, 0.00, -0.00, -1.00, 598.0, 407.9)">s</text><text xml:space="preserve" font-family="GillSans-Light,Gill Sans" font-size="52.5" fill="#525252" transform="matrix(1.00, 0.00, -0.00, -1.00, 57.0, 259.7)">•</text><text xml:space="preserve" font-family="GillSans-Light,Gill Sans" font-size="64.0" fill="#525252" transform="matrix(1.00, 0.00, -0.00, -1.00, 115.0, 256.4)">M</text><text xml:space="preserve" font-family="GillSans-Light,Gill Sans" font-size="64.0" fill="#525252" transform="matrix(1.00, 0.00, -0.00, -1.00, 165.0, 256.4)">u</text><text xml:space="preserve" font-family="GillSans-Light,Gill Sans" font-size="64.0" fill="#525252" transform="matrix(1.00, 0.00, -0.00, -1.00, 196.3, 256.4)">l</text><text xml:space="preserve" font-family="GillSans-Light,Gill Sans" font-size="64.0" fill="#525252" transform="matrix(1.00, 0.00, -0.00, -1.00, 208.4, 256.4)">t</text><text xml:space="preserve" font-family="GillSans-Light,Gill Sans" font-size="64.0" fill="#525252" transform="matrix(1.00, 0.00, -0.00, -1.00, 227.7, 256.4)">i</text><text xml:space="preserve" font-family="GillSans-Light,Gill Sans" font-size="64.0" fill="#525252" transform="matrix(1.00, 0.00, -0.00, -1.00, 239.7, 256.4)">p</text><text xml:space="preserve" font-family="GillSans-Light,Gill Sans" font-size="64.0" fill="#525252" transform="matrix(1.00, 0.00, -0.00, -1.00, 272.3, 256.4)">l</text><text xml:space="preserve" font-family="GillSans-Light,Gill Sans" font-size="64.0" fill="#525252" transform="matrix(1.00, 0.00, -0.00, -1.00, 284.3, 256.4)">a</text><text xml:space="preserve" font-family="GillSans-Light,Gill Sans" font-size="64.0" fill="#525252" transform="matrix(1.00, 0.00, -0.00, -1.00, 311.6, 256.4)">t</text><text xml:space="preserve" font-family="GillSans-Light,Gill Sans" font-size="64.0" fill="#525252" transform="matrix(1.00, 0.00, -0.00, -1.00, 330.9, 256.4)">a</text><text xml:space="preserve" font-family="GillSans-Light,Gill Sans" font-size="64.0" fill="#525252" transform="matrix(1.00, 0.00, -0.00, -1.00, 358.2, 256.4)">f</text><text xml:space="preserve" font-family="GillSans-Light,Gill Sans" font-size="64.0" fill="#525252" transform="matrix(1.00, 0.00, -0.00, -1.00, 373.0, 256.4)">o</text><text xml:space="preserve" font-family="GillSans-Light,Gill Sans" font-size="64.0" fill="#525252" transform="matrix(1.00, 0.00, -0.00, -1.00, 407.7, 256.4)">r</text><text xml:space="preserve" font-family="GillSans-Light,Gill Sans" font-size="64.0" fill="#525252" transform="matrix(1.00, 0.00, -0.00, -1.00, 430.6, 256.4)">m</text><text xml:space="preserve" font-family="GillSans-Light,Gill Sans" font-size="64.0" fill="#525252" transform="matrix(1.00, 0.00, -0.00, -1.00, 480.0, 256.4)">a</text><text xml:space="preserve" font-family="GillSans-Light,Gill Sans" font-size="64.0" fill="#525252" transform="matrix(1.00, 0.00, -0.00, -1.00, 507.3, 256.4)"> </text><text xml:space="preserve" font-family="GillSans-Light,Gill Sans" font-size="64.0" fill="#525252" transform="matrix(1.00, 0.00, -0.00, -1.00, 525.0, 256.4)">y</text><text xml:space="preserve" font-family="GillSans-Light,Gill Sans" font-size="64.0" fill="#525252" transform="matrix(1.00, 0.00, -0.00, -1.00, 551.7, 256.4)"> </text><text xml:space="preserve" font-family="GillSans-Light,Gill Sans" font-size="64.0" fill="#525252" transform="matrix(1.00, 0.00, -0.00, -1.00, 569.5, 256.4)">o</text><text xml:space="preserve" font-family="GillSans-Light,Gill Sans" font-size="64.0" fill="#525252" transform="matrix(1.00, 0.00, -0.00, -1.00, 604.2, 256.4)">p</text><text xml:space="preserve" font-family="GillSans-Light,Gill Sans" font-size="64.0" fill="#525252" transform="matrix(1.00, 0.00, -0.00, -1.00, 636.8, 256.4)">e</text><text xml:space="preserve" font-family="GillSans-Light,Gill Sans" font-size="64.0" fill="#525252" transform="matrix(1.00, 0.00, -0.00, -1.00, 667.4, 256.4)">n</text><text xml:space="preserve" font-family="GillSans-Light,Gill Sans" font-size="64.0" fill="#525252" transform="matrix(1.00, 0.00, -0.00, -1.00, 698.8, 256.4)">-</text><text xml:space="preserve" font-family="GillSans-Light,Gill Sans" font-size="64.0" fill="#525252" transform="matrix(1.00, 0.00, -0.00, -1.00, 718.9, 256.4)">s</text><text xml:space="preserve" font-family="GillSans-Light,Gill Sans" font-size="64.0" fill="#525252" transform="matrix(1.00, 0.00, -0.00, -1.00, 741.5, 256.4)">o</text><text xml:space="preserve" font-family="GillSans-Light,Gill Sans" font-size="64.0" fill="#525252" transform="matrix(1.00, 0.00, -0.00, -1.00, 776.2, 256.4)">u</text><text xml:space="preserve" font-family="GillSans-Light,Gill Sans" font-size="64.0" fill="#525252" transform="matrix(1.00, 0.00, -0.00, -1.00, 807.6, 256.4)">r</text><text xml:space="preserve" font-family="GillSans-Light,Gill Sans" font-size="64.0" fill="#525252" transform="matrix(1.00, 0.00, -0.00, -1.00, 828.9, 256.4)">c</text><text xml:space="preserve" font-family="GillSans-Light,Gill Sans" font-size="64.0" fill="#525252" transform="matrix(1.00, 0.00, -0.00, -1.00, 855.6, 256.4)">e</text></g></svg>