<?xml version="1.0" encoding="UTF-8" standalone="no"?><svg xmlns="http://www.w3.org/2000/svg" xmlns:xlink="http://www.w3.org/1999/xlink" clip-rule="evenodd" stroke-miterlimit="10" viewBox="0 0 1920 1080"><desc>SVG generated by Keynote</desc><defs></defs><g transform="matrix(1.00, 0.00, -0.00, -1.00, 0.0, 1080.0)"><g><clipPath id="clip0x6180008b43a0"><path d="M 0.0 1080.0 L 1920.0 1080.0 L 1920.0 0.0 L 0.0 0.0 Z M 0.0 1080.0 "></path></clipPath><g clip-path="url(#clip0x6180008b43a0)"><image xlink:href="../../670AF0A5-B06C-45B2-A649-BC83FE98871A/assets/400D38DE9BD779267D8D9BA1A44336F3.jpeg" width="3840.00" height="2160.00" transform="matrix(0.50, 0.00, -0.00, -0.50, 0.0, 1080.0)"></image></g></g><text xml:space="preserve" font-family="GillSans-Light,Gill Sans" font-size="100.0" fill="#525252" transform="matrix(1.00, 0.00, -0.00, -1.00, 323.4, 564.8)">L</text><text xml:space="preserve" font-family="GillSans-Light,Gill Sans" font-size="100.0" fill="#525252" transform="matrix(1.00, 0.00, -0.00, -1.00, 370.4, 564.8)">O</text><text xml:space="preserve" font-family="GillSans-Light,Gill Sans" font-size="100.0" fill="#525252" transform="matrix(1.00, 0.00, -0.00, -1.00, 452.7, 564.8)">O</text><text xml:space="preserve" font-family="GillSans-Light,Gill Sans" font-size="100.0" fill="#525252" transform="matrix(1.00, 0.00, -0.00, -1.00, 535.1, 564.8)">P</text><text xml:space="preserve" font-family="GillSans-Light,Gill Sans" font-size="100.0" fill="#525252" transform="matrix(1.00, 0.00, -0.00, -1.00, 586.0, 564.8)">(</text><text xml:space="preserve" font-family="GillSans-Light,Gill Sans" font-size="100.0" fill="#525252" transform="matrix(1.00, 0.00, -0.00, -1.00, 619.3, 564.8)">)</text><text xml:space="preserve" font-family="GillSans-Light,Gill Sans" font-size="52.0" fill="#525252" transform="matrix(1.00, 0.00, -0.00, -1.00, 73.2, 488.4)">B</text><text xml:space="preserve" font-family="GillSans-Light,Gill Sans" font-size="52.0" fill="#525252" transform="matrix(1.00, 0.00, -0.00, -1.00, 100.8, 488.4)">l</text><text xml:space="preserve" font-family="GillSans-Light,Gill Sans" font-size="52.0" fill="#525252" transform="matrix(1.00, 0.00, -0.00, -1.00, 110.5, 488.4)">o</text><text xml:space="preserve" font-family="GillSans-Light,Gill Sans" font-size="52.0" fill="#525252" transform="matrix(1.00, 0.00, -0.00, -1.00, 138.7, 488.4)">q</text><text xml:space="preserve" font-family="GillSans-Light,Gill Sans" font-size="52.0" fill="#525252" transform="matrix(1.00, 0.00, -0.00, -1.00, 165.2, 488.4)">u</text><text xml:space="preserve" font-family="GillSans-Light,Gill Sans" font-size="52.0" fill="#525252" transform="matrix(1.00, 0.00, -0.00, -1.00, 190.7, 488.4)">e</text><text xml:space="preserve" font-family="GillSans-Light,Gill Sans" font-size="52.0" fill="#525252" transform="matrix(1.00, 0.00, -0.00, -1.00, 215.6, 488.4)"> </text><text xml:space="preserve" font-family="GillSans-Light,Gill Sans" font-size="52.0" fill="#525252" transform="matrix(1.00, 0.00, -0.00, -1.00, 230.1, 488.4)">d</text><text xml:space="preserve" font-family="GillSans-Light,Gill Sans" font-size="52.0" fill="#525252" transform="matrix(1.00, 0.00, -0.00, -1.00, 256.6, 488.4)">e</text><text xml:space="preserve" font-family="GillSans-Light,Gill Sans" font-size="52.0" fill="#525252" transform="matrix(1.00, 0.00, -0.00, -1.00, 281.5, 488.4)"> </text><text xml:space="preserve" font-family="GillSans-Light,Gill Sans" font-size="52.0" fill="#525252" transform="matrix(1.00, 0.00, -0.00, -1.00, 295.9, 488.4)">c</text><text xml:space="preserve" font-family="GillSans-Light,Gill Sans" font-size="52.0" fill="#525252" transform="matrix(1.00, 0.00, -0.00, -1.00, 317.6, 488.4)">รณ</text><text xml:space="preserve" font-family="GillSans-Light,Gill Sans" font-size="52.0" fill="#525252" transform="matrix(1.00, 0.00, -0.00, -1.00, 345.8, 488.4)">d</text><text xml:space="preserve" font-family="GillSans-Light,Gill Sans" font-size="52.0" fill="#525252" transform="matrix(1.00, 0.00, -0.00, -1.00, 372.3, 488.4)">i</text><text xml:space="preserve" font-family="GillSans-Light,Gill Sans" font-size="52.0" fill="#525252" transform="matrix(1.00, 0.00, -0.00, -1.00, 382.0, 488.4)">g</text><text xml:space="preserve" font-family="GillSans-Light,Gill Sans" font-size="52.0" fill="#525252" transform="matrix(1.00, 0.00, -0.00, -1.00, 404.2, 488.4)">o</text><text xml:space="preserve" font-family="GillSans-Light,Gill Sans" font-size="52.0" fill="#525252" transform="matrix(1.00, 0.00, -0.00, -1.00, 432.4, 488.4)"> </text><text xml:space="preserve" font-family="GillSans-Light,Gill Sans" font-size="52.0" fill="#525252" transform="matrix(1.00, 0.00, -0.00, -1.00, 446.8, 488.4)">q</text><text xml:space="preserve" font-family="GillSans-Light,Gill Sans" font-size="52.0" fill="#525252" transform="matrix(1.00, 0.00, -0.00, -1.00, 473.3, 488.4)">u</text><text xml:space="preserve" font-family="GillSans-Light,Gill Sans" font-size="52.0" fill="#525252" transform="matrix(1.00, 0.00, -0.00, -1.00, 498.8, 488.4)">e</text><text xml:space="preserve" font-family="GillSans-Light,Gill Sans" font-size="52.0" fill="#525252" transform="matrix(1.00, 0.00, -0.00, -1.00, 523.8, 488.4)"> </text><text xml:space="preserve" font-family="GillSans-Light,Gill Sans" font-size="52.0" fill="#525252" transform="matrix(1.00, 0.00, -0.00, -1.00, 538.2, 488.4)">s</text><text xml:space="preserve" font-family="GillSans-Light,Gill Sans" font-size="52.0" fill="#525252" transform="matrix(1.00, 0.00, -0.00, -1.00, 556.6, 488.4)">e</text><text xml:space="preserve" font-family="GillSans-Light,Gill Sans" font-size="52.0" fill="#525252" transform="matrix(1.00, 0.00, -0.00, -1.00, 581.5, 488.4)"> </text><text xml:space="preserve" font-family="GillSans-Light,Gill Sans" font-size="52.0" fill="#525252" transform="matrix(1.00, 0.00, -0.00, -1.00, 595.9, 488.4)">e</text><text xml:space="preserve" font-family="GillSans-Light,Gill Sans" font-size="52.0" fill="#525252" transform="matrix(1.00, 0.00, -0.00, -1.00, 620.9, 488.4)">j</text><text xml:space="preserve" font-family="GillSans-Light,Gill Sans" font-size="52.0" fill="#525252" transform="matrix(1.00, 0.00, -0.00, -1.00, 630.6, 488.4)">e</text><text xml:space="preserve" font-family="GillSans-Light,Gill Sans" font-size="52.0" fill="#525252" transform="matrix(1.00, 0.00, -0.00, -1.00, 655.5, 488.4)">c</text><text xml:space="preserve" font-family="GillSans-Light,Gill Sans" font-size="52.0" fill="#525252" transform="matrix(1.00, 0.00, -0.00, -1.00, 677.2, 488.4)">u</text><text xml:space="preserve" font-family="GillSans-Light,Gill Sans" font-size="52.0" fill="#525252" transform="matrix(1.00, 0.00, -0.00, -1.00, 702.7, 488.4)">t</text><text xml:space="preserve" font-family="GillSans-Light,Gill Sans" font-size="52.0" fill="#525252" transform="matrix(1.00, 0.00, -0.00, -1.00, 718.4, 488.4)">a</text><text xml:space="preserve" font-family="GillSans-Light,Gill Sans" font-size="52.0" fill="#525252" transform="matrix(1.00, 0.00, -0.00, -1.00, 740.6, 488.4)"> </text><text xml:space="preserve" font-family="GillSans-Light,Gill Sans" font-size="52.0" fill="#525252" transform="matrix(1.00, 0.00, -0.00, -1.00, 755.0, 488.4)">t</text><text xml:space="preserve" font-family="GillSans-Light,Gill Sans" font-size="52.0" fill="#525252" transform="matrix(1.00, 0.00, -0.00, -1.00, 770.7, 488.4)">o</text><text xml:space="preserve" font-family="GillSans-Light,Gill Sans" font-size="52.0" fill="#525252" transform="matrix(1.00, 0.00, -0.00, -1.00, 798.9, 488.4)">d</text><text xml:space="preserve" font-family="GillSans-Light,Gill Sans" font-size="52.0" fill="#525252" transform="matrix(1.00, 0.00, -0.00, -1.00, 825.4, 488.4)">o</text><text xml:space="preserve" font-family="GillSans-Light,Gill Sans" font-size="52.0" fill="#525252" transform="matrix(1.00, 0.00, -0.00, -1.00, 853.6, 488.4)"> </text><text xml:space="preserve" font-family="GillSans-Light,Gill Sans" font-size="52.0" fill="#525252" transform="matrix(1.00, 0.00, -0.00, -1.00, 868.0, 488.4)">e</text><text xml:space="preserve" font-family="GillSans-Light,Gill Sans" font-size="52.0" fill="#525252" transform="matrix(1.00, 0.00, -0.00, -1.00, 892.9, 488.4)">l</text><text xml:space="preserve" font-family="GillSans-Light,Gill Sans" font-size="52.0" fill="#525252" transform="matrix(1.00, 0.00, -0.00, -1.00, 902.7, 488.4)"> </text><text xml:space="preserve" font-family="GillSans-Light,Gill Sans" font-size="52.0" fill="#525252" transform="matrix(1.00, 0.00, -0.00, -1.00, 415.4, 429.4)">t</text><text xml:space="preserve" font-family="GillSans-Light,Gill Sans" font-size="52.0" fill="#525252" transform="matrix(1.00, 0.00, -0.00, -1.00, 431.1, 429.4)">i</text><text xml:space="preserve" font-family="GillSans-Light,Gill Sans" font-size="52.0" fill="#525252" transform="matrix(1.00, 0.00, -0.00, -1.00, 440.9, 429.4)">e</text><text xml:space="preserve" font-family="GillSans-Light,Gill Sans" font-size="52.0" fill="#525252" transform="matrix(1.00, 0.00, -0.00, -1.00, 465.8, 429.4)">m</text><text xml:space="preserve" font-family="GillSans-Light,Gill Sans" font-size="52.0" fill="#525252" transform="matrix(1.00, 0.00, -0.00, -1.00, 505.9, 429.4)">p</text><text xml:space="preserve" font-family="GillSans-Light,Gill Sans" font-size="52.0" fill="#525252" transform="matrix(1.00, 0.00, -0.00, -1.00, 532.4, 429.4)">o</text><text xml:space="preserve" font-family="UbuntuMono-Regular,Ubuntu Mono" font-size="50.0" fill="#D5943B" transform="matrix(1.00, 0.00, -0.00, -1.00, 1073.0, 648.5)">v</text><text xml:space="preserve" font-family="UbuntuMono-Regular,Ubuntu Mono" font-size="50.0" fill="#D5943B" transform="matrix(1.00, 0.00, -0.00, -1.00, 1098.0, 648.5)">o</text><text xml:space="preserve" font-family="UbuntuMono-Regular,Ubuntu Mono" font-size="50.0" fill="#D5943B" transform="matrix(1.00, 0.00, -0.00, -1.00, 1123.0, 648.5)">i</text><text xml:space="preserve" font-family="UbuntuMono-Regular,Ubuntu Mono" font-size="50.0" fill="#D5943B" transform="matrix(1.00, 0.00, -0.00, -1.00, 1148.0, 648.5)">d</text><text xml:space="preserve" font-family="UbuntuMono-Regular,Ubuntu Mono" font-size="50.0" fill="#525252" transform="matrix(1.00, 0.00, -0.00, -1.00, 1173.0, 648.5)"> </text><text xml:space="preserve" font-family="UbuntuMono-Regular,Ubuntu Mono" font-size="50.0" fill="#D5933A" transform="matrix(1.00, 0.00, -0.00, -1.00, 1198.0, 648.5)">l</text><text xml:space="preserve" font-family="UbuntuMono-Regular,Ubuntu Mono" font-size="50.0" fill="#D5933A" transform="matrix(1.00, 0.00, -0.00, -1.00, 1223.0, 648.5)">o</text><text xml:space="preserve" font-family="UbuntuMono-Regular,Ubuntu Mono" font-size="50.0" fill="#D5933A" transform="matrix(1.00, 0.00, -0.00, -1.00, 1248.0, 648.5)">o</text><text xml:space="preserve" font-family="UbuntuMono-Regular,Ubuntu Mono" font-size="50.0" fill="#D5933A" transform="matrix(1.00, 0.00, -0.00, -1.00, 1273.0, 648.5)">p</text><text xml:space="preserve" font-family="UbuntuMono-Regular,Ubuntu Mono" font-size="50.0" fill="#525252" transform="matrix(1.00, 0.00, -0.00, -1.00, 1298.0, 648.5)">(</text><text xml:space="preserve" font-family="UbuntuMono-Regular,Ubuntu Mono" font-size="50.0" fill="#525252" transform="matrix(1.00, 0.00, -0.00, -1.00, 1323.0, 648.5)">)</text><text xml:space="preserve" font-family="UbuntuMono-Regular,Ubuntu Mono" font-size="50.0" fill="#525252" transform="matrix(1.00, 0.00, -0.00, -1.00, 1348.0, 648.5)"> </text><text xml:space="preserve" font-family="UbuntuMono-Regular,Ubuntu Mono" font-size="50.0" fill="#525252" transform="matrix(1.00, 0.00, -0.00, -1.00, 1373.0, 648.5)">{</text><text xml:space="preserve" font-family="UbuntuMono-Regular,Ubuntu Mono" font-size="50.0" fill="#525252" transform="matrix(1.00, 0.00, -0.00, -1.00, 1398.0, 648.5)"> </text><text xml:space="preserve" font-family="UbuntuMono-Regular,Ubuntu Mono" font-size="50.0" fill="#525252" transform="matrix(1.00, 0.00, -0.00, -1.00, 1073.0, 598.5)"> </text><text xml:space="preserve" font-family="UbuntuMono-Regular,Ubuntu Mono" font-size="50.0" fill="#525252" transform="matrix(1.00, 0.00, -0.00, -1.00, 1098.0, 598.5)"> </text><text xml:space="preserve" font-family="UbuntuMono-Regular,Ubuntu Mono" font-size="50.0" fill="#525252" transform="matrix(1.00, 0.00, -0.00, -1.00, 1123.0, 598.5)"> </text><text xml:space="preserve" font-family="UbuntuMono-Regular,Ubuntu Mono" font-size="50.0" fill="#525252" transform="matrix(1.00, 0.00, -0.00, -1.00, 1148.0, 598.5)"> </text><text xml:space="preserve" font-family="UbuntuMono-Regular,Ubuntu Mono" font-size="50.0" fill="#D5943B" transform="matrix(1.00, 0.00, -0.00, -1.00, 1173.0, 598.5)">d</text><text xml:space="preserve" font-family="UbuntuMono-Regular,Ubuntu Mono" font-size="50.0" fill="#D5943B" transform="matrix(1.00, 0.00, -0.00, -1.00, 1198.0, 598.5)">i</text><text xml:space="preserve" font-family="UbuntuMono-Regular,Ubuntu Mono" font-size="50.0" fill="#D5943B" transform="matrix(1.00, 0.00, -0.00, -1.00, 1223.0, 598.5)">g</text><text xml:space="preserve" font-family="UbuntuMono-Regular,Ubuntu Mono" font-size="50.0" fill="#D5943B" transform="matrix(1.00, 0.00, -0.00, -1.00, 1248.0, 598.5)">i</text><text xml:space="preserve" font-family="UbuntuMono-Regular,Ubuntu Mono" font-size="50.0" fill="#D5943B" transform="matrix(1.00, 0.00, -0.00, -1.00, 1273.0, 598.5)">t</text><text xml:space="preserve" font-family="UbuntuMono-Regular,Ubuntu Mono" font-size="50.0" fill="#D5943B" transform="matrix(1.00, 0.00, -0.00, -1.00, 1298.0, 598.5)">a</text><text xml:space="preserve" font-family="UbuntuMono-Regular,Ubuntu Mono" font-size="50.0" fill="#D5943B" transform="matrix(1.00, 0.00, -0.00, -1.00, 1323.0, 598.5)">l</text><text xml:space="preserve" font-family="UbuntuMono-Regular,Ubuntu Mono" font-size="50.0" fill="#D5943B" transform="matrix(1.00, 0.00, -0.00, -1.00, 1348.0, 598.5)">W</text><text xml:space="preserve" font-family="UbuntuMono-Regular,Ubuntu Mono" font-size="50.0" fill="#D5943B" transform="matrix(1.00, 0.00, -0.00, -1.00, 1373.0, 598.5)">r</text><text xml:space="preserve" font-family="UbuntuMono-Regular,Ubuntu Mono" font-size="50.0" fill="#D5943B" transform="matrix(1.00, 0.00, -0.00, -1.00, 1398.0, 598.5)">i</text><text xml:space="preserve" font-family="UbuntuMono-Regular,Ubuntu Mono" font-size="50.0" fill="#D5943B" transform="matrix(1.00, 0.00, -0.00, -1.00, 1423.0, 598.5)">t</text><text xml:space="preserve" font-family="UbuntuMono-Regular,Ubuntu Mono" font-size="50.0" fill="#D5943B" transform="matrix(1.00, 0.00, -0.00, -1.00, 1448.0, 598.5)">e</text><text xml:space="preserve" font-family="UbuntuMono-Regular,Ubuntu Mono" font-size="50.0" fill="#525252" transform="matrix(1.00, 0.00, -0.00, -1.00, 1473.0, 598.5)">(</text><text xml:space="preserve" font-family="UbuntuMono-Regular,Ubuntu Mono" font-size="50.0" fill="#525252" transform="matrix(1.00, 0.00, -0.00, -1.00, 1498.0, 598.5)">1</text><text xml:space="preserve" font-family="UbuntuMono-Regular,Ubuntu Mono" font-size="50.0" fill="#525252" transform="matrix(1.00, 0.00, -0.00, -1.00, 1523.0, 598.5)">3</text><text xml:space="preserve" font-family="UbuntuMono-Regular,Ubuntu Mono" font-size="50.0" fill="#525252" transform="matrix(1.00, 0.00, -0.00, -1.00, 1548.0, 598.5)">,</text><text xml:space="preserve" font-family="UbuntuMono-Regular,Ubuntu Mono" font-size="50.0" fill="#525252" transform="matrix(1.00, 0.00, -0.00, -1.00, 1573.0, 598.5)"> </text><text xml:space="preserve" font-family="UbuntuMono-Regular,Ubuntu Mono" font-size="50.0" fill="#56BACB" transform="matrix(1.00, 0.00, -0.00, -1.00, 1598.0, 598.5)">H</text><text xml:space="preserve" font-family="UbuntuMono-Regular,Ubuntu Mono" font-size="50.0" fill="#56BACB" transform="matrix(1.00, 0.00, -0.00, -1.00, 1623.0, 598.5)">I</text><text xml:space="preserve" font-family="UbuntuMono-Regular,Ubuntu Mono" font-size="50.0" fill="#56BACB" transform="matrix(1.00, 0.00, -0.00, -1.00, 1648.0, 598.5)">G</text><text xml:space="preserve" font-family="UbuntuMono-Regular,Ubuntu Mono" font-size="50.0" fill="#56BACB" transform="matrix(1.00, 0.00, -0.00, -1.00, 1673.0, 598.5)">H</text><text xml:space="preserve" font-family="UbuntuMono-Regular,Ubuntu Mono" font-size="50.0" fill="#525252" transform="matrix(1.00, 0.00, -0.00, -1.00, 1698.0, 598.5)">)</text><text xml:space="preserve" font-family="UbuntuMono-Regular,Ubuntu Mono" font-size="50.0" fill="#525252" transform="matrix(1.00, 0.00, -0.00, -1.00, 1723.0, 598.5)">;</text><text xml:space="preserve" font-family="UbuntuMono-Regular,Ubuntu Mono" font-size="50.0" fill="#525252" transform="matrix(1.00, 0.00, -0.00, -1.00, 1748.0, 598.5)"> </text><text xml:space="preserve" font-family="UbuntuMono-Regular,Ubuntu Mono" font-size="50.0" fill="#525252" transform="matrix(1.00, 0.00, -0.00, -1.00, 1073.0, 548.5)"> </text><text xml:space="preserve" font-family="UbuntuMono-Regular,Ubuntu Mono" font-size="50.0" fill="#525252" transform="matrix(1.00, 0.00, -0.00, -1.00, 1098.0, 548.5)"> </text><text xml:space="preserve" font-family="UbuntuMono-Regular,Ubuntu Mono" font-size="50.0" fill="#525252" transform="matrix(1.00, 0.00, -0.00, -1.00, 1123.0, 548.5)"> </text><text xml:space="preserve" font-family="UbuntuMono-Regular,Ubuntu Mono" font-size="50.0" fill="#525252" transform="matrix(1.00, 0.00, -0.00, -1.00, 1148.0, 548.5)"> </text><text xml:space="preserve" font-family="UbuntuMono-Regular,Ubuntu Mono" font-size="50.0" fill="#D5943B" transform="matrix(1.00, 0.00, -0.00, -1.00, 1173.0, 548.5)">d</text><text xml:space="preserve" font-family="UbuntuMono-Regular,Ubuntu Mono" font-size="50.0" fill="#D5943B" transform="matrix(1.00, 0.00, -0.00, -1.00, 1198.0, 548.5)">e</text><text xml:space="preserve" font-family="UbuntuMono-Regular,Ubuntu Mono" font-size="50.0" fill="#D5943B" transform="matrix(1.00, 0.00, -0.00, -1.00, 1223.0, 548.5)">l</text><text xml:space="preserve" font-family="UbuntuMono-Regular,Ubuntu Mono" font-size="50.0" fill="#D5943B" transform="matrix(1.00, 0.00, -0.00, -1.00, 1248.0, 548.5)">a</text><text xml:space="preserve" font-family="UbuntuMono-Regular,Ubuntu Mono" font-size="50.0" fill="#D5943B" transform="matrix(1.00, 0.00, -0.00, -1.00, 1273.0, 548.5)">y</text><text xml:space="preserve" font-family="UbuntuMono-Regular,Ubuntu Mono" font-size="50.0" fill="#525252" transform="matrix(1.00, 0.00, -0.00, -1.00, 1298.0, 548.5)">(</text><text xml:space="preserve" font-family="UbuntuMono-Regular,Ubuntu Mono" font-size="50.0" fill="#525252" transform="matrix(1.00, 0.00, -0.00, -1.00, 1323.0, 548.5)">1</text><text xml:space="preserve" font-family="UbuntuMono-Regular,Ubuntu Mono" font-size="50.0" fill="#525252" transform="matrix(1.00, 0.00, -0.00, -1.00, 1348.0, 548.5)">0</text><text xml:space="preserve" font-family="UbuntuMono-Regular,Ubuntu Mono" font-size="50.0" fill="#525252" transform="matrix(1.00, 0.00, -0.00, -1.00, 1373.0, 548.5)">0</text><text xml:space="preserve" font-family="UbuntuMono-Regular,Ubuntu Mono" font-size="50.0" fill="#525252" transform="matrix(1.00, 0.00, -0.00, -1.00, 1398.0, 548.5)">0</text><text xml:space="preserve" font-family="UbuntuMono-Regular,Ubuntu Mono" font-size="50.0" fill="#525252" transform="matrix(1.00, 0.00, -0.00, -1.00, 1423.0, 548.5)">)</text><text xml:space="preserve" font-family="UbuntuMono-Regular,Ubuntu Mono" font-size="50.0" fill="#525252" transform="matrix(1.00, 0.00, -0.00, -1.00, 1448.0, 548.5)">;</text><text xml:space="preserve" font-family="UbuntuMono-Regular,Ubuntu Mono" font-size="50.0" fill="#525252" transform="matrix(1.00, 0.00, -0.00, -1.00, 1473.0, 548.5)"> </text><text xml:space="preserve" font-family="UbuntuMono-Regular,Ubuntu Mono" font-size="50.0" fill="#525252" transform="matrix(1.00, 0.00, -0.00, -1.00, 1073.0, 498.5)"> </text><text xml:space="preserve" font-family="UbuntuMono-Regular,Ubuntu Mono" font-size="50.0" fill="#525252" transform="matrix(1.00, 0.00, -0.00, -1.00, 1098.0, 498.5)"> </text><text xml:space="preserve" font-family="UbuntuMono-Regular,Ubuntu Mono" font-size="50.0" fill="#525252" transform="matrix(1.00, 0.00, -0.00, -1.00, 1123.0, 498.5)"> </text><text xml:space="preserve" font-family="UbuntuMono-Regular,Ubuntu Mono" font-size="50.0" fill="#525252" transform="matrix(1.00, 0.00, -0.00, -1.00, 1148.0, 498.5)"> </text><text xml:space="preserve" font-family="UbuntuMono-Regular,Ubuntu Mono" font-size="50.0" fill="#D5943B" transform="matrix(1.00, 0.00, -0.00, -1.00, 1173.0, 498.5)">d</text><text xml:space="preserve" font-family="UbuntuMono-Regular,Ubuntu Mono" font-size="50.0" fill="#D5943B" transform="matrix(1.00, 0.00, -0.00, -1.00, 1198.0, 498.5)">i</text><text xml:space="preserve" font-family="UbuntuMono-Regular,Ubuntu Mono" font-size="50.0" fill="#D5943B" transform="matrix(1.00, 0.00, -0.00, -1.00, 1223.0, 498.5)">g</text><text xml:space="preserve" font-family="UbuntuMono-Regular,Ubuntu Mono" font-size="50.0" fill="#D5943B" transform="matrix(1.00, 0.00, -0.00, -1.00, 1248.0, 498.5)">i</text><text xml:space="preserve" font-family="UbuntuMono-Regular,Ubuntu Mono" font-size="50.0" fill="#D5943B" transform="matrix(1.00, 0.00, -0.00, -1.00, 1273.0, 498.5)">t</text><text xml:space="preserve" font-family="UbuntuMono-Regular,Ubuntu Mono" font-size="50.0" fill="#D5943B" transform="matrix(1.00, 0.00, -0.00, -1.00, 1298.0, 498.5)">a</text><text xml:space="preserve" font-family="UbuntuMono-Regular,Ubuntu Mono" font-size="50.0" fill="#D5943B" transform="matrix(1.00, 0.00, -0.00, -1.00, 1323.0, 498.5)">l</text><text xml:space="preserve" font-family="UbuntuMono-Regular,Ubuntu Mono" font-size="50.0" fill="#D5943B" transform="matrix(1.00, 0.00, -0.00, -1.00, 1348.0, 498.5)">W</text><text xml:space="preserve" font-family="UbuntuMono-Regular,Ubuntu Mono" font-size="50.0" fill="#D5943B" transform="matrix(1.00, 0.00, -0.00, -1.00, 1373.0, 498.5)">r</text><text xml:space="preserve" font-family="UbuntuMono-Regular,Ubuntu Mono" font-size="50.0" fill="#D5943B" transform="matrix(1.00, 0.00, -0.00, -1.00, 1398.0, 498.5)">i</text><text xml:space="preserve" font-family="UbuntuMono-Regular,Ubuntu Mono" font-size="50.0" fill="#D5943B" transform="matrix(1.00, 0.00, -0.00, -1.00, 1423.0, 498.5)">t</text><text xml:space="preserve" font-family="UbuntuMono-Regular,Ubuntu Mono" font-size="50.0" fill="#D5943B" transform="matrix(1.00, 0.00, -0.00, -1.00, 1448.0, 498.5)">e</text><text xml:space="preserve" font-family="UbuntuMono-Regular,Ubuntu Mono" font-size="50.0" fill="#525252" transform="matrix(1.00, 0.00, -0.00, -1.00, 1473.0, 498.5)">(</text><text xml:space="preserve" font-family="UbuntuMono-Regular,Ubuntu Mono" font-size="50.0" fill="#525252" transform="matrix(1.00, 0.00, -0.00, -1.00, 1498.0, 498.5)">1</text><text xml:space="preserve" font-family="UbuntuMono-Regular,Ubuntu Mono" font-size="50.0" fill="#525252" transform="matrix(1.00, 0.00, -0.00, -1.00, 1523.0, 498.5)">3</text><text xml:space="preserve" font-family="UbuntuMono-Regular,Ubuntu Mono" font-size="50.0" fill="#525252" transform="matrix(1.00, 0.00, -0.00, -1.00, 1548.0, 498.5)">,</text><text xml:space="preserve" font-family="UbuntuMono-Regular,Ubuntu Mono" font-size="50.0" fill="#525252" transform="matrix(1.00, 0.00, -0.00, -1.00, 1573.0, 498.5)"> </text><text xml:space="preserve" font-family="UbuntuMono-Regular,Ubuntu Mono" font-size="50.0" fill="#55BACB" transform="matrix(1.00, 0.00, -0.00, -1.00, 1598.0, 498.5)">L</text><text xml:space="preserve" font-family="UbuntuMono-Regular,Ubuntu Mono" font-size="50.0" fill="#55BACB" transform="matrix(1.00, 0.00, -0.00, -1.00, 1623.0, 498.5)">O</text><text xml:space="preserve" font-family="UbuntuMono-Regular,Ubuntu Mono" font-size="50.0" fill="#55BACB" transform="matrix(1.00, 0.00, -0.00, -1.00, 1648.0, 498.5)">W</text><text xml:space="preserve" font-family="UbuntuMono-Regular,Ubuntu Mono" font-size="50.0" fill="#525252" transform="matrix(1.00, 0.00, -0.00, -1.00, 1673.0, 498.5)">)</text><text xml:space="preserve" font-family="UbuntuMono-Regular,Ubuntu Mono" font-size="50.0" fill="#525252" transform="matrix(1.00, 0.00, -0.00, -1.00, 1698.0, 498.5)">;</text><text xml:space="preserve" font-family="UbuntuMono-Regular,Ubuntu Mono" font-size="50.0" fill="#525252" transform="matrix(1.00, 0.00, -0.00, -1.00, 1723.0, 498.5)"> </text><text xml:space="preserve" font-family="UbuntuMono-Regular,Ubuntu Mono" font-size="50.0" fill="#525252" transform="matrix(1.00, 0.00, -0.00, -1.00, 1073.0, 448.5)"> </text><text xml:space="preserve" font-family="UbuntuMono-Regular,Ubuntu Mono" font-size="50.0" fill="#525252" transform="matrix(1.00, 0.00, -0.00, -1.00, 1098.0, 448.5)"> </text><text xml:space="preserve" font-family="UbuntuMono-Regular,Ubuntu Mono" font-size="50.0" fill="#525252" transform="matrix(1.00, 0.00, -0.00, -1.00, 1123.0, 448.5)"> </text><text xml:space="preserve" font-family="UbuntuMono-Regular,Ubuntu Mono" font-size="50.0" fill="#525252" transform="matrix(1.00, 0.00, -0.00, -1.00, 1148.0, 448.5)"> </text><text xml:space="preserve" font-family="UbuntuMono-Regular,Ubuntu Mono" font-size="50.0" fill="#D5943B" transform="matrix(1.00, 0.00, -0.00, -1.00, 1173.0, 448.5)">d</text><text xml:space="preserve" font-family="UbuntuMono-Regular,Ubuntu Mono" font-size="50.0" fill="#D5943B" transform="matrix(1.00, 0.00, -0.00, -1.00, 1198.0, 448.5)">e</text><text xml:space="preserve" font-family="UbuntuMono-Regular,Ubuntu Mono" font-size="50.0" fill="#D5943B" transform="matrix(1.00, 0.00, -0.00, -1.00, 1223.0, 448.5)">l</text><text xml:space="preserve" font-family="UbuntuMono-Regular,Ubuntu Mono" font-size="50.0" fill="#D5943B" transform="matrix(1.00, 0.00, -0.00, -1.00, 1248.0, 448.5)">a</text><text xml:space="preserve" font-family="UbuntuMono-Regular,Ubuntu Mono" font-size="50.0" fill="#D5943B" transform="matrix(1.00, 0.00, -0.00, -1.00, 1273.0, 448.5)">y</text><text xml:space="preserve" font-family="UbuntuMono-Regular,Ubuntu Mono" font-size="50.0" fill="#525252" transform="matrix(1.00, 0.00, -0.00, -1.00, 1298.0, 448.5)">(</text><text xml:space="preserve" font-family="UbuntuMono-Regular,Ubuntu Mono" font-size="50.0" fill="#525252" transform="matrix(1.00, 0.00, -0.00, -1.00, 1323.0, 448.5)">1</text><text xml:space="preserve" font-family="UbuntuMono-Regular,Ubuntu Mono" font-size="50.0" fill="#525252" transform="matrix(1.00, 0.00, -0.00, -1.00, 1348.0, 448.5)">0</text><text xml:space="preserve" font-family="UbuntuMono-Regular,Ubuntu Mono" font-size="50.0" fill="#525252" transform="matrix(1.00, 0.00, -0.00, -1.00, 1373.0, 448.5)">0</text><text xml:space="preserve" font-family="UbuntuMono-Regular,Ubuntu Mono" font-size="50.0" fill="#525252" transform="matrix(1.00, 0.00, -0.00, -1.00, 1398.0, 448.5)">0</text><text xml:space="preserve" font-family="UbuntuMono-Regular,Ubuntu Mono" font-size="50.0" fill="#525252" transform="matrix(1.00, 0.00, -0.00, -1.00, 1423.0, 448.5)">)</text><text xml:space="preserve" font-family="UbuntuMono-Regular,Ubuntu Mono" font-size="50.0" fill="#525252" transform="matrix(1.00, 0.00, -0.00, -1.00, 1448.0, 448.5)">;</text><text xml:space="preserve" font-family="UbuntuMono-Regular,Ubuntu Mono" font-size="50.0" fill="#525252" transform="matrix(1.00, 0.00, -0.00, -1.00, 1473.0, 448.5)"> </text><text xml:space="preserve" font-family="UbuntuMono-Regular,Ubuntu Mono" font-size="50.0" fill="#525252" transform="matrix(1.00, 0.00, -0.00, -1.00, 1073.0, 398.5)">}</text></g></svg>