<?xml version="1.0" encoding="UTF-8" standalone="no"?><svg xmlns="http://www.w3.org/2000/svg" xmlns:xlink="http://www.w3.org/1999/xlink" clip-rule="evenodd" stroke-miterlimit="10" viewBox="0 0 1920 1080"><desc>SVG generated by Keynote</desc><defs></defs><g transform="matrix(1.00, 0.00, -0.00, -1.00, 0.0, 1080.0)"><g><clipPath id="clip0x6100006b8480"><path d="M 0.0 1080.0 L 1920.0 1080.0 L 1920.0 0.0 L 0.0 0.0 Z M 0.0 1080.0 "></path></clipPath><g clip-path="url(#clip0x6100006b8480)"><image xlink:href="../../670AF0A5-B06C-45B2-A649-BC83FE98871A/assets/400D38DE9BD779267D8D9BA1A44336F3.jpeg" width="3840.00" height="2160.00" transform="matrix(0.50, 0.00, -0.00, -0.50, 0.0, 1080.0)"></image></g></g><text xml:space="preserve" font-family="GillSans-Light,Gill Sans" font-size="100.0" fill="#525252" transform="matrix(1.00, 0.00, -0.00, -1.00, 238.5, 564.8)">P</text><text xml:space="preserve" font-family="GillSans-Light,Gill Sans" font-size="100.0" fill="#525252" transform="matrix(1.00, 0.00, -0.00, -1.00, 289.5, 564.8)">I</text><text xml:space="preserve" font-family="GillSans-Light,Gill Sans" font-size="100.0" fill="#525252" transform="matrix(1.00, 0.00, -0.00, -1.00, 310.3, 564.8)">N</text><text xml:space="preserve" font-family="GillSans-Light,Gill Sans" font-size="100.0" fill="#525252" transform="matrix(1.00, 0.00, -0.00, -1.00, 387.4, 564.8)">M</text><text xml:space="preserve" font-family="GillSans-Light,Gill Sans" font-size="100.0" fill="#525252" transform="matrix(1.00, 0.00, -0.00, -1.00, 465.5, 564.8)">O</text><text xml:space="preserve" font-family="GillSans-Light,Gill Sans" font-size="100.0" fill="#525252" transform="matrix(1.00, 0.00, -0.00, -1.00, 547.8, 564.8)">D</text><text xml:space="preserve" font-family="GillSans-Light,Gill Sans" font-size="100.0" fill="#525252" transform="matrix(1.00, 0.00, -0.00, -1.00, 621.8, 564.8)">E</text><text xml:space="preserve" font-family="GillSans-Light,Gill Sans" font-size="100.0" fill="#525252" transform="matrix(1.00, 0.00, -0.00, -1.00, 670.9, 564.8)">(</text><text xml:space="preserve" font-family="GillSans-Light,Gill Sans" font-size="100.0" fill="#525252" transform="matrix(1.00, 0.00, -0.00, -1.00, 704.2, 564.8)">)</text><text xml:space="preserve" font-family="GillSans-Light,Gill Sans" font-size="52.0" fill="#525252" transform="matrix(1.00, 0.00, -0.00, -1.00, 135.1, 488.4)">F</text><text xml:space="preserve" font-family="GillSans-Light,Gill Sans" font-size="52.0" fill="#525252" transform="matrix(1.00, 0.00, -0.00, -1.00, 157.8, 488.4)">u</text><text xml:space="preserve" font-family="GillSans-Light,Gill Sans" font-size="52.0" fill="#525252" transform="matrix(1.00, 0.00, -0.00, -1.00, 183.3, 488.4)">n</text><text xml:space="preserve" font-family="GillSans-Light,Gill Sans" font-size="52.0" fill="#525252" transform="matrix(1.00, 0.00, -0.00, -1.00, 208.9, 488.4)">c</text><text xml:space="preserve" font-family="GillSans-Light,Gill Sans" font-size="52.0" fill="#525252" transform="matrix(1.00, 0.00, -0.00, -1.00, 230.5, 488.4)">i</text><text xml:space="preserve" font-family="GillSans-Light,Gill Sans" font-size="52.0" fill="#525252" transform="matrix(1.00, 0.00, -0.00, -1.00, 240.3, 488.4)">ó</text><text xml:space="preserve" font-family="GillSans-Light,Gill Sans" font-size="52.0" fill="#525252" transform="matrix(1.00, 0.00, -0.00, -1.00, 268.5, 488.4)">n</text><text xml:space="preserve" font-family="GillSans-Light,Gill Sans" font-size="52.0" fill="#525252" transform="matrix(1.00, 0.00, -0.00, -1.00, 294.0, 488.4)"> </text><text xml:space="preserve" font-family="GillSans-Light,Gill Sans" font-size="52.0" fill="#525252" transform="matrix(1.00, 0.00, -0.00, -1.00, 308.4, 488.4)">q</text><text xml:space="preserve" font-family="GillSans-Light,Gill Sans" font-size="52.0" fill="#525252" transform="matrix(1.00, 0.00, -0.00, -1.00, 334.9, 488.4)">u</text><text xml:space="preserve" font-family="GillSans-Light,Gill Sans" font-size="52.0" fill="#525252" transform="matrix(1.00, 0.00, -0.00, -1.00, 360.4, 488.4)">e</text><text xml:space="preserve" font-family="GillSans-Light,Gill Sans" font-size="52.0" fill="#525252" transform="matrix(1.00, 0.00, -0.00, -1.00, 385.3, 488.4)"> </text><text xml:space="preserve" font-family="GillSans-Light,Gill Sans" font-size="52.0" fill="#525252" transform="matrix(1.00, 0.00, -0.00, -1.00, 399.8, 488.4)">c</text><text xml:space="preserve" font-family="GillSans-Light,Gill Sans" font-size="52.0" fill="#525252" transform="matrix(1.00, 0.00, -0.00, -1.00, 421.5, 488.4)">o</text><text xml:space="preserve" font-family="GillSans-Light,Gill Sans" font-size="52.0" fill="#525252" transform="matrix(1.00, 0.00, -0.00, -1.00, 449.6, 488.4)">n</text><text xml:space="preserve" font-family="GillSans-Light,Gill Sans" font-size="52.0" fill="#525252" transform="matrix(1.00, 0.00, -0.00, -1.00, 475.1, 488.4)">ﬁ</text><text xml:space="preserve" font-family="GillSans-Light,Gill Sans" font-size="52.0" fill="#525252" transform="matrix(1.00, 0.00, -0.00, -1.00, 500.1, 488.4)">g</text><text xml:space="preserve" font-family="GillSans-Light,Gill Sans" font-size="52.0" fill="#525252" transform="matrix(1.00, 0.00, -0.00, -1.00, 522.2, 488.4)">u</text><text xml:space="preserve" font-family="GillSans-Light,Gill Sans" font-size="52.0" fill="#525252" transform="matrix(1.00, 0.00, -0.00, -1.00, 547.7, 488.4)">r</text><text xml:space="preserve" font-family="GillSans-Light,Gill Sans" font-size="52.0" fill="#525252" transform="matrix(1.00, 0.00, -0.00, -1.00, 566.4, 488.4)">a</text><text xml:space="preserve" font-family="GillSans-Light,Gill Sans" font-size="52.0" fill="#525252" transform="matrix(1.00, 0.00, -0.00, -1.00, 588.5, 488.4)"> </text><text xml:space="preserve" font-family="GillSans-Light,Gill Sans" font-size="52.0" fill="#525252" transform="matrix(1.00, 0.00, -0.00, -1.00, 603.0, 488.4)">e</text><text xml:space="preserve" font-family="GillSans-Light,Gill Sans" font-size="52.0" fill="#525252" transform="matrix(1.00, 0.00, -0.00, -1.00, 627.9, 488.4)">l</text><text xml:space="preserve" font-family="GillSans-Light,Gill Sans" font-size="52.0" fill="#525252" transform="matrix(1.00, 0.00, -0.00, -1.00, 637.7, 488.4)"> </text><text xml:space="preserve" font-family="GillSans-Light,Gill Sans" font-size="52.0" fill="#525252" transform="matrix(1.00, 0.00, -0.00, -1.00, 652.1, 488.4)">m</text><text xml:space="preserve" font-family="GillSans-Light,Gill Sans" font-size="52.0" fill="#525252" transform="matrix(1.00, 0.00, -0.00, -1.00, 692.2, 488.4)">o</text><text xml:space="preserve" font-family="GillSans-Light,Gill Sans" font-size="52.0" fill="#525252" transform="matrix(1.00, 0.00, -0.00, -1.00, 720.4, 488.4)">d</text><text xml:space="preserve" font-family="GillSans-Light,Gill Sans" font-size="52.0" fill="#525252" transform="matrix(1.00, 0.00, -0.00, -1.00, 746.9, 488.4)">o</text><text xml:space="preserve" font-family="GillSans-Light,Gill Sans" font-size="52.0" fill="#525252" transform="matrix(1.00, 0.00, -0.00, -1.00, 775.0, 488.4)"> </text><text xml:space="preserve" font-family="GillSans-Light,Gill Sans" font-size="52.0" fill="#525252" transform="matrix(1.00, 0.00, -0.00, -1.00, 789.5, 488.4)">d</text><text xml:space="preserve" font-family="GillSans-Light,Gill Sans" font-size="52.0" fill="#525252" transform="matrix(1.00, 0.00, -0.00, -1.00, 816.0, 488.4)">e</text><text xml:space="preserve" font-family="GillSans-Light,Gill Sans" font-size="52.0" fill="#525252" transform="matrix(1.00, 0.00, -0.00, -1.00, 840.9, 488.4)"> </text><text xml:space="preserve" font-family="GillSans-Light,Gill Sans" font-size="52.0" fill="#525252" transform="matrix(1.00, 0.00, -0.00, -1.00, 222.2, 429.4)">f</text><text xml:space="preserve" font-family="GillSans-Light,Gill Sans" font-size="52.0" fill="#525252" transform="matrix(1.00, 0.00, -0.00, -1.00, 234.7, 429.4)">u</text><text xml:space="preserve" font-family="GillSans-Light,Gill Sans" font-size="52.0" fill="#525252" transform="matrix(1.00, 0.00, -0.00, -1.00, 260.2, 429.4)">n</text><text xml:space="preserve" font-family="GillSans-Light,Gill Sans" font-size="52.0" fill="#525252" transform="matrix(1.00, 0.00, -0.00, -1.00, 285.7, 429.4)">c</text><text xml:space="preserve" font-family="GillSans-Light,Gill Sans" font-size="52.0" fill="#525252" transform="matrix(1.00, 0.00, -0.00, -1.00, 307.4, 429.4)">i</text><text xml:space="preserve" font-family="GillSans-Light,Gill Sans" font-size="52.0" fill="#525252" transform="matrix(1.00, 0.00, -0.00, -1.00, 317.1, 429.4)">o</text><text xml:space="preserve" font-family="GillSans-Light,Gill Sans" font-size="52.0" fill="#525252" transform="matrix(1.00, 0.00, -0.00, -1.00, 345.3, 429.4)">n</text><text xml:space="preserve" font-family="GillSans-Light,Gill Sans" font-size="52.0" fill="#525252" transform="matrix(1.00, 0.00, -0.00, -1.00, 370.8, 429.4)">a</text><text xml:space="preserve" font-family="GillSans-Light,Gill Sans" font-size="52.0" fill="#525252" transform="matrix(1.00, 0.00, -0.00, -1.00, 393.0, 429.4)">m</text><text xml:space="preserve" font-family="GillSans-Light,Gill Sans" font-size="52.0" fill="#525252" transform="matrix(1.00, 0.00, -0.00, -1.00, 433.1, 429.4)">i</text><text xml:space="preserve" font-family="GillSans-Light,Gill Sans" font-size="52.0" fill="#525252" transform="matrix(1.00, 0.00, -0.00, -1.00, 442.9, 429.4)">e</text><text xml:space="preserve" font-family="GillSans-Light,Gill Sans" font-size="52.0" fill="#525252" transform="matrix(1.00, 0.00, -0.00, -1.00, 467.8, 429.4)">n</text><text xml:space="preserve" font-family="GillSans-Light,Gill Sans" font-size="52.0" fill="#525252" transform="matrix(1.00, 0.00, -0.00, -1.00, 493.3, 429.4)">t</text><text xml:space="preserve" font-family="GillSans-Light,Gill Sans" font-size="52.0" fill="#525252" transform="matrix(1.00, 0.00, -0.00, -1.00, 509.0, 429.4)">o</text><text xml:space="preserve" font-family="GillSans-Light,Gill Sans" font-size="52.0" fill="#525252" transform="matrix(1.00, 0.00, -0.00, -1.00, 537.1, 429.4)"> </text><text xml:space="preserve" font-family="GillSans-Light,Gill Sans" font-size="52.0" fill="#525252" transform="matrix(1.00, 0.00, -0.00, -1.00, 551.6, 429.4)">d</text><text xml:space="preserve" font-family="GillSans-Light,Gill Sans" font-size="52.0" fill="#525252" transform="matrix(1.00, 0.00, -0.00, -1.00, 578.1, 429.4)">e</text><text xml:space="preserve" font-family="GillSans-Light,Gill Sans" font-size="52.0" fill="#525252" transform="matrix(1.00, 0.00, -0.00, -1.00, 603.0, 429.4)"> </text><text xml:space="preserve" font-family="GillSans-Light,Gill Sans" font-size="52.0" fill="#525252" transform="matrix(1.00, 0.00, -0.00, -1.00, 617.4, 429.4)">u</text><text xml:space="preserve" font-family="GillSans-Light,Gill Sans" font-size="52.0" fill="#525252" transform="matrix(1.00, 0.00, -0.00, -1.00, 642.9, 429.4)">n</text><text xml:space="preserve" font-family="GillSans-Light,Gill Sans" font-size="52.0" fill="#525252" transform="matrix(1.00, 0.00, -0.00, -1.00, 668.4, 429.4)"> </text><text xml:space="preserve" font-family="GillSans-Light,Gill Sans" font-size="52.0" fill="#525252" transform="matrix(1.00, 0.00, -0.00, -1.00, 682.9, 429.4)">p</text><text xml:space="preserve" font-family="GillSans-Light,Gill Sans" font-size="52.0" fill="#525252" transform="matrix(1.00, 0.00, -0.00, -1.00, 709.4, 429.4)">i</text><text xml:space="preserve" font-family="GillSans-Light,Gill Sans" font-size="52.0" fill="#525252" transform="matrix(1.00, 0.00, -0.00, -1.00, 719.1, 429.4)">n</text><text xml:space="preserve" font-family="GillSans-Light,Gill Sans" font-size="52.0" fill="#525252" transform="matrix(1.00, 0.00, -0.00, -1.00, 744.6, 429.4)">.</text><text xml:space="preserve" font-family="GillSans-Light,Gill Sans" font-size="52.0" fill="#525252" transform="matrix(1.00, 0.00, -0.00, -1.00, 185.3, 370.4)">P</text><text xml:space="preserve" font-family="GillSans-Light,Gill Sans" font-size="52.0" fill="#525252" transform="matrix(1.00, 0.00, -0.00, -1.00, 211.8, 370.4)">I</text><text xml:space="preserve" font-family="GillSans-Light,Gill Sans" font-size="52.0" fill="#525252" transform="matrix(1.00, 0.00, -0.00, -1.00, 222.6, 370.4)">N</text><text xml:space="preserve" font-family="GillSans-Light,Gill Sans" font-size="52.0" fill="#525252" transform="matrix(1.00, 0.00, -0.00, -1.00, 262.7, 370.4)">:</text><text xml:space="preserve" font-family="GillSans-Light,Gill Sans" font-size="52.0" fill="#525252" transform="matrix(1.00, 0.00, -0.00, -1.00, 267.7, 370.4)"> </text><text xml:space="preserve" font-family="GillSans-Light,Gill Sans" font-size="52.0" fill="#525252" transform="matrix(1.00, 0.00, -0.00, -1.00, 282.2, 370.4)">e</text><text xml:space="preserve" font-family="GillSans-Light,Gill Sans" font-size="52.0" fill="#525252" transform="matrix(1.00, 0.00, -0.00, -1.00, 307.1, 370.4)">l</text><text xml:space="preserve" font-family="GillSans-Light,Gill Sans" font-size="52.0" fill="#525252" transform="matrix(1.00, 0.00, -0.00, -1.00, 316.9, 370.4)"> </text><text xml:space="preserve" font-family="GillSans-Light,Gill Sans" font-size="52.0" fill="#525252" transform="matrix(1.00, 0.00, -0.00, -1.00, 331.3, 370.4)">n</text><text xml:space="preserve" font-family="GillSans-Light,Gill Sans" font-size="52.0" fill="#525252" transform="matrix(1.00, 0.00, -0.00, -1.00, 356.8, 370.4)">ú</text><text xml:space="preserve" font-family="GillSans-Light,Gill Sans" font-size="52.0" fill="#525252" transform="matrix(1.00, 0.00, -0.00, -1.00, 382.3, 370.4)">m</text><text xml:space="preserve" font-family="GillSans-Light,Gill Sans" font-size="52.0" fill="#525252" transform="matrix(1.00, 0.00, -0.00, -1.00, 422.4, 370.4)">e</text><text xml:space="preserve" font-family="GillSans-Light,Gill Sans" font-size="52.0" fill="#525252" transform="matrix(1.00, 0.00, -0.00, -1.00, 447.3, 370.4)">r</text><text xml:space="preserve" font-family="GillSans-Light,Gill Sans" font-size="52.0" fill="#525252" transform="matrix(1.00, 0.00, -0.00, -1.00, 464.6, 370.4)">o</text><text xml:space="preserve" font-family="GillSans-Light,Gill Sans" font-size="52.0" fill="#525252" transform="matrix(1.00, 0.00, -0.00, -1.00, 492.8, 370.4)"> </text><text xml:space="preserve" font-family="GillSans-Light,Gill Sans" font-size="52.0" fill="#525252" transform="matrix(1.00, 0.00, -0.00, -1.00, 507.2, 370.4)">d</text><text xml:space="preserve" font-family="GillSans-Light,Gill Sans" font-size="52.0" fill="#525252" transform="matrix(1.00, 0.00, -0.00, -1.00, 533.7, 370.4)">e</text><text xml:space="preserve" font-family="GillSans-Light,Gill Sans" font-size="52.0" fill="#525252" transform="matrix(1.00, 0.00, -0.00, -1.00, 558.6, 370.4)">l</text><text xml:space="preserve" font-family="GillSans-Light,Gill Sans" font-size="52.0" fill="#525252" transform="matrix(1.00, 0.00, -0.00, -1.00, 568.4, 370.4)"> </text><text xml:space="preserve" font-family="GillSans-Light,Gill Sans" font-size="52.0" fill="#525252" transform="matrix(1.00, 0.00, -0.00, -1.00, 582.9, 370.4)">P</text><text xml:space="preserve" font-family="GillSans-Light,Gill Sans" font-size="52.0" fill="#525252" transform="matrix(1.00, 0.00, -0.00, -1.00, 609.4, 370.4)">I</text><text xml:space="preserve" font-family="GillSans-Light,Gill Sans" font-size="52.0" fill="#525252" transform="matrix(1.00, 0.00, -0.00, -1.00, 620.2, 370.4)">N</text><text xml:space="preserve" font-family="GillSans-Light,Gill Sans" font-size="52.0" fill="#525252" transform="matrix(1.00, 0.00, -0.00, -1.00, 660.3, 370.4)"> </text><text xml:space="preserve" font-family="GillSans-Light,Gill Sans" font-size="52.0" fill="#525252" transform="matrix(1.00, 0.00, -0.00, -1.00, 674.7, 370.4)">d</text><text xml:space="preserve" font-family="GillSans-Light,Gill Sans" font-size="52.0" fill="#525252" transform="matrix(1.00, 0.00, -0.00, -1.00, 701.2, 370.4)">i</text><text xml:space="preserve" font-family="GillSans-Light,Gill Sans" font-size="52.0" fill="#525252" transform="matrix(1.00, 0.00, -0.00, -1.00, 711.0, 370.4)">g</text><text xml:space="preserve" font-family="GillSans-Light,Gill Sans" font-size="52.0" fill="#525252" transform="matrix(1.00, 0.00, -0.00, -1.00, 733.2, 370.4)">i</text><text xml:space="preserve" font-family="GillSans-Light,Gill Sans" font-size="52.0" fill="#525252" transform="matrix(1.00, 0.00, -0.00, -1.00, 742.9, 370.4)">t</text><text xml:space="preserve" font-family="GillSans-Light,Gill Sans" font-size="52.0" fill="#525252" transform="matrix(1.00, 0.00, -0.00, -1.00, 758.6, 370.4)">a</text><text xml:space="preserve" font-family="GillSans-Light,Gill Sans" font-size="52.0" fill="#525252" transform="matrix(1.00, 0.00, -0.00, -1.00, 780.8, 370.4)">l</text><text xml:space="preserve" font-family="GillSans-Light,Gill Sans" font-size="52.0" fill="#525252" transform="matrix(1.00, 0.00, -0.00, -1.00, 114.3, 311.4)">M</text><text xml:space="preserve" font-family="GillSans-Light,Gill Sans" font-size="52.0" fill="#525252" transform="matrix(1.00, 0.00, -0.00, -1.00, 154.9, 311.4)">O</text><text xml:space="preserve" font-family="GillSans-Light,Gill Sans" font-size="52.0" fill="#525252" transform="matrix(1.00, 0.00, -0.00, -1.00, 197.7, 311.4)">D</text><text xml:space="preserve" font-family="GillSans-Light,Gill Sans" font-size="52.0" fill="#525252" transform="matrix(1.00, 0.00, -0.00, -1.00, 236.2, 311.4)">E</text><text xml:space="preserve" font-family="GillSans-Light,Gill Sans" font-size="52.0" fill="#525252" transform="matrix(1.00, 0.00, -0.00, -1.00, 261.7, 311.4)">:</text><text xml:space="preserve" font-family="GillSans-Light,Gill Sans" font-size="52.0" fill="#525252" transform="matrix(1.00, 0.00, -0.00, -1.00, 266.7, 311.4)"> </text><text xml:space="preserve" font-family="GillSans-Light,Gill Sans" font-size="52.0" fill="#525252" transform="matrix(1.00, 0.00, -0.00, -1.00, 281.2, 311.4)">E</text><text xml:space="preserve" font-family="GillSans-Light,Gill Sans" font-size="52.0" fill="#525252" transform="matrix(1.00, 0.00, -0.00, -1.00, 306.7, 311.4)">l</text><text xml:space="preserve" font-family="GillSans-Light,Gill Sans" font-size="52.0" fill="#525252" transform="matrix(1.00, 0.00, -0.00, -1.00, 316.5, 311.4)"> </text><text xml:space="preserve" font-family="GillSans-Light,Gill Sans" font-size="52.0" fill="#525252" transform="matrix(1.00, 0.00, -0.00, -1.00, 330.9, 311.4)">t</text><text xml:space="preserve" font-family="GillSans-Light,Gill Sans" font-size="52.0" fill="#525252" transform="matrix(1.00, 0.00, -0.00, -1.00, 346.6, 311.4)">i</text><text xml:space="preserve" font-family="GillSans-Light,Gill Sans" font-size="52.0" fill="#525252" transform="matrix(1.00, 0.00, -0.00, -1.00, 356.4, 311.4)">p</text><text xml:space="preserve" font-family="GillSans-Light,Gill Sans" font-size="52.0" fill="#525252" transform="matrix(1.00, 0.00, -0.00, -1.00, 382.8, 311.4)">o</text><text xml:space="preserve" font-family="GillSans-Light,Gill Sans" font-size="52.0" fill="#525252" transform="matrix(1.00, 0.00, -0.00, -1.00, 411.0, 311.4)"> </text><text xml:space="preserve" font-family="GillSans-Light,Gill Sans" font-size="52.0" fill="#525252" transform="matrix(1.00, 0.00, -0.00, -1.00, 425.5, 311.4)">d</text><text xml:space="preserve" font-family="GillSans-Light,Gill Sans" font-size="52.0" fill="#525252" transform="matrix(1.00, 0.00, -0.00, -1.00, 452.0, 311.4)">e</text><text xml:space="preserve" font-family="GillSans-Light,Gill Sans" font-size="52.0" fill="#525252" transform="matrix(1.00, 0.00, -0.00, -1.00, 476.9, 311.4)"> </text><text xml:space="preserve" font-family="GillSans-Light,Gill Sans" font-size="52.0" fill="#525252" transform="matrix(1.00, 0.00, -0.00, -1.00, 491.3, 311.4)">c</text><text xml:space="preserve" font-family="GillSans-Light,Gill Sans" font-size="52.0" fill="#525252" transform="matrix(1.00, 0.00, -0.00, -1.00, 513.0, 311.4)">o</text><text xml:space="preserve" font-family="GillSans-Light,Gill Sans" font-size="52.0" fill="#525252" transform="matrix(1.00, 0.00, -0.00, -1.00, 541.2, 311.4)">n</text><text xml:space="preserve" font-family="GillSans-Light,Gill Sans" font-size="52.0" fill="#525252" transform="matrix(1.00, 0.00, -0.00, -1.00, 566.7, 311.4)">e</text><text xml:space="preserve" font-family="GillSans-Light,Gill Sans" font-size="52.0" fill="#525252" transform="matrix(1.00, 0.00, -0.00, -1.00, 591.6, 311.4)">x</text><text xml:space="preserve" font-family="GillSans-Light,Gill Sans" font-size="52.0" fill="#525252" transform="matrix(1.00, 0.00, -0.00, -1.00, 616.5, 311.4)">i</text><text xml:space="preserve" font-family="GillSans-Light,Gill Sans" font-size="52.0" fill="#525252" transform="matrix(1.00, 0.00, -0.00, -1.00, 626.3, 311.4)">ó</text><text xml:space="preserve" font-family="GillSans-Light,Gill Sans" font-size="52.0" fill="#525252" transform="matrix(1.00, 0.00, -0.00, -1.00, 654.5, 311.4)">n</text><text xml:space="preserve" font-family="GillSans-Light,Gill Sans" font-size="52.0" fill="#525252" transform="matrix(1.00, 0.00, -0.00, -1.00, 680.0, 311.4)"> </text><text xml:space="preserve" font-family="GillSans-LightItalic,Gill Sans" font-style="italic" font-size="52.0" fill="#525252" transform="matrix(1.00, 0.00, -0.00, -1.00, 694.4, 311.4)">I</text><text xml:space="preserve" font-family="GillSans-LightItalic,Gill Sans" font-style="italic" font-size="52.0" fill="#525252" transform="matrix(1.00, 0.00, -0.00, -1.00, 704.8, 311.4)">N</text><text xml:space="preserve" font-family="GillSans-LightItalic,Gill Sans" font-style="italic" font-size="52.0" fill="#525252" transform="matrix(1.00, 0.00, -0.00, -1.00, 740.5, 311.4)">P</text><text xml:space="preserve" font-family="GillSans-LightItalic,Gill Sans" font-style="italic" font-size="52.0" fill="#525252" transform="matrix(1.00, 0.00, -0.00, -1.00, 764.9, 311.4)">U</text><text xml:space="preserve" font-family="GillSans-LightItalic,Gill Sans" font-style="italic" font-size="52.0" fill="#525252" transform="matrix(1.00, 0.00, -0.00, -1.00, 797.9, 311.4)">T</text><text xml:space="preserve" font-family="GillSans-Light,Gill Sans" font-size="52.0" fill="#525252" transform="matrix(1.00, 0.00, -0.00, -1.00, 821.7, 311.4)"> </text><text xml:space="preserve" font-family="GillSans-Light,Gill Sans" font-size="52.0" fill="#525252" transform="matrix(1.00, 0.00, -0.00, -1.00, 836.2, 311.4)">u</text><text xml:space="preserve" font-family="GillSans-Light,Gill Sans" font-size="52.0" fill="#525252" transform="matrix(1.00, 0.00, -0.00, -1.00, 861.7, 311.4)"> </text><text xml:space="preserve" font-family="GillSans-LightItalic,Gill Sans" font-style="italic" font-size="52.0" fill="#525252" transform="matrix(1.00, 0.00, -0.00, -1.00, 401.9, 252.4)">O</text><text xml:space="preserve" font-family="GillSans-LightItalic,Gill Sans" font-style="italic" font-size="52.0" fill="#525252" transform="matrix(1.00, 0.00, -0.00, -1.00, 436.0, 252.4)">U</text><text xml:space="preserve" font-family="GillSans-LightItalic,Gill Sans" font-style="italic" font-size="52.0" fill="#525252" transform="matrix(1.00, 0.00, -0.00, -1.00, 469.0, 252.4)">T</text><text xml:space="preserve" font-family="GillSans-LightItalic,Gill Sans" font-style="italic" font-size="52.0" fill="#525252" transform="matrix(1.00, 0.00, -0.00, -1.00, 492.8, 252.4)">P</text><text xml:space="preserve" font-family="GillSans-LightItalic,Gill Sans" font-style="italic" font-size="52.0" fill="#525252" transform="matrix(1.00, 0.00, -0.00, -1.00, 517.2, 252.4)">U</text><text xml:space="preserve" font-family="GillSans-LightItalic,Gill Sans" font-style="italic" font-size="52.0" fill="#525252" transform="matrix(1.00, 0.00, -0.00, -1.00, 550.2, 252.4)">T</text><text xml:space="preserve" font-family="UbuntuMono-Regular,Ubuntu Mono" font-size="50.0" fill="#D5943B" transform="matrix(1.00, 0.00, -0.00, -1.00, 1073.0, 623.5)">v</text><text xml:space="preserve" font-family="UbuntuMono-Regular,Ubuntu Mono" font-size="50.0" fill="#D5943B" transform="matrix(1.00, 0.00, -0.00, -1.00, 1098.0, 623.5)">o</text><text xml:space="preserve" font-family="UbuntuMono-Regular,Ubuntu Mono" font-size="50.0" fill="#D5943B" transform="matrix(1.00, 0.00, -0.00, -1.00, 1123.0, 623.5)">i</text><text xml:space="preserve" font-family="UbuntuMono-Regular,Ubuntu Mono" font-size="50.0" fill="#D5943B" transform="matrix(1.00, 0.00, -0.00, -1.00, 1148.0, 623.5)">d</text><text xml:space="preserve" font-family="UbuntuMono-Regular,Ubuntu Mono" font-size="50.0" fill="#525252" transform="matrix(1.00, 0.00, -0.00, -1.00, 1173.0, 623.5)"> </text><text xml:space="preserve" font-family="UbuntuMono-Regular,Ubuntu Mono" font-size="50.0" fill="#D5933A" transform="matrix(1.00, 0.00, -0.00, -1.00, 1198.0, 623.5)">s</text><text xml:space="preserve" font-family="UbuntuMono-Regular,Ubuntu Mono" font-size="50.0" fill="#D5933A" transform="matrix(1.00, 0.00, -0.00, -1.00, 1223.0, 623.5)">e</text><text xml:space="preserve" font-family="UbuntuMono-Regular,Ubuntu Mono" font-size="50.0" fill="#D5933A" transform="matrix(1.00, 0.00, -0.00, -1.00, 1248.0, 623.5)">t</text><text xml:space="preserve" font-family="UbuntuMono-Regular,Ubuntu Mono" font-size="50.0" fill="#D5933A" transform="matrix(1.00, 0.00, -0.00, -1.00, 1273.0, 623.5)">u</text><text xml:space="preserve" font-family="UbuntuMono-Regular,Ubuntu Mono" font-size="50.0" fill="#D5933A" transform="matrix(1.00, 0.00, -0.00, -1.00, 1298.0, 623.5)">p</text><text xml:space="preserve" font-family="UbuntuMono-Regular,Ubuntu Mono" font-size="50.0" fill="#525252" transform="matrix(1.00, 0.00, -0.00, -1.00, 1323.0, 623.5)">(</text><text xml:space="preserve" font-family="UbuntuMono-Regular,Ubuntu Mono" font-size="50.0" fill="#525252" transform="matrix(1.00, 0.00, -0.00, -1.00, 1348.0, 623.5)">)</text><text xml:space="preserve" font-family="UbuntuMono-Regular,Ubuntu Mono" font-size="50.0" fill="#525252" transform="matrix(1.00, 0.00, -0.00, -1.00, 1373.0, 623.5)"> </text><text xml:space="preserve" font-family="UbuntuMono-Regular,Ubuntu Mono" font-size="50.0" fill="#525252" transform="matrix(1.00, 0.00, -0.00, -1.00, 1398.0, 623.5)">{</text><text xml:space="preserve" font-family="UbuntuMono-Regular,Ubuntu Mono" font-size="50.0" fill="#525252" transform="matrix(1.00, 0.00, -0.00, -1.00, 1423.0, 623.5)"> </text><text xml:space="preserve" font-family="UbuntuMono-Regular,Ubuntu Mono" font-size="50.0" fill="#525252" transform="matrix(1.00, 0.00, -0.00, -1.00, 1073.0, 573.5)"> </text><text xml:space="preserve" font-family="UbuntuMono-Regular,Ubuntu Mono" font-size="50.0" fill="#525252" transform="matrix(1.00, 0.00, -0.00, -1.00, 1098.0, 573.5)"> </text><text xml:space="preserve" font-family="UbuntuMono-Regular,Ubuntu Mono" font-size="50.0" fill="#525252" transform="matrix(1.00, 0.00, -0.00, -1.00, 1123.0, 573.5)"> </text><text xml:space="preserve" font-family="UbuntuMono-Regular,Ubuntu Mono" font-size="50.0" fill="#525252" transform="matrix(1.00, 0.00, -0.00, -1.00, 1148.0, 573.5)"> </text><text xml:space="preserve" font-family="UbuntuMono-Regular,Ubuntu Mono" font-size="50.0" fill="#D5943B" transform="matrix(1.00, 0.00, -0.00, -1.00, 1173.0, 573.5)">p</text><text xml:space="preserve" font-family="UbuntuMono-Regular,Ubuntu Mono" font-size="50.0" fill="#D5943B" transform="matrix(1.00, 0.00, -0.00, -1.00, 1198.0, 573.5)">i</text><text xml:space="preserve" font-family="UbuntuMono-Regular,Ubuntu Mono" font-size="50.0" fill="#D5943B" transform="matrix(1.00, 0.00, -0.00, -1.00, 1223.0, 573.5)">n</text><text xml:space="preserve" font-family="UbuntuMono-Regular,Ubuntu Mono" font-size="50.0" fill="#D5943B" transform="matrix(1.00, 0.00, -0.00, -1.00, 1248.0, 573.5)">M</text><text xml:space="preserve" font-family="UbuntuMono-Regular,Ubuntu Mono" font-size="50.0" fill="#D5943B" transform="matrix(1.00, 0.00, -0.00, -1.00, 1273.0, 573.5)">o</text><text xml:space="preserve" font-family="UbuntuMono-Regular,Ubuntu Mono" font-size="50.0" fill="#D5943B" transform="matrix(1.00, 0.00, -0.00, -1.00, 1298.0, 573.5)">d</text><text xml:space="preserve" font-family="UbuntuMono-Regular,Ubuntu Mono" font-size="50.0" fill="#D5943B" transform="matrix(1.00, 0.00, -0.00, -1.00, 1323.0, 573.5)">e</text><text xml:space="preserve" font-family="UbuntuMono-Regular,Ubuntu Mono" font-size="50.0" fill="#525252" transform="matrix(1.00, 0.00, -0.00, -1.00, 1348.0, 573.5)">(</text><text xml:space="preserve" font-family="UbuntuMono-Regular,Ubuntu Mono" font-size="50.0" fill="#525252" transform="matrix(1.00, 0.00, -0.00, -1.00, 1373.0, 573.5)">1</text><text xml:space="preserve" font-family="UbuntuMono-Regular,Ubuntu Mono" font-size="50.0" fill="#525252" transform="matrix(1.00, 0.00, -0.00, -1.00, 1398.0, 573.5)">3</text><text xml:space="preserve" font-family="UbuntuMono-Regular,Ubuntu Mono" font-size="50.0" fill="#525252" transform="matrix(1.00, 0.00, -0.00, -1.00, 1423.0, 573.5)">,</text><text xml:space="preserve" font-family="UbuntuMono-Regular,Ubuntu Mono" font-size="50.0" fill="#525252" transform="matrix(1.00, 0.00, -0.00, -1.00, 1448.0, 573.5)"> </text><text xml:space="preserve" font-family="UbuntuMono-Regular,Ubuntu Mono" font-size="50.0" fill="#56BACB" transform="matrix(1.00, 0.00, -0.00, -1.00, 1473.0, 573.5)">O</text><text xml:space="preserve" font-family="UbuntuMono-Regular,Ubuntu Mono" font-size="50.0" fill="#56BACB" transform="matrix(1.00, 0.00, -0.00, -1.00, 1498.0, 573.5)">U</text><text xml:space="preserve" font-family="UbuntuMono-Regular,Ubuntu Mono" font-size="50.0" fill="#56BACB" transform="matrix(1.00, 0.00, -0.00, -1.00, 1523.0, 573.5)">T</text><text xml:space="preserve" font-family="UbuntuMono-Regular,Ubuntu Mono" font-size="50.0" fill="#56BACB" transform="matrix(1.00, 0.00, -0.00, -1.00, 1548.0, 573.5)">P</text><text xml:space="preserve" font-family="UbuntuMono-Regular,Ubuntu Mono" font-size="50.0" fill="#56BACB" transform="matrix(1.00, 0.00, -0.00, -1.00, 1573.0, 573.5)">U</text><text xml:space="preserve" font-family="UbuntuMono-Regular,Ubuntu Mono" font-size="50.0" fill="#56BACB" transform="matrix(1.00, 0.00, -0.00, -1.00, 1598.0, 573.5)">T</text><text xml:space="preserve" font-family="UbuntuMono-Regular,Ubuntu Mono" font-size="50.0" fill="#525252" transform="matrix(1.00, 0.00, -0.00, -1.00, 1623.0, 573.5)">)</text><text xml:space="preserve" font-family="UbuntuMono-Regular,Ubuntu Mono" font-size="50.0" fill="#525252" transform="matrix(1.00, 0.00, -0.00, -1.00, 1648.0, 573.5)">;</text><text xml:space="preserve" font-family="UbuntuMono-Regular,Ubuntu Mono" font-size="50.0" fill="#525252" transform="matrix(1.00, 0.00, -0.00, -1.00, 1673.0, 573.5)"> </text><text xml:space="preserve" font-family="UbuntuMono-Regular,Ubuntu Mono" font-size="50.0" fill="#525252" transform="matrix(1.00, 0.00, -0.00, -1.00, 1073.0, 523.5)"> </text><text xml:space="preserve" font-family="UbuntuMono-Regular,Ubuntu Mono" font-size="50.0" fill="#525252" transform="matrix(1.00, 0.00, -0.00, -1.00, 1098.0, 523.5)"> </text><text xml:space="preserve" font-family="UbuntuMono-Regular,Ubuntu Mono" font-size="50.0" fill="#525252" transform="matrix(1.00, 0.00, -0.00, -1.00, 1123.0, 523.5)"> </text><text xml:space="preserve" font-family="UbuntuMono-Regular,Ubuntu Mono" font-size="50.0" fill="#525252" transform="matrix(1.00, 0.00, -0.00, -1.00, 1148.0, 523.5)"> </text><text xml:space="preserve" font-family="UbuntuMono-Regular,Ubuntu Mono" font-size="50.0" fill="#D5943B" transform="matrix(1.00, 0.00, -0.00, -1.00, 1173.0, 523.5)">p</text><text xml:space="preserve" font-family="UbuntuMono-Regular,Ubuntu Mono" font-size="50.0" fill="#D5943B" transform="matrix(1.00, 0.00, -0.00, -1.00, 1198.0, 523.5)">i</text><text xml:space="preserve" font-family="UbuntuMono-Regular,Ubuntu Mono" font-size="50.0" fill="#D5943B" transform="matrix(1.00, 0.00, -0.00, -1.00, 1223.0, 523.5)">n</text><text xml:space="preserve" font-family="UbuntuMono-Regular,Ubuntu Mono" font-size="50.0" fill="#D5943B" transform="matrix(1.00, 0.00, -0.00, -1.00, 1248.0, 523.5)">M</text><text xml:space="preserve" font-family="UbuntuMono-Regular,Ubuntu Mono" font-size="50.0" fill="#D5943B" transform="matrix(1.00, 0.00, -0.00, -1.00, 1273.0, 523.5)">o</text><text xml:space="preserve" font-family="UbuntuMono-Regular,Ubuntu Mono" font-size="50.0" fill="#D5943B" transform="matrix(1.00, 0.00, -0.00, -1.00, 1298.0, 523.5)">d</text><text xml:space="preserve" font-family="UbuntuMono-Regular,Ubuntu Mono" font-size="50.0" fill="#D5943B" transform="matrix(1.00, 0.00, -0.00, -1.00, 1323.0, 523.5)">e</text><text xml:space="preserve" font-family="UbuntuMono-Regular,Ubuntu Mono" font-size="50.0" fill="#525252" transform="matrix(1.00, 0.00, -0.00, -1.00, 1348.0, 523.5)">(</text><text xml:space="preserve" font-family="UbuntuMono-Regular,Ubuntu Mono" font-size="50.0" fill="#525252" transform="matrix(1.00, 0.00, -0.00, -1.00, 1373.0, 523.5)">1</text><text xml:space="preserve" font-family="UbuntuMono-Regular,Ubuntu Mono" font-size="50.0" fill="#525252" transform="matrix(1.00, 0.00, -0.00, -1.00, 1398.0, 523.5)">2</text><text xml:space="preserve" font-family="UbuntuMono-Regular,Ubuntu Mono" font-size="50.0" fill="#525252" transform="matrix(1.00, 0.00, -0.00, -1.00, 1423.0, 523.5)">,</text><text xml:space="preserve" font-family="UbuntuMono-Regular,Ubuntu Mono" font-size="50.0" fill="#525252" transform="matrix(1.00, 0.00, -0.00, -1.00, 1448.0, 523.5)"> </text><text xml:space="preserve" font-family="UbuntuMono-Regular,Ubuntu Mono" font-size="50.0" fill="#55BACB" transform="matrix(1.00, 0.00, -0.00, -1.00, 1473.0, 523.5)">I</text><text xml:space="preserve" font-family="UbuntuMono-Regular,Ubuntu Mono" font-size="50.0" fill="#55BACB" transform="matrix(1.00, 0.00, -0.00, -1.00, 1498.0, 523.5)">N</text><text xml:space="preserve" font-family="UbuntuMono-Regular,Ubuntu Mono" font-size="50.0" fill="#55BACB" transform="matrix(1.00, 0.00, -0.00, -1.00, 1523.0, 523.5)">P</text><text xml:space="preserve" font-family="UbuntuMono-Regular,Ubuntu Mono" font-size="50.0" fill="#55BACB" transform="matrix(1.00, 0.00, -0.00, -1.00, 1548.0, 523.5)">U</text><text xml:space="preserve" font-family="UbuntuMono-Regular,Ubuntu Mono" font-size="50.0" fill="#55BACB" transform="matrix(1.00, 0.00, -0.00, -1.00, 1573.0, 523.5)">T</text><text xml:space="preserve" font-family="UbuntuMono-Regular,Ubuntu Mono" font-size="50.0" fill="#525252" transform="matrix(1.00, 0.00, -0.00, -1.00, 1598.0, 523.5)">)</text><text xml:space="preserve" font-family="UbuntuMono-Regular,Ubuntu Mono" font-size="50.0" fill="#525252" transform="matrix(1.00, 0.00, -0.00, -1.00, 1623.0, 523.5)">;</text><text xml:space="preserve" font-family="UbuntuMono-Regular,Ubuntu Mono" font-size="50.0" fill="#525252" transform="matrix(1.00, 0.00, -0.00, -1.00, 1648.0, 523.5)"> </text><text xml:space="preserve" font-family="UbuntuMono-Regular,Ubuntu Mono" font-size="50.0" fill="#525252" transform="matrix(1.00, 0.00, -0.00, -1.00, 1073.0, 473.5)"> </text><text xml:space="preserve" font-family="UbuntuMono-Regular,Ubuntu Mono" font-size="50.0" fill="#525252" transform="matrix(1.00, 0.00, -0.00, -1.00, 1098.0, 473.5)"> </text><text xml:space="preserve" font-family="UbuntuMono-Regular,Ubuntu Mono" font-size="50.0" fill="#525252" transform="matrix(1.00, 0.00, -0.00, -1.00, 1123.0, 473.5)"> </text><text xml:space="preserve" font-family="UbuntuMono-Regular,Ubuntu Mono" font-size="50.0" fill="#525252" transform="matrix(1.00, 0.00, -0.00, -1.00, 1148.0, 473.5)"> </text><text xml:space="preserve" font-family="UbuntuMono-Regular,Ubuntu Mono" font-size="50.0" fill="#D5943B" transform="matrix(1.00, 0.00, -0.00, -1.00, 1173.0, 473.5)">p</text><text xml:space="preserve" font-family="UbuntuMono-Regular,Ubuntu Mono" font-size="50.0" fill="#D5943B" transform="matrix(1.00, 0.00, -0.00, -1.00, 1198.0, 473.5)">i</text><text xml:space="preserve" font-family="UbuntuMono-Regular,Ubuntu Mono" font-size="50.0" fill="#D5943B" transform="matrix(1.00, 0.00, -0.00, -1.00, 1223.0, 473.5)">n</text><text xml:space="preserve" font-family="UbuntuMono-Regular,Ubuntu Mono" font-size="50.0" fill="#D5943B" transform="matrix(1.00, 0.00, -0.00, -1.00, 1248.0, 473.5)">M</text><text xml:space="preserve" font-family="UbuntuMono-Regular,Ubuntu Mono" font-size="50.0" fill="#D5943B" transform="matrix(1.00, 0.00, -0.00, -1.00, 1273.0, 473.5)">o</text><text xml:space="preserve" font-family="UbuntuMono-Regular,Ubuntu Mono" font-size="50.0" fill="#D5943B" transform="matrix(1.00, 0.00, -0.00, -1.00, 1298.0, 473.5)">d</text><text xml:space="preserve" font-family="UbuntuMono-Regular,Ubuntu Mono" font-size="50.0" fill="#D5943B" transform="matrix(1.00, 0.00, -0.00, -1.00, 1323.0, 473.5)">e</text><text xml:space="preserve" font-family="UbuntuMono-Regular,Ubuntu Mono" font-size="50.0" fill="#525252" transform="matrix(1.00, 0.00, -0.00, -1.00, 1348.0, 473.5)">(</text><text xml:space="preserve" font-family="UbuntuMono-Regular,Ubuntu Mono" font-size="50.0" fill="#525252" transform="matrix(1.00, 0.00, -0.00, -1.00, 1373.0, 473.5)">P</text><text xml:space="preserve" font-family="UbuntuMono-Regular,Ubuntu Mono" font-size="50.0" fill="#525252" transform="matrix(1.00, 0.00, -0.00, -1.00, 1398.0, 473.5)">I</text><text xml:space="preserve" font-family="UbuntuMono-Regular,Ubuntu Mono" font-size="50.0" fill="#525252" transform="matrix(1.00, 0.00, -0.00, -1.00, 1423.0, 473.5)">N</text><text xml:space="preserve" font-family="UbuntuMono-Regular,Ubuntu Mono" font-size="50.0" fill="#525252" transform="matrix(1.00, 0.00, -0.00, -1.00, 1448.0, 473.5)">,</text><text xml:space="preserve" font-family="UbuntuMono-Regular,Ubuntu Mono" font-size="50.0" fill="#525252" transform="matrix(1.00, 0.00, -0.00, -1.00, 1473.0, 473.5)"> </text><text xml:space="preserve" font-family="UbuntuMono-Regular,Ubuntu Mono" font-size="50.0" fill="#55BACB" transform="matrix(1.00, 0.00, -0.00, -1.00, 1498.0, 473.5)">M</text><text xml:space="preserve" font-family="UbuntuMono-Regular,Ubuntu Mono" font-size="50.0" fill="#55BACB" transform="matrix(1.00, 0.00, -0.00, -1.00, 1523.0, 473.5)">O</text><text xml:space="preserve" font-family="UbuntuMono-Regular,Ubuntu Mono" font-size="50.0" fill="#55BACB" transform="matrix(1.00, 0.00, -0.00, -1.00, 1548.0, 473.5)">D</text><text xml:space="preserve" font-family="UbuntuMono-Regular,Ubuntu Mono" font-size="50.0" fill="#55BACB" transform="matrix(1.00, 0.00, -0.00, -1.00, 1573.0, 473.5)">E</text><text xml:space="preserve" font-family="UbuntuMono-Regular,Ubuntu Mono" font-size="50.0" fill="#525252" transform="matrix(1.00, 0.00, -0.00, -1.00, 1598.0, 473.5)">)</text><text xml:space="preserve" font-family="UbuntuMono-Regular,Ubuntu Mono" font-size="50.0" fill="#525252" transform="matrix(1.00, 0.00, -0.00, -1.00, 1623.0, 473.5)">;</text><text xml:space="preserve" font-family="UbuntuMono-Regular,Ubuntu Mono" font-size="50.0" fill="#525252" transform="matrix(1.00, 0.00, -0.00, -1.00, 1648.0, 473.5)"> </text><text xml:space="preserve" font-family="UbuntuMono-Regular,Ubuntu Mono" font-size="50.0" fill="#525252" transform="matrix(1.00, 0.00, -0.00, -1.00, 1073.0, 423.5)">}</text></g></svg>