<?xml version="1.0" encoding="UTF-8" standalone="no"?><svg xmlns="http://www.w3.org/2000/svg" xmlns:xlink="http://www.w3.org/1999/xlink" clip-rule="evenodd" stroke-miterlimit="10" viewBox="0 0 1920 1080"><desc>SVG generated by Keynote</desc><defs></defs><g transform="matrix(1.00, 0.00, -0.00, -1.00, 0.0, 1080.0)"><g><clipPath id="clip0x618000abcc80"><path d="M 0.0 1080.0 L 1920.0 1080.0 L 1920.0 0.0 L 0.0 0.0 Z M 0.0 1080.0 "></path></clipPath><g clip-path="url(#clip0x618000abcc80)"><image xlink:href="../../670AF0A5-B06C-45B2-A649-BC83FE98871A/assets/400D38DE9BD779267D8D9BA1A44336F3.jpeg" width="3840.00" height="2160.00" transform="matrix(0.50, 0.00, -0.00, -0.50, 0.0, 1080.0)"></image></g></g><text xml:space="preserve" font-family="GillSans-Light,Gill Sans" font-size="100.0" fill="#525252" transform="matrix(1.00, 0.00, -0.00, -1.00, 236.3, 883.8)">E</text><text xml:space="preserve" font-family="GillSans-Light,Gill Sans" font-size="100.0" fill="#525252" transform="matrix(1.00, 0.00, -0.00, -1.00, 285.4, 883.8)">J</text><text xml:space="preserve" font-family="GillSans-Light,Gill Sans" font-size="100.0" fill="#525252" transform="matrix(1.00, 0.00, -0.00, -1.00, 306.2, 883.8)">E</text><text xml:space="preserve" font-family="GillSans-Light,Gill Sans" font-size="100.0" fill="#525252" transform="matrix(1.00, 0.00, -0.00, -1.00, 355.2, 883.8)">M</text><text xml:space="preserve" font-family="GillSans-Light,Gill Sans" font-size="100.0" fill="#525252" transform="matrix(1.00, 0.00, -0.00, -1.00, 433.3, 883.8)">P</text><text xml:space="preserve" font-family="GillSans-Light,Gill Sans" font-size="100.0" fill="#525252" transform="matrix(1.00, 0.00, -0.00, -1.00, 484.2, 883.8)">L</text><text xml:space="preserve" font-family="GillSans-Light,Gill Sans" font-size="100.0" fill="#525252" transform="matrix(1.00, 0.00, -0.00, -1.00, 531.2, 883.8)">O</text><text xml:space="preserve" font-family="GillSans-Light,Gill Sans" font-size="100.0" fill="#525252" transform="matrix(1.00, 0.00, -0.00, -1.00, 613.5, 883.8)"> </text><text xml:space="preserve" font-family="GillSans-Light,Gill Sans" font-size="100.0" fill="#525252" transform="matrix(1.00, 0.00, -0.00, -1.00, 641.3, 883.8)">D</text><text xml:space="preserve" font-family="GillSans-Light,Gill Sans" font-size="100.0" fill="#525252" transform="matrix(1.00, 0.00, -0.00, -1.00, 715.3, 883.8)">E</text><text xml:space="preserve" font-family="GillSans-Light,Gill Sans" font-size="100.0" fill="#525252" transform="matrix(1.00, 0.00, -0.00, -1.00, 764.4, 883.8)">L</text><text xml:space="preserve" font-family="GillSans-Light,Gill Sans" font-size="100.0" fill="#525252" transform="matrix(1.00, 0.00, -0.00, -1.00, 811.3, 883.8)"> </text><text xml:space="preserve" font-family="GillSans-Light,Gill Sans" font-size="100.0" fill="#525252" transform="matrix(1.00, 0.00, -0.00, -1.00, 839.1, 883.8)">L</text><text xml:space="preserve" font-family="GillSans-Light,Gill Sans" font-size="100.0" fill="#525252" transform="matrix(1.00, 0.00, -0.00, -1.00, 886.0, 883.8)">E</text><text xml:space="preserve" font-family="GillSans-Light,Gill Sans" font-size="100.0" fill="#525252" transform="matrix(1.00, 0.00, -0.00, -1.00, 935.1, 883.8)">D</text><text xml:space="preserve" font-family="GillSans-Light,Gill Sans" font-size="100.0" fill="#525252" transform="matrix(1.00, 0.00, -0.00, -1.00, 1009.1, 883.8)"> </text><text xml:space="preserve" font-family="GillSans-Light,Gill Sans" font-size="100.0" fill="#525252" transform="matrix(1.00, 0.00, -0.00, -1.00, 1036.9, 883.8)">P</text><text xml:space="preserve" font-family="GillSans-Light,Gill Sans" font-size="100.0" fill="#525252" transform="matrix(1.00, 0.00, -0.00, -1.00, 1078.8, 883.8)">A</text><text xml:space="preserve" font-family="GillSans-Light,Gill Sans" font-size="100.0" fill="#525252" transform="matrix(1.00, 0.00, -0.00, -1.00, 1145.5, 883.8)">R</text><text xml:space="preserve" font-family="GillSans-Light,Gill Sans" font-size="100.0" fill="#525252" transform="matrix(1.00, 0.00, -0.00, -1.00, 1202.9, 883.8)">P</text><text xml:space="preserve" font-family="GillSans-Light,Gill Sans" font-size="100.0" fill="#525252" transform="matrix(1.00, 0.00, -0.00, -1.00, 1244.8, 883.8)">A</text><text xml:space="preserve" font-family="GillSans-Light,Gill Sans" font-size="100.0" fill="#525252" transform="matrix(1.00, 0.00, -0.00, -1.00, 1311.5, 883.8)">D</text><text xml:space="preserve" font-family="GillSans-Light,Gill Sans" font-size="100.0" fill="#525252" transform="matrix(1.00, 0.00, -0.00, -1.00, 1385.6, 883.8)">E</text><text xml:space="preserve" font-family="GillSans-Light,Gill Sans" font-size="100.0" fill="#525252" transform="matrix(1.00, 0.00, -0.00, -1.00, 1434.6, 883.8)">A</text><text xml:space="preserve" font-family="GillSans-Light,Gill Sans" font-size="100.0" fill="#525252" transform="matrix(1.00, 0.00, -0.00, -1.00, 1501.3, 883.8)">N</text><text xml:space="preserve" font-family="GillSans-Light,Gill Sans" font-size="100.0" fill="#525252" transform="matrix(1.00, 0.00, -0.00, -1.00, 1578.4, 883.8)">T</text><text xml:space="preserve" font-family="GillSans-Light,Gill Sans" font-size="100.0" fill="#525252" transform="matrix(1.00, 0.00, -0.00, -1.00, 1635.8, 883.8)">E</text><image xlink:href="68C439158CE718CCD3E537DB8140F8B9.png" width="1244.00" height="720.00" transform="matrix(1.00, 0.00, -0.00, -1.00, 338.0, 789.0)"></image><image xlink:href="DCE1852E7BF70CD4E15D4BD49A77A776.png" width="238.00" height="178.00" transform="matrix(1.00, 0.00, -0.00, -1.00, 1222.8, 629.0)"></image></g></svg>