<?xml version="1.0" encoding="UTF-8" standalone="no"?><svg xmlns="http://www.w3.org/2000/svg" xmlns:xlink="http://www.w3.org/1999/xlink" clip-rule="evenodd" stroke-miterlimit="10" viewBox="0 0 1920 1080"><desc>SVG generated by Keynote</desc><defs></defs><g transform="matrix(1.00, 0.00, -0.00, -1.00, 0.0, 1080.0)"><g><clipPath id="clip0x618000abdfa0"><path d="M 0.0 1080.0 L 1920.0 1080.0 L 1920.0 0.0 L 0.0 0.0 Z M 0.0 1080.0 "></path></clipPath><g clip-path="url(#clip0x618000abdfa0)"><image xlink:href="../../670AF0A5-B06C-45B2-A649-BC83FE98871A/assets/400D38DE9BD779267D8D9BA1A44336F3.jpeg" width="3840.00" height="2160.00" transform="matrix(0.50, 0.00, -0.00, -0.50, 0.0, 1080.0)"></image></g></g><text xml:space="preserve" font-family="GillSans-Light,Gill Sans" font-size="100.0" fill="#525252" transform="matrix(1.00, 0.00, -0.00, -1.00, 236.3, 883.8)">E</text><text xml:space="preserve" font-family="GillSans-Light,Gill Sans" font-size="100.0" fill="#525252" transform="matrix(1.00, 0.00, -0.00, -1.00, 285.4, 883.8)">J</text><text xml:space="preserve" font-family="GillSans-Light,Gill Sans" font-size="100.0" fill="#525252" transform="matrix(1.00, 0.00, -0.00, -1.00, 306.2, 883.8)">E</text><text xml:space="preserve" font-family="GillSans-Light,Gill Sans" font-size="100.0" fill="#525252" transform="matrix(1.00, 0.00, -0.00, -1.00, 355.2, 883.8)">M</text><text xml:space="preserve" font-family="GillSans-Light,Gill Sans" font-size="100.0" fill="#525252" transform="matrix(1.00, 0.00, -0.00, -1.00, 433.3, 883.8)">P</text><text xml:space="preserve" font-family="GillSans-Light,Gill Sans" font-size="100.0" fill="#525252" transform="matrix(1.00, 0.00, -0.00, -1.00, 484.2, 883.8)">L</text><text xml:space="preserve" font-family="GillSans-Light,Gill Sans" font-size="100.0" fill="#525252" transform="matrix(1.00, 0.00, -0.00, -1.00, 531.2, 883.8)">O</text><text xml:space="preserve" font-family="GillSans-Light,Gill Sans" font-size="100.0" fill="#525252" transform="matrix(1.00, 0.00, -0.00, -1.00, 613.5, 883.8)"> </text><text xml:space="preserve" font-family="GillSans-Light,Gill Sans" font-size="100.0" fill="#525252" transform="matrix(1.00, 0.00, -0.00, -1.00, 641.3, 883.8)">D</text><text xml:space="preserve" font-family="GillSans-Light,Gill Sans" font-size="100.0" fill="#525252" transform="matrix(1.00, 0.00, -0.00, -1.00, 715.3, 883.8)">E</text><text xml:space="preserve" font-family="GillSans-Light,Gill Sans" font-size="100.0" fill="#525252" transform="matrix(1.00, 0.00, -0.00, -1.00, 764.4, 883.8)">L</text><text xml:space="preserve" font-family="GillSans-Light,Gill Sans" font-size="100.0" fill="#525252" transform="matrix(1.00, 0.00, -0.00, -1.00, 811.3, 883.8)"> </text><text xml:space="preserve" font-family="GillSans-Light,Gill Sans" font-size="100.0" fill="#525252" transform="matrix(1.00, 0.00, -0.00, -1.00, 839.1, 883.8)">L</text><text xml:space="preserve" font-family="GillSans-Light,Gill Sans" font-size="100.0" fill="#525252" transform="matrix(1.00, 0.00, -0.00, -1.00, 886.0, 883.8)">E</text><text xml:space="preserve" font-family="GillSans-Light,Gill Sans" font-size="100.0" fill="#525252" transform="matrix(1.00, 0.00, -0.00, -1.00, 935.1, 883.8)">D</text><text xml:space="preserve" font-family="GillSans-Light,Gill Sans" font-size="100.0" fill="#525252" transform="matrix(1.00, 0.00, -0.00, -1.00, 1009.1, 883.8)"> </text><text xml:space="preserve" font-family="GillSans-Light,Gill Sans" font-size="100.0" fill="#525252" transform="matrix(1.00, 0.00, -0.00, -1.00, 1036.9, 883.8)">P</text><text xml:space="preserve" font-family="GillSans-Light,Gill Sans" font-size="100.0" fill="#525252" transform="matrix(1.00, 0.00, -0.00, -1.00, 1078.8, 883.8)">A</text><text xml:space="preserve" font-family="GillSans-Light,Gill Sans" font-size="100.0" fill="#525252" transform="matrix(1.00, 0.00, -0.00, -1.00, 1145.5, 883.8)">R</text><text xml:space="preserve" font-family="GillSans-Light,Gill Sans" font-size="100.0" fill="#525252" transform="matrix(1.00, 0.00, -0.00, -1.00, 1202.9, 883.8)">P</text><text xml:space="preserve" font-family="GillSans-Light,Gill Sans" font-size="100.0" fill="#525252" transform="matrix(1.00, 0.00, -0.00, -1.00, 1244.8, 883.8)">A</text><text xml:space="preserve" font-family="GillSans-Light,Gill Sans" font-size="100.0" fill="#525252" transform="matrix(1.00, 0.00, -0.00, -1.00, 1311.5, 883.8)">D</text><text xml:space="preserve" font-family="GillSans-Light,Gill Sans" font-size="100.0" fill="#525252" transform="matrix(1.00, 0.00, -0.00, -1.00, 1385.6, 883.8)">E</text><text xml:space="preserve" font-family="GillSans-Light,Gill Sans" font-size="100.0" fill="#525252" transform="matrix(1.00, 0.00, -0.00, -1.00, 1434.6, 883.8)">A</text><text xml:space="preserve" font-family="GillSans-Light,Gill Sans" font-size="100.0" fill="#525252" transform="matrix(1.00, 0.00, -0.00, -1.00, 1501.3, 883.8)">N</text><text xml:space="preserve" font-family="GillSans-Light,Gill Sans" font-size="100.0" fill="#525252" transform="matrix(1.00, 0.00, -0.00, -1.00, 1578.4, 883.8)">T</text><text xml:space="preserve" font-family="GillSans-Light,Gill Sans" font-size="100.0" fill="#525252" transform="matrix(1.00, 0.00, -0.00, -1.00, 1635.8, 883.8)">E</text><image xlink:href="../../FB50E0A0-CD97-4B33-8F96-654F0722E495/assets/68C439158CE718CCD3E537DB8140F8B9.png" width="1244.00" height="720.00" transform="matrix(1.00, 0.00, -0.00, -1.00, 338.0, 789.0)"></image><g><clipPath id="clip0x608000aaf5a0"><path d="M 627.0 663.0 L 945.0 663.0 L 945.0 330.0 L 627.0 330.0 Z M 626.6 663.1 "></path></clipPath><g clip-path="url(#clip0x608000aaf5a0)"><g><clipPath id="clip0x608000aaf720"><path d="M 628.8 332.0 C 627.2 333.6 626.7 365.2 626.7 464.0 C 626.7 578.3 627.0 594.2 629.3 596.1 C 631.7 598.1 631.7 598.6 629.3 601.2 C 626.1 604.8 625.5 635.9 628.6 639.0 C 629.9 640.4 629.9 641.2 628.6 642.1 C 624.2 644.8 627.4 648.1 638.4 652.2 C 679.2 667.3 733.2 666.7 785.0 650.7 C 797.6 646.8 803.9 646.0 828.0 645.3 C 843.6 644.8 856.3 643.9 856.3 643.2 C 856.3 642.5 855.5 641.1 854.4 640.1 C 853.1 638.7 853.1 637.9 854.4 637.0 C 857.1 635.4 856.9 604.3 854.2 601.6 C 852.8 600.1 842.4 599.5 818.7 599.5 C 800.3 599.5 784.8 598.8 784.2 598.0 C 783.7 597.1 784.5 595.5 785.9 594.3 C 789.5 591.3 789.5 571.2 785.9 568.2 C 784.5 567.1 783.7 565.4 784.2 564.5 C 784.8 563.7 807.7 563.0 835.2 563.0 C 871.8 563.0 885.8 562.4 887.3 560.9 C 890.4 557.8 890.0 534.4 886.8 531.7 C 885.4 530.5 884.6 528.9 885.1 528.0 C 885.7 527.2 898.0 526.5 912.6 526.5 C 930.9 526.5 939.8 525.8 941.2 524.4 C 942.4 523.1 943.3 517.2 943.3 509.9 C 943.3 502.7 942.4 496.7 941.2 495.5 C 940.1 494.4 935.4 493.4 930.9 493.4 C 921.9 493.4 919.2 491.6 923.3 488.2 C 926.6 485.5 926.9 463.8 923.8 460.7 C 922.4 459.3 913.5 458.6 895.2 458.6 C 880.6 458.6 868.3 457.9 867.7 457.1 C 867.2 456.2 868.0 454.6 869.4 453.4 C 871.2 451.8 872.0 447.7 872.0 438.6 C 872.0 429.6 871.2 425.4 869.4 423.8 C 868.0 422.7 867.2 421.0 867.7 420.1 C 868.3 419.3 884.9 418.6 904.8 418.6 C 930.5 418.6 941.5 418.0 943.0 416.5 C 945.7 413.7 945.7 390.4 943.0 387.6 C 941.8 386.5 936.8 385.6 931.7 385.6 C 922.0 385.6 919.1 383.8 923.3 380.3 C 926.6 377.6 926.9 356.0 923.8 352.8 C 922.3 351.3 904.4 350.8 854.3 350.8 C 792.5 350.8 780.9 350.0 786.7 346.4 C 789.2 344.9 788.9 334.5 786.4 332.0 C 783.4 329.0 631.8 329.0 628.8 332.0 "></path></clipPath><g clip-path="url(#clip0x608000aaf720)"><image xlink:href="../../07997B0D-5885-4D55-B152-37BF419925DE/assets/255666435A721027DA63B83968A7064D.png" width="237.00" height="231.00" transform="matrix(1.74, 0.00, -0.00, -1.74, 574.0, 688.0)"></image></g></g></g></g><image xlink:href="../../FB50E0A0-CD97-4B33-8F96-654F0722E495/assets/DCE1852E7BF70CD4E15D4BD49A77A776.png" width="238.00" height="178.00" transform="matrix(1.00, 0.00, -0.00, -1.00, 1222.8, 629.0)"></image></g></svg>