<?xml version="1.0" encoding="UTF-8" standalone="no"?><svg xmlns="http://www.w3.org/2000/svg" xmlns:xlink="http://www.w3.org/1999/xlink" clip-rule="evenodd" stroke-miterlimit="10" viewBox="0 0 322 337"><desc>SVG generated by Keynote</desc><defs></defs><g transform="matrix(1.00, 0.00, -0.00, -1.00, 0.0, 337.0)"><g><clipPath id="clip0x610000aa01e0"><path d="M 2.0 335.0 L 320.0 335.0 L 320.0 2.0 L 2.0 2.0 Z M 1.6 335.1 "></path></clipPath><g clip-path="url(#clip0x610000aa01e0)"><g><clipPath id="clip0x610000aa0060"><path d="M 3.8 4.0 C 2.2 5.6 1.7 37.2 1.7 136.0 C 1.7 250.3 2.0 266.2 4.3 268.1 C 6.7 270.1 6.7 270.6 4.3 273.2 C 1.1 276.8 0.5 307.9 3.6 311.0 C 4.9 312.4 4.9 313.2 3.6 314.1 C -0.8 316.8 2.4 320.1 13.4 324.2 C 54.2 339.3 108.2 338.7 160.0 322.7 C 172.6 318.8 178.9 318.0 203.0 317.3 C 218.6 316.8 231.3 315.9 231.3 315.2 C 231.3 314.5 230.5 313.1 229.4 312.1 C 228.1 310.7 228.1 309.9 229.4 309.0 C 232.1 307.4 231.9 276.3 229.2 273.6 C 227.8 272.1 217.4 271.5 193.7 271.5 C 175.3 271.5 159.8 270.8 159.2 270.0 C 158.7 269.1 159.5 267.5 160.9 266.3 C 164.5 263.3 164.5 243.2 160.9 240.2 C 159.5 239.1 158.7 237.4 159.2 236.5 C 159.8 235.7 182.7 235.0 210.2 235.0 C 246.8 235.0 260.8 234.4 262.3 232.9 C 265.4 229.8 265.0 206.4 261.8 203.7 C 260.4 202.5 259.6 200.9 260.1 200.0 C 260.7 199.2 273.0 198.5 287.6 198.5 C 305.9 198.5 314.8 197.8 316.2 196.4 C 317.4 195.1 318.3 189.2 318.3 181.9 C 318.3 174.7 317.4 168.7 316.2 167.5 C 315.1 166.4 310.4 165.4 305.9 165.4 C 296.9 165.4 294.2 163.6 298.3 160.2 C 301.6 157.5 301.9 135.8 298.8 132.7 C 297.4 131.3 288.5 130.6 270.2 130.6 C 255.6 130.6 243.3 129.9 242.7 129.1 C 242.2 128.2 243.0 126.6 244.4 125.4 C 246.2 123.8 247.0 119.7 247.0 110.6 C 247.0 101.6 246.2 97.4 244.4 95.8 C 243.0 94.7 242.2 93.0 242.7 92.1 C 243.3 91.3 259.9 90.6 279.8 90.6 C 305.5 90.6 316.5 90.0 318.0 88.5 C 320.7 85.7 320.7 62.4 318.0 59.6 C 316.8 58.5 311.8 57.6 306.7 57.6 C 297.0 57.6 294.1 55.8 298.3 52.3 C 301.6 49.6 301.9 28.0 298.8 24.8 C 297.3 23.3 279.4 22.8 229.3 22.8 C 167.5 22.8 155.9 22.0 161.7 18.4 C 164.2 16.9 163.9 6.5 161.4 4.0 C 158.4 1.0 6.8 1.0 3.8 4.0 "></path></clipPath><g clip-path="url(#clip0x610000aa0060)"><image xlink:href="255666435A721027DA63B83968A7064D.png" width="237.00" height="231.00" transform="matrix(1.74, 0.00, -0.00, -1.74, -51.0, 360.0)"></image></g></g></g></g></g></svg>