<?xml version="1.0" encoding="UTF-8" standalone="no"?><svg xmlns="http://www.w3.org/2000/svg" xmlns:xlink="http://www.w3.org/1999/xlink" clip-rule="evenodd" stroke-miterlimit="10" viewBox="0 0 1920 1080"><desc>SVG generated by Keynote</desc><defs></defs><g transform="matrix(1.00, 0.00, -0.00, -1.00, 0.0, 1080.0)"><g><clipPath id="clip0x608000ab6c80"><path d="M 0.0 1080.0 L 1920.0 1080.0 L 1920.0 0.0 L 0.0 0.0 Z M 0.0 1080.0 "></path></clipPath><g clip-path="url(#clip0x608000ab6c80)"><image xlink:href="../../670AF0A5-B06C-45B2-A649-BC83FE98871A/assets/400D38DE9BD779267D8D9BA1A44336F3.jpeg" width="3840.00" height="2160.00" transform="matrix(0.50, 0.00, -0.00, -0.50, 0.0, 1080.0)"></image></g></g><text xml:space="preserve" font-family="GillSans-Light,Gill Sans" font-size="100.0" fill="#525252" transform="matrix(1.00, 0.00, -0.00, -1.00, 280.9, 883.8)">B</text><text xml:space="preserve" font-family="GillSans-Light,Gill Sans" font-size="100.0" fill="#525252" transform="matrix(1.00, 0.00, -0.00, -1.00, 333.9, 883.8)">O</text><text xml:space="preserve" font-family="GillSans-Light,Gill Sans" font-size="100.0" fill="#525252" transform="matrix(1.00, 0.00, -0.00, -1.00, 408.7, 883.8)">T</text><text xml:space="preserve" font-family="GillSans-Light,Gill Sans" font-size="100.0" fill="#525252" transform="matrix(1.00, 0.00, -0.00, -1.00, 466.1, 883.8)">Ó</text><text xml:space="preserve" font-family="GillSans-Light,Gill Sans" font-size="100.0" fill="#525252" transform="matrix(1.00, 0.00, -0.00, -1.00, 548.4, 883.8)">N</text><text xml:space="preserve" font-family="GillSans-Light,Gill Sans" font-size="100.0" fill="#525252" transform="matrix(1.00, 0.00, -0.00, -1.00, 625.5, 883.8)"> </text><text xml:space="preserve" font-family="GillSans-Light,Gill Sans" font-size="100.0" fill="#525252" transform="matrix(1.00, 0.00, -0.00, -1.00, 638.3, 883.8)">Y</text><text xml:space="preserve" font-family="GillSans-Light,Gill Sans" font-size="100.0" fill="#525252" transform="matrix(1.00, 0.00, -0.00, -1.00, 696.6, 883.8)"> </text><text xml:space="preserve" font-family="GillSans-Light,Gill Sans" font-size="100.0" fill="#525252" transform="matrix(1.00, 0.00, -0.00, -1.00, 724.4, 883.8)">L</text><text xml:space="preserve" font-family="GillSans-Light,Gill Sans" font-size="100.0" fill="#525252" transform="matrix(1.00, 0.00, -0.00, -1.00, 771.3, 883.8)">E</text><text xml:space="preserve" font-family="GillSans-Light,Gill Sans" font-size="100.0" fill="#525252" transform="matrix(1.00, 0.00, -0.00, -1.00, 820.4, 883.8)">D</text><text xml:space="preserve" font-family="GillSans-Light,Gill Sans" font-size="100.0" fill="#525252" transform="matrix(1.00, 0.00, -0.00, -1.00, 888.4, 883.8)">,</text><text xml:space="preserve" font-family="GillSans-Light,Gill Sans" font-size="100.0" fill="#525252" transform="matrix(1.00, 0.00, -0.00, -1.00, 898.0, 883.8)"> </text><text xml:space="preserve" font-family="GillSans-Light,Gill Sans" font-size="100.0" fill="#525252" transform="matrix(1.00, 0.00, -0.00, -1.00, 925.8, 883.8)">Q</text><text xml:space="preserve" font-family="GillSans-Light,Gill Sans" font-size="100.0" fill="#525252" transform="matrix(1.00, 0.00, -0.00, -1.00, 1006.6, 883.8)">U</text><text xml:space="preserve" font-family="GillSans-Light,Gill Sans" font-size="100.0" fill="#525252" transform="matrix(1.00, 0.00, -0.00, -1.00, 1076.5, 883.8)">E</text><text xml:space="preserve" font-family="GillSans-Light,Gill Sans" font-size="100.0" fill="#525252" transform="matrix(1.00, 0.00, -0.00, -1.00, 1125.5, 883.8)"> </text><text xml:space="preserve" font-family="GillSans-Light,Gill Sans" font-size="100.0" fill="#525252" transform="matrix(1.00, 0.00, -0.00, -1.00, 1153.3, 883.8)">R</text><text xml:space="preserve" font-family="GillSans-Light,Gill Sans" font-size="100.0" fill="#525252" transform="matrix(1.00, 0.00, -0.00, -1.00, 1210.6, 883.8)">E</text><text xml:space="preserve" font-family="GillSans-Light,Gill Sans" font-size="100.0" fill="#525252" transform="matrix(1.00, 0.00, -0.00, -1.00, 1259.7, 883.8)">C</text><text xml:space="preserve" font-family="GillSans-Light,Gill Sans" font-size="100.0" fill="#525252" transform="matrix(1.00, 0.00, -0.00, -1.00, 1327.3, 883.8)">U</text><text xml:space="preserve" font-family="GillSans-Light,Gill Sans" font-size="100.0" fill="#525252" transform="matrix(1.00, 0.00, -0.00, -1.00, 1397.2, 883.8)">E</text><text xml:space="preserve" font-family="GillSans-Light,Gill Sans" font-size="100.0" fill="#525252" transform="matrix(1.00, 0.00, -0.00, -1.00, 1446.2, 883.8)">R</text><text xml:space="preserve" font-family="GillSans-Light,Gill Sans" font-size="100.0" fill="#525252" transform="matrix(1.00, 0.00, -0.00, -1.00, 1503.6, 883.8)">D</text><text xml:space="preserve" font-family="GillSans-Light,Gill Sans" font-size="100.0" fill="#525252" transform="matrix(1.00, 0.00, -0.00, -1.00, 1573.6, 883.8)">A</text><g><clipPath id="clip0x600000aa0240"><path d="M 518.0 816.0 L 1402.0 816.0 L 1402.0 42.0 L 518.0 42.0 Z M 518.2 816.0 "></path></clipPath><g clip-path="url(#clip0x600000aa0240)"><g><clipPath id="clip0x600000aa03c0"><path d="M 521.5 45.4 C 517.3 49.6 517.0 631.9 521.2 636.2 C 523.3 638.2 523.3 639.5 521.2 640.8 C 517.5 643.1 517.5 680.3 521.2 682.6 C 523.3 683.9 523.3 685.1 521.2 687.2 C 517.6 690.8 517.5 727.1 521.1 729.3 C 523.0 730.5 523.0 732.0 521.1 734.3 C 516.9 739.3 517.9 798.0 522.1 798.0 C 523.9 798.0 528.8 799.7 533.1 801.8 C 537.3 803.9 551.2 808.2 564.0 811.2 C 584.3 816.0 592.6 816.6 628.8 815.5 C 663.4 814.5 674.8 813.1 696.4 807.2 C 742.0 794.8 752.9 793.0 783.6 792.9 C 800.2 792.9 814.5 792.1 815.4 791.1 C 816.4 790.2 815.9 788.0 814.5 786.2 C 812.6 783.9 812.6 782.4 814.5 781.2 C 816.0 780.3 817.2 770.8 817.2 759.8 C 817.2 745.0 816.1 738.8 812.9 735.3 C 808.9 730.8 808.9 730.2 812.9 725.8 C 818.6 719.5 818.9 693.6 813.3 689.0 C 806.8 683.6 811.5 681.2 828.5 681.2 C 837.7 681.2 846.1 679.8 847.9 678.0 C 849.6 676.3 851.0 668.3 851.0 660.3 C 851.0 636.8 851.6 637.0 784.0 637.0 C 731.8 637.0 718.2 635.5 726.2 630.5 C 729.7 628.4 729.7 601.4 726.2 599.3 C 724.8 598.4 724.2 596.6 725.1 595.3 C 726.0 593.8 857.4 592.8 1061.1 592.8 C 1317.8 592.8 1396.3 592.1 1398.7 589.7 C 1402.9 585.5 1402.9 545.6 1398.7 541.4 C 1396.4 539.2 1379.5 538.3 1339.1 538.3 C 1287.7 538.3 1274.3 536.8 1282.2 531.8 C 1286.4 529.3 1285.7 472.1 1281.4 468.5 C 1278.9 466.5 1230.7 465.5 1117.4 465.0 L 957.0 464.0 L 957.0 437.5 C 957.3 420.0 956.7 409.4 954.7 406.9 C 952.6 404.3 945.8 403.3 931.4 403.3 C 912.5 403.3 904.4 400.7 910.7 396.8 C 914.4 394.5 914.0 363.4 910.2 359.6 C 908.5 357.9 901.6 356.5 894.8 356.5 C 882.8 356.5 876.7 353.4 882.1 350.0 C 885.6 347.9 885.6 313.2 882.1 311.0 C 874.8 306.5 886.0 305.0 920.0 305.0 L 958.0 305.0 L 958.0 290.8 C 958.0 283.2 956.1 275.6 954.4 273.9 C 952.3 271.8 941.0 270.8 920.8 270.8 C 893.0 270.8 882.9 268.7 889.9 264.3 C 893.7 262.0 893.2 231.0 889.3 227.0 C 886.7 224.3 887.2 222.7 891.9 218.9 C 896.8 214.9 897.7 211.5 897.7 198.8 C 897.7 190.4 896.4 182.2 894.9 180.6 C 888.3 174.1 895.9 172.0 926.5 172.0 L 958.0 172.0 L 958.0 163.5 C 958.0 158.8 956.1 153.6 954.5 151.9 C 952.2 149.6 952.3 148.6 955.1 147.5 C 957.1 146.7 1031.9 145.4 1121.2 145.0 L 1284.0 145.0 L 1284.0 137.5 C 1285.8 122.2 1292.2 122.8 1135.3 122.8 C 1002.8 122.8 982.3 121.8 991.2 116.3 C 994.1 114.5 994.9 81.7 992.3 74.9 C 990.9 71.2 976.7 70.8 858.6 70.8 C 737.0 70.8 717.3 69.8 726.2 64.3 C 729.9 62.1 729.5 49.2 725.7 45.4 C 721.3 40.9 526.0 40.9 521.5 45.4 "></path></clipPath><g clip-path="url(#clip0x600000aa03c0)"><image xlink:href="2DB0DAB79FD5C72478C9874E11D8C15C.png" width="581.00" height="501.00" transform="matrix(1.63, 0.00, -0.00, -1.63, 479.0, 840.0)"></image></g></g></g></g><image xlink:href="9F0B34F57ACFFF07DD8CAC8D26822777.png" width="223.00" height="416.00" transform="matrix(1.68, 0.00, -0.00, -1.67, 53.0, 777.0)"></image></g></svg>